M48
;DRILL file {KiCad 4.0.5} date 06/16/17 00:39:01
;FORMAT={-:-/ absolute / metric / decimal}
FMAT,2
METRIC,TZ
T1C0.800
T2C1.320
T3C1.600
%
G90
G05
M71
T1
X63.5Y-125.222
X63.5Y-143.002
X73.66Y-125.222
X73.66Y-143.002
X74.248Y-119.126
X76.708Y-132.842
X76.708Y-137.842
X77.724Y-112.268
X78.058Y-104.648
X79.248Y-119.126
X83.058Y-104.648
X85.598Y-115.824
X85.598Y-125.984
X85.598Y-128.524
X85.598Y-138.684
X87.884Y-112.268
X89.742Y-120.396
X89.916Y-112.268
X92.456Y-139.954
X94.742Y-120.396
X94.996Y-139.954
X97.536Y-139.954
X98.806Y-85.09
X98.806Y-95.25
X100.076Y-112.268
X102.616Y-130.048
X105.156Y-130.048
X107.696Y-130.048
X108.966Y-112.776
X111.76Y-103.378
X111.76Y-105.918
X111.76Y-108.458
X115.142Y-119.888
X118.618Y-85.09
X118.618Y-95.25
X119.126Y-112.776
X120.142Y-119.888
X121.92Y-91.948
X122.936Y-102.616
X122.936Y-112.776
X124.46Y-91.948
X127.Y-91.948
X129.794Y-104.902
X129.794Y-109.902
T2
X63.5Y-131.064
X63.5Y-136.064
X114.888Y-137.922
X119.888Y-137.922
X132.842Y-136.398
X132.842Y-141.398
T3
X91.948Y-104.648
X99.568Y-104.648
X106.426Y-95.25
X114.046Y-95.25
T0
M30
