G04 #@! TF.FileFunction,Legend,Top*
%FSLAX46Y46*%
G04 Gerber Fmt 4.6, Leading zero omitted, Abs format (unit mm)*
G04 Created by KiCad (PCBNEW 4.0.5) date 06/16/17 00:38:59*
%MOMM*%
%LPD*%
G01*
G04 APERTURE LIST*
%ADD10C,0.100000*%
%ADD11C,0.120000*%
%ADD12C,0.150000*%
G04 APERTURE END LIST*
D10*
D11*
X113610000Y-107718000D02*
X113610000Y-104118000D01*
X112882795Y-108242184D02*
G75*
G03X113610000Y-107718000I-1122795J2324184D01*
G01*
X110661193Y-108274400D02*
G75*
G02X109160000Y-105918000I1098807J2356400D01*
G01*
X110661193Y-103561600D02*
G75*
G03X109160000Y-105918000I1098807J-2356400D01*
G01*
X112882795Y-103593816D02*
G75*
G02X113610000Y-104118000I-1122795J-2324184D01*
G01*
X80558000Y-100598000D02*
X80558000Y-108698000D01*
X80598000Y-100598000D02*
X80598000Y-108698000D01*
X80638000Y-100598000D02*
X80638000Y-108698000D01*
X80678000Y-100599000D02*
X80678000Y-108697000D01*
X80718000Y-100601000D02*
X80718000Y-108695000D01*
X80758000Y-100602000D02*
X80758000Y-108694000D01*
X80798000Y-100605000D02*
X80798000Y-108691000D01*
X80838000Y-100607000D02*
X80838000Y-108689000D01*
X80878000Y-100610000D02*
X80878000Y-108686000D01*
X80918000Y-100613000D02*
X80918000Y-108683000D01*
X80958000Y-100617000D02*
X80958000Y-108679000D01*
X80998000Y-100621000D02*
X80998000Y-108675000D01*
X81038000Y-100626000D02*
X81038000Y-108670000D01*
X81078000Y-100631000D02*
X81078000Y-108665000D01*
X81118000Y-100636000D02*
X81118000Y-108660000D01*
X81158000Y-100642000D02*
X81158000Y-108654000D01*
X81198000Y-100648000D02*
X81198000Y-108648000D01*
X81238000Y-100654000D02*
X81238000Y-108642000D01*
X81279000Y-100661000D02*
X81279000Y-108635000D01*
X81319000Y-100669000D02*
X81319000Y-108627000D01*
X81359000Y-100677000D02*
X81359000Y-108619000D01*
X81399000Y-100685000D02*
X81399000Y-108611000D01*
X81439000Y-100693000D02*
X81439000Y-108603000D01*
X81479000Y-100702000D02*
X81479000Y-108594000D01*
X81519000Y-100712000D02*
X81519000Y-108584000D01*
X81559000Y-100722000D02*
X81559000Y-108574000D01*
X81599000Y-100732000D02*
X81599000Y-108564000D01*
X81639000Y-100743000D02*
X81639000Y-108553000D01*
X81679000Y-100754000D02*
X81679000Y-108542000D01*
X81719000Y-100765000D02*
X81719000Y-108531000D01*
X81759000Y-100778000D02*
X81759000Y-108518000D01*
X81799000Y-100790000D02*
X81799000Y-108506000D01*
X81839000Y-100803000D02*
X81839000Y-108493000D01*
X81879000Y-100816000D02*
X81879000Y-108480000D01*
X81919000Y-100830000D02*
X81919000Y-108466000D01*
X81959000Y-100845000D02*
X81959000Y-108451000D01*
X81999000Y-100859000D02*
X81999000Y-108437000D01*
X82039000Y-100875000D02*
X82039000Y-108421000D01*
X82079000Y-100890000D02*
X82079000Y-103668000D01*
X82079000Y-105628000D02*
X82079000Y-108406000D01*
X82119000Y-100907000D02*
X82119000Y-103668000D01*
X82119000Y-105628000D02*
X82119000Y-108389000D01*
X82159000Y-100923000D02*
X82159000Y-103668000D01*
X82159000Y-105628000D02*
X82159000Y-108373000D01*
X82199000Y-100941000D02*
X82199000Y-103668000D01*
X82199000Y-105628000D02*
X82199000Y-108355000D01*
X82239000Y-100958000D02*
X82239000Y-103668000D01*
X82239000Y-105628000D02*
X82239000Y-108338000D01*
X82279000Y-100977000D02*
X82279000Y-103668000D01*
X82279000Y-105628000D02*
X82279000Y-108319000D01*
X82319000Y-100996000D02*
X82319000Y-103668000D01*
X82319000Y-105628000D02*
X82319000Y-108300000D01*
X82359000Y-101015000D02*
X82359000Y-103668000D01*
X82359000Y-105628000D02*
X82359000Y-108281000D01*
X82399000Y-101035000D02*
X82399000Y-103668000D01*
X82399000Y-105628000D02*
X82399000Y-108261000D01*
X82439000Y-101055000D02*
X82439000Y-103668000D01*
X82439000Y-105628000D02*
X82439000Y-108241000D01*
X82479000Y-101076000D02*
X82479000Y-103668000D01*
X82479000Y-105628000D02*
X82479000Y-108220000D01*
X82519000Y-101098000D02*
X82519000Y-103668000D01*
X82519000Y-105628000D02*
X82519000Y-108198000D01*
X82559000Y-101120000D02*
X82559000Y-103668000D01*
X82559000Y-105628000D02*
X82559000Y-108176000D01*
X82599000Y-101143000D02*
X82599000Y-103668000D01*
X82599000Y-105628000D02*
X82599000Y-108153000D01*
X82639000Y-101166000D02*
X82639000Y-103668000D01*
X82639000Y-105628000D02*
X82639000Y-108130000D01*
X82679000Y-101190000D02*
X82679000Y-103668000D01*
X82679000Y-105628000D02*
X82679000Y-108106000D01*
X82719000Y-101214000D02*
X82719000Y-103668000D01*
X82719000Y-105628000D02*
X82719000Y-108082000D01*
X82759000Y-101240000D02*
X82759000Y-103668000D01*
X82759000Y-105628000D02*
X82759000Y-108056000D01*
X82799000Y-101265000D02*
X82799000Y-103668000D01*
X82799000Y-105628000D02*
X82799000Y-108031000D01*
X82839000Y-101292000D02*
X82839000Y-103668000D01*
X82839000Y-105628000D02*
X82839000Y-108004000D01*
X82879000Y-101319000D02*
X82879000Y-103668000D01*
X82879000Y-105628000D02*
X82879000Y-107977000D01*
X82919000Y-101347000D02*
X82919000Y-103668000D01*
X82919000Y-105628000D02*
X82919000Y-107949000D01*
X82959000Y-101376000D02*
X82959000Y-103668000D01*
X82959000Y-105628000D02*
X82959000Y-107920000D01*
X82999000Y-101405000D02*
X82999000Y-103668000D01*
X82999000Y-105628000D02*
X82999000Y-107891000D01*
X83039000Y-101435000D02*
X83039000Y-103668000D01*
X83039000Y-105628000D02*
X83039000Y-107861000D01*
X83079000Y-101466000D02*
X83079000Y-103668000D01*
X83079000Y-105628000D02*
X83079000Y-107830000D01*
X83119000Y-101498000D02*
X83119000Y-103668000D01*
X83119000Y-105628000D02*
X83119000Y-107798000D01*
X83159000Y-101530000D02*
X83159000Y-103668000D01*
X83159000Y-105628000D02*
X83159000Y-107766000D01*
X83199000Y-101564000D02*
X83199000Y-103668000D01*
X83199000Y-105628000D02*
X83199000Y-107732000D01*
X83239000Y-101598000D02*
X83239000Y-103668000D01*
X83239000Y-105628000D02*
X83239000Y-107698000D01*
X83279000Y-101633000D02*
X83279000Y-103668000D01*
X83279000Y-105628000D02*
X83279000Y-107663000D01*
X83319000Y-101669000D02*
X83319000Y-103668000D01*
X83319000Y-105628000D02*
X83319000Y-107627000D01*
X83359000Y-101706000D02*
X83359000Y-103668000D01*
X83359000Y-105628000D02*
X83359000Y-107590000D01*
X83399000Y-101744000D02*
X83399000Y-103668000D01*
X83399000Y-105628000D02*
X83399000Y-107552000D01*
X83439000Y-101783000D02*
X83439000Y-103668000D01*
X83439000Y-105628000D02*
X83439000Y-107513000D01*
X83479000Y-101824000D02*
X83479000Y-103668000D01*
X83479000Y-105628000D02*
X83479000Y-107472000D01*
X83519000Y-101865000D02*
X83519000Y-103668000D01*
X83519000Y-105628000D02*
X83519000Y-107431000D01*
X83559000Y-101908000D02*
X83559000Y-103668000D01*
X83559000Y-105628000D02*
X83559000Y-107388000D01*
X83599000Y-101951000D02*
X83599000Y-103668000D01*
X83599000Y-105628000D02*
X83599000Y-107345000D01*
X83639000Y-101996000D02*
X83639000Y-103668000D01*
X83639000Y-105628000D02*
X83639000Y-107300000D01*
X83679000Y-102043000D02*
X83679000Y-103668000D01*
X83679000Y-105628000D02*
X83679000Y-107253000D01*
X83719000Y-102091000D02*
X83719000Y-103668000D01*
X83719000Y-105628000D02*
X83719000Y-107205000D01*
X83759000Y-102140000D02*
X83759000Y-103668000D01*
X83759000Y-105628000D02*
X83759000Y-107156000D01*
X83799000Y-102191000D02*
X83799000Y-103668000D01*
X83799000Y-105628000D02*
X83799000Y-107105000D01*
X83839000Y-102244000D02*
X83839000Y-103668000D01*
X83839000Y-105628000D02*
X83839000Y-107052000D01*
X83879000Y-102299000D02*
X83879000Y-103668000D01*
X83879000Y-105628000D02*
X83879000Y-106997000D01*
X83919000Y-102355000D02*
X83919000Y-103668000D01*
X83919000Y-105628000D02*
X83919000Y-106941000D01*
X83959000Y-102414000D02*
X83959000Y-103668000D01*
X83959000Y-105628000D02*
X83959000Y-106882000D01*
X83999000Y-102475000D02*
X83999000Y-103668000D01*
X83999000Y-105628000D02*
X83999000Y-106821000D01*
X84039000Y-102539000D02*
X84039000Y-106757000D01*
X84079000Y-102605000D02*
X84079000Y-106691000D01*
X84119000Y-102674000D02*
X84119000Y-106622000D01*
X84159000Y-102746000D02*
X84159000Y-106550000D01*
X84199000Y-102822000D02*
X84199000Y-106474000D01*
X84239000Y-102903000D02*
X84239000Y-106393000D01*
X84279000Y-102988000D02*
X84279000Y-106308000D01*
X84319000Y-103078000D02*
X84319000Y-106218000D01*
X84359000Y-103175000D02*
X84359000Y-106121000D01*
X84399000Y-103279000D02*
X84399000Y-106017000D01*
X84439000Y-103394000D02*
X84439000Y-105902000D01*
X84479000Y-103521000D02*
X84479000Y-105775000D01*
X84519000Y-103665000D02*
X84519000Y-105631000D01*
X84559000Y-103834000D02*
X84559000Y-105462000D01*
X84599000Y-104050000D02*
X84599000Y-105246000D01*
X84639000Y-104402000D02*
X84639000Y-104894000D01*
X75858000Y-104648000D02*
X77058000Y-104648000D01*
X76458000Y-103998000D02*
X76458000Y-105298000D01*
X84529316Y-103669865D02*
G75*
G03X76587144Y-103668000I-3971316J-978135D01*
G01*
X84529316Y-105626135D02*
G75*
G02X76587144Y-105628000I-3971316J978135D01*
G01*
X84529316Y-105626135D02*
G75*
G03X84528856Y-103668000I-3971316J978135D01*
G01*
X122538000Y-144222000D02*
X122538000Y-131622000D01*
X122538000Y-131622000D02*
X112188000Y-131622000D01*
X112188000Y-131622000D02*
X112188000Y-132572000D01*
X112188000Y-132572000D02*
X111688000Y-132322000D01*
X111688000Y-132322000D02*
X111688000Y-134222000D01*
X111688000Y-134222000D02*
X111688000Y-134272000D01*
X111688000Y-134272000D02*
X112188000Y-134022000D01*
X112188000Y-134022000D02*
X112188000Y-139422000D01*
X112188000Y-139422000D02*
X111688000Y-139122000D01*
X111688000Y-139122000D02*
X111688000Y-144222000D01*
X111688000Y-144222000D02*
X122538000Y-144222000D01*
X57200000Y-138714000D02*
X69800000Y-138714000D01*
X69800000Y-138714000D02*
X69800000Y-128364000D01*
X69800000Y-128364000D02*
X68850000Y-128364000D01*
X68850000Y-128364000D02*
X69100000Y-127864000D01*
X69100000Y-127864000D02*
X67200000Y-127864000D01*
X67200000Y-127864000D02*
X67150000Y-127864000D01*
X67150000Y-127864000D02*
X67400000Y-128364000D01*
X67400000Y-128364000D02*
X62000000Y-128364000D01*
X62000000Y-128364000D02*
X62300000Y-127864000D01*
X62300000Y-127864000D02*
X57200000Y-127864000D01*
X57200000Y-127864000D02*
X57200000Y-138714000D01*
X80758000Y-135342000D02*
X72658000Y-135342000D01*
X80758000Y-135382000D02*
X72658000Y-135382000D01*
X80758000Y-135422000D02*
X72658000Y-135422000D01*
X80757000Y-135462000D02*
X72659000Y-135462000D01*
X80755000Y-135502000D02*
X72661000Y-135502000D01*
X80754000Y-135542000D02*
X72662000Y-135542000D01*
X80751000Y-135582000D02*
X72665000Y-135582000D01*
X80749000Y-135622000D02*
X72667000Y-135622000D01*
X80746000Y-135662000D02*
X72670000Y-135662000D01*
X80743000Y-135702000D02*
X72673000Y-135702000D01*
X80739000Y-135742000D02*
X72677000Y-135742000D01*
X80735000Y-135782000D02*
X72681000Y-135782000D01*
X80730000Y-135822000D02*
X72686000Y-135822000D01*
X80725000Y-135862000D02*
X72691000Y-135862000D01*
X80720000Y-135902000D02*
X72696000Y-135902000D01*
X80714000Y-135942000D02*
X72702000Y-135942000D01*
X80708000Y-135982000D02*
X72708000Y-135982000D01*
X80702000Y-136022000D02*
X72714000Y-136022000D01*
X80695000Y-136063000D02*
X72721000Y-136063000D01*
X80687000Y-136103000D02*
X72729000Y-136103000D01*
X80679000Y-136143000D02*
X72737000Y-136143000D01*
X80671000Y-136183000D02*
X72745000Y-136183000D01*
X80663000Y-136223000D02*
X72753000Y-136223000D01*
X80654000Y-136263000D02*
X72762000Y-136263000D01*
X80644000Y-136303000D02*
X72772000Y-136303000D01*
X80634000Y-136343000D02*
X72782000Y-136343000D01*
X80624000Y-136383000D02*
X72792000Y-136383000D01*
X80613000Y-136423000D02*
X72803000Y-136423000D01*
X80602000Y-136463000D02*
X72814000Y-136463000D01*
X80591000Y-136503000D02*
X72825000Y-136503000D01*
X80578000Y-136543000D02*
X72838000Y-136543000D01*
X80566000Y-136583000D02*
X72850000Y-136583000D01*
X80553000Y-136623000D02*
X72863000Y-136623000D01*
X80540000Y-136663000D02*
X72876000Y-136663000D01*
X80526000Y-136703000D02*
X72890000Y-136703000D01*
X80511000Y-136743000D02*
X72905000Y-136743000D01*
X80497000Y-136783000D02*
X72919000Y-136783000D01*
X80481000Y-136823000D02*
X72935000Y-136823000D01*
X80466000Y-136863000D02*
X77688000Y-136863000D01*
X75728000Y-136863000D02*
X72950000Y-136863000D01*
X80449000Y-136903000D02*
X77688000Y-136903000D01*
X75728000Y-136903000D02*
X72967000Y-136903000D01*
X80433000Y-136943000D02*
X77688000Y-136943000D01*
X75728000Y-136943000D02*
X72983000Y-136943000D01*
X80415000Y-136983000D02*
X77688000Y-136983000D01*
X75728000Y-136983000D02*
X73001000Y-136983000D01*
X80398000Y-137023000D02*
X77688000Y-137023000D01*
X75728000Y-137023000D02*
X73018000Y-137023000D01*
X80379000Y-137063000D02*
X77688000Y-137063000D01*
X75728000Y-137063000D02*
X73037000Y-137063000D01*
X80360000Y-137103000D02*
X77688000Y-137103000D01*
X75728000Y-137103000D02*
X73056000Y-137103000D01*
X80341000Y-137143000D02*
X77688000Y-137143000D01*
X75728000Y-137143000D02*
X73075000Y-137143000D01*
X80321000Y-137183000D02*
X77688000Y-137183000D01*
X75728000Y-137183000D02*
X73095000Y-137183000D01*
X80301000Y-137223000D02*
X77688000Y-137223000D01*
X75728000Y-137223000D02*
X73115000Y-137223000D01*
X80280000Y-137263000D02*
X77688000Y-137263000D01*
X75728000Y-137263000D02*
X73136000Y-137263000D01*
X80258000Y-137303000D02*
X77688000Y-137303000D01*
X75728000Y-137303000D02*
X73158000Y-137303000D01*
X80236000Y-137343000D02*
X77688000Y-137343000D01*
X75728000Y-137343000D02*
X73180000Y-137343000D01*
X80213000Y-137383000D02*
X77688000Y-137383000D01*
X75728000Y-137383000D02*
X73203000Y-137383000D01*
X80190000Y-137423000D02*
X77688000Y-137423000D01*
X75728000Y-137423000D02*
X73226000Y-137423000D01*
X80166000Y-137463000D02*
X77688000Y-137463000D01*
X75728000Y-137463000D02*
X73250000Y-137463000D01*
X80142000Y-137503000D02*
X77688000Y-137503000D01*
X75728000Y-137503000D02*
X73274000Y-137503000D01*
X80116000Y-137543000D02*
X77688000Y-137543000D01*
X75728000Y-137543000D02*
X73300000Y-137543000D01*
X80091000Y-137583000D02*
X77688000Y-137583000D01*
X75728000Y-137583000D02*
X73325000Y-137583000D01*
X80064000Y-137623000D02*
X77688000Y-137623000D01*
X75728000Y-137623000D02*
X73352000Y-137623000D01*
X80037000Y-137663000D02*
X77688000Y-137663000D01*
X75728000Y-137663000D02*
X73379000Y-137663000D01*
X80009000Y-137703000D02*
X77688000Y-137703000D01*
X75728000Y-137703000D02*
X73407000Y-137703000D01*
X79980000Y-137743000D02*
X77688000Y-137743000D01*
X75728000Y-137743000D02*
X73436000Y-137743000D01*
X79951000Y-137783000D02*
X77688000Y-137783000D01*
X75728000Y-137783000D02*
X73465000Y-137783000D01*
X79921000Y-137823000D02*
X77688000Y-137823000D01*
X75728000Y-137823000D02*
X73495000Y-137823000D01*
X79890000Y-137863000D02*
X77688000Y-137863000D01*
X75728000Y-137863000D02*
X73526000Y-137863000D01*
X79858000Y-137903000D02*
X77688000Y-137903000D01*
X75728000Y-137903000D02*
X73558000Y-137903000D01*
X79826000Y-137943000D02*
X77688000Y-137943000D01*
X75728000Y-137943000D02*
X73590000Y-137943000D01*
X79792000Y-137983000D02*
X77688000Y-137983000D01*
X75728000Y-137983000D02*
X73624000Y-137983000D01*
X79758000Y-138023000D02*
X77688000Y-138023000D01*
X75728000Y-138023000D02*
X73658000Y-138023000D01*
X79723000Y-138063000D02*
X77688000Y-138063000D01*
X75728000Y-138063000D02*
X73693000Y-138063000D01*
X79687000Y-138103000D02*
X77688000Y-138103000D01*
X75728000Y-138103000D02*
X73729000Y-138103000D01*
X79650000Y-138143000D02*
X77688000Y-138143000D01*
X75728000Y-138143000D02*
X73766000Y-138143000D01*
X79612000Y-138183000D02*
X77688000Y-138183000D01*
X75728000Y-138183000D02*
X73804000Y-138183000D01*
X79573000Y-138223000D02*
X77688000Y-138223000D01*
X75728000Y-138223000D02*
X73843000Y-138223000D01*
X79532000Y-138263000D02*
X77688000Y-138263000D01*
X75728000Y-138263000D02*
X73884000Y-138263000D01*
X79491000Y-138303000D02*
X77688000Y-138303000D01*
X75728000Y-138303000D02*
X73925000Y-138303000D01*
X79448000Y-138343000D02*
X77688000Y-138343000D01*
X75728000Y-138343000D02*
X73968000Y-138343000D01*
X79405000Y-138383000D02*
X77688000Y-138383000D01*
X75728000Y-138383000D02*
X74011000Y-138383000D01*
X79360000Y-138423000D02*
X77688000Y-138423000D01*
X75728000Y-138423000D02*
X74056000Y-138423000D01*
X79313000Y-138463000D02*
X77688000Y-138463000D01*
X75728000Y-138463000D02*
X74103000Y-138463000D01*
X79265000Y-138503000D02*
X77688000Y-138503000D01*
X75728000Y-138503000D02*
X74151000Y-138503000D01*
X79216000Y-138543000D02*
X77688000Y-138543000D01*
X75728000Y-138543000D02*
X74200000Y-138543000D01*
X79165000Y-138583000D02*
X77688000Y-138583000D01*
X75728000Y-138583000D02*
X74251000Y-138583000D01*
X79112000Y-138623000D02*
X77688000Y-138623000D01*
X75728000Y-138623000D02*
X74304000Y-138623000D01*
X79057000Y-138663000D02*
X77688000Y-138663000D01*
X75728000Y-138663000D02*
X74359000Y-138663000D01*
X79001000Y-138703000D02*
X77688000Y-138703000D01*
X75728000Y-138703000D02*
X74415000Y-138703000D01*
X78942000Y-138743000D02*
X77688000Y-138743000D01*
X75728000Y-138743000D02*
X74474000Y-138743000D01*
X78881000Y-138783000D02*
X77688000Y-138783000D01*
X75728000Y-138783000D02*
X74535000Y-138783000D01*
X78817000Y-138823000D02*
X74599000Y-138823000D01*
X78751000Y-138863000D02*
X74665000Y-138863000D01*
X78682000Y-138903000D02*
X74734000Y-138903000D01*
X78610000Y-138943000D02*
X74806000Y-138943000D01*
X78534000Y-138983000D02*
X74882000Y-138983000D01*
X78453000Y-139023000D02*
X74963000Y-139023000D01*
X78368000Y-139063000D02*
X75048000Y-139063000D01*
X78278000Y-139103000D02*
X75138000Y-139103000D01*
X78181000Y-139143000D02*
X75235000Y-139143000D01*
X78077000Y-139183000D02*
X75339000Y-139183000D01*
X77962000Y-139223000D02*
X75454000Y-139223000D01*
X77835000Y-139263000D02*
X75581000Y-139263000D01*
X77691000Y-139303000D02*
X75725000Y-139303000D01*
X77522000Y-139343000D02*
X75894000Y-139343000D01*
X77306000Y-139383000D02*
X76110000Y-139383000D01*
X76954000Y-139423000D02*
X76462000Y-139423000D01*
X76708000Y-130642000D02*
X76708000Y-131842000D01*
X77358000Y-131242000D02*
X76058000Y-131242000D01*
X77686135Y-139313316D02*
G75*
G03X77688000Y-131371144I-978135J3971316D01*
G01*
X75729865Y-139313316D02*
G75*
G02X75728000Y-131371144I978135J3971316D01*
G01*
X75729865Y-139313316D02*
G75*
G03X77688000Y-139312856I978135J3971316D01*
G01*
X92242000Y-116346000D02*
X92242000Y-124446000D01*
X92282000Y-116346000D02*
X92282000Y-124446000D01*
X92322000Y-116346000D02*
X92322000Y-124446000D01*
X92362000Y-116347000D02*
X92362000Y-124445000D01*
X92402000Y-116349000D02*
X92402000Y-124443000D01*
X92442000Y-116350000D02*
X92442000Y-124442000D01*
X92482000Y-116353000D02*
X92482000Y-124439000D01*
X92522000Y-116355000D02*
X92522000Y-124437000D01*
X92562000Y-116358000D02*
X92562000Y-124434000D01*
X92602000Y-116361000D02*
X92602000Y-124431000D01*
X92642000Y-116365000D02*
X92642000Y-124427000D01*
X92682000Y-116369000D02*
X92682000Y-124423000D01*
X92722000Y-116374000D02*
X92722000Y-124418000D01*
X92762000Y-116379000D02*
X92762000Y-124413000D01*
X92802000Y-116384000D02*
X92802000Y-124408000D01*
X92842000Y-116390000D02*
X92842000Y-124402000D01*
X92882000Y-116396000D02*
X92882000Y-124396000D01*
X92922000Y-116402000D02*
X92922000Y-124390000D01*
X92963000Y-116409000D02*
X92963000Y-124383000D01*
X93003000Y-116417000D02*
X93003000Y-124375000D01*
X93043000Y-116425000D02*
X93043000Y-124367000D01*
X93083000Y-116433000D02*
X93083000Y-124359000D01*
X93123000Y-116441000D02*
X93123000Y-124351000D01*
X93163000Y-116450000D02*
X93163000Y-124342000D01*
X93203000Y-116460000D02*
X93203000Y-124332000D01*
X93243000Y-116470000D02*
X93243000Y-124322000D01*
X93283000Y-116480000D02*
X93283000Y-124312000D01*
X93323000Y-116491000D02*
X93323000Y-124301000D01*
X93363000Y-116502000D02*
X93363000Y-124290000D01*
X93403000Y-116513000D02*
X93403000Y-124279000D01*
X93443000Y-116526000D02*
X93443000Y-124266000D01*
X93483000Y-116538000D02*
X93483000Y-124254000D01*
X93523000Y-116551000D02*
X93523000Y-124241000D01*
X93563000Y-116564000D02*
X93563000Y-124228000D01*
X93603000Y-116578000D02*
X93603000Y-124214000D01*
X93643000Y-116593000D02*
X93643000Y-124199000D01*
X93683000Y-116607000D02*
X93683000Y-124185000D01*
X93723000Y-116623000D02*
X93723000Y-124169000D01*
X93763000Y-116638000D02*
X93763000Y-119416000D01*
X93763000Y-121376000D02*
X93763000Y-124154000D01*
X93803000Y-116655000D02*
X93803000Y-119416000D01*
X93803000Y-121376000D02*
X93803000Y-124137000D01*
X93843000Y-116671000D02*
X93843000Y-119416000D01*
X93843000Y-121376000D02*
X93843000Y-124121000D01*
X93883000Y-116689000D02*
X93883000Y-119416000D01*
X93883000Y-121376000D02*
X93883000Y-124103000D01*
X93923000Y-116706000D02*
X93923000Y-119416000D01*
X93923000Y-121376000D02*
X93923000Y-124086000D01*
X93963000Y-116725000D02*
X93963000Y-119416000D01*
X93963000Y-121376000D02*
X93963000Y-124067000D01*
X94003000Y-116744000D02*
X94003000Y-119416000D01*
X94003000Y-121376000D02*
X94003000Y-124048000D01*
X94043000Y-116763000D02*
X94043000Y-119416000D01*
X94043000Y-121376000D02*
X94043000Y-124029000D01*
X94083000Y-116783000D02*
X94083000Y-119416000D01*
X94083000Y-121376000D02*
X94083000Y-124009000D01*
X94123000Y-116803000D02*
X94123000Y-119416000D01*
X94123000Y-121376000D02*
X94123000Y-123989000D01*
X94163000Y-116824000D02*
X94163000Y-119416000D01*
X94163000Y-121376000D02*
X94163000Y-123968000D01*
X94203000Y-116846000D02*
X94203000Y-119416000D01*
X94203000Y-121376000D02*
X94203000Y-123946000D01*
X94243000Y-116868000D02*
X94243000Y-119416000D01*
X94243000Y-121376000D02*
X94243000Y-123924000D01*
X94283000Y-116891000D02*
X94283000Y-119416000D01*
X94283000Y-121376000D02*
X94283000Y-123901000D01*
X94323000Y-116914000D02*
X94323000Y-119416000D01*
X94323000Y-121376000D02*
X94323000Y-123878000D01*
X94363000Y-116938000D02*
X94363000Y-119416000D01*
X94363000Y-121376000D02*
X94363000Y-123854000D01*
X94403000Y-116962000D02*
X94403000Y-119416000D01*
X94403000Y-121376000D02*
X94403000Y-123830000D01*
X94443000Y-116988000D02*
X94443000Y-119416000D01*
X94443000Y-121376000D02*
X94443000Y-123804000D01*
X94483000Y-117013000D02*
X94483000Y-119416000D01*
X94483000Y-121376000D02*
X94483000Y-123779000D01*
X94523000Y-117040000D02*
X94523000Y-119416000D01*
X94523000Y-121376000D02*
X94523000Y-123752000D01*
X94563000Y-117067000D02*
X94563000Y-119416000D01*
X94563000Y-121376000D02*
X94563000Y-123725000D01*
X94603000Y-117095000D02*
X94603000Y-119416000D01*
X94603000Y-121376000D02*
X94603000Y-123697000D01*
X94643000Y-117124000D02*
X94643000Y-119416000D01*
X94643000Y-121376000D02*
X94643000Y-123668000D01*
X94683000Y-117153000D02*
X94683000Y-119416000D01*
X94683000Y-121376000D02*
X94683000Y-123639000D01*
X94723000Y-117183000D02*
X94723000Y-119416000D01*
X94723000Y-121376000D02*
X94723000Y-123609000D01*
X94763000Y-117214000D02*
X94763000Y-119416000D01*
X94763000Y-121376000D02*
X94763000Y-123578000D01*
X94803000Y-117246000D02*
X94803000Y-119416000D01*
X94803000Y-121376000D02*
X94803000Y-123546000D01*
X94843000Y-117278000D02*
X94843000Y-119416000D01*
X94843000Y-121376000D02*
X94843000Y-123514000D01*
X94883000Y-117312000D02*
X94883000Y-119416000D01*
X94883000Y-121376000D02*
X94883000Y-123480000D01*
X94923000Y-117346000D02*
X94923000Y-119416000D01*
X94923000Y-121376000D02*
X94923000Y-123446000D01*
X94963000Y-117381000D02*
X94963000Y-119416000D01*
X94963000Y-121376000D02*
X94963000Y-123411000D01*
X95003000Y-117417000D02*
X95003000Y-119416000D01*
X95003000Y-121376000D02*
X95003000Y-123375000D01*
X95043000Y-117454000D02*
X95043000Y-119416000D01*
X95043000Y-121376000D02*
X95043000Y-123338000D01*
X95083000Y-117492000D02*
X95083000Y-119416000D01*
X95083000Y-121376000D02*
X95083000Y-123300000D01*
X95123000Y-117531000D02*
X95123000Y-119416000D01*
X95123000Y-121376000D02*
X95123000Y-123261000D01*
X95163000Y-117572000D02*
X95163000Y-119416000D01*
X95163000Y-121376000D02*
X95163000Y-123220000D01*
X95203000Y-117613000D02*
X95203000Y-119416000D01*
X95203000Y-121376000D02*
X95203000Y-123179000D01*
X95243000Y-117656000D02*
X95243000Y-119416000D01*
X95243000Y-121376000D02*
X95243000Y-123136000D01*
X95283000Y-117699000D02*
X95283000Y-119416000D01*
X95283000Y-121376000D02*
X95283000Y-123093000D01*
X95323000Y-117744000D02*
X95323000Y-119416000D01*
X95323000Y-121376000D02*
X95323000Y-123048000D01*
X95363000Y-117791000D02*
X95363000Y-119416000D01*
X95363000Y-121376000D02*
X95363000Y-123001000D01*
X95403000Y-117839000D02*
X95403000Y-119416000D01*
X95403000Y-121376000D02*
X95403000Y-122953000D01*
X95443000Y-117888000D02*
X95443000Y-119416000D01*
X95443000Y-121376000D02*
X95443000Y-122904000D01*
X95483000Y-117939000D02*
X95483000Y-119416000D01*
X95483000Y-121376000D02*
X95483000Y-122853000D01*
X95523000Y-117992000D02*
X95523000Y-119416000D01*
X95523000Y-121376000D02*
X95523000Y-122800000D01*
X95563000Y-118047000D02*
X95563000Y-119416000D01*
X95563000Y-121376000D02*
X95563000Y-122745000D01*
X95603000Y-118103000D02*
X95603000Y-119416000D01*
X95603000Y-121376000D02*
X95603000Y-122689000D01*
X95643000Y-118162000D02*
X95643000Y-119416000D01*
X95643000Y-121376000D02*
X95643000Y-122630000D01*
X95683000Y-118223000D02*
X95683000Y-119416000D01*
X95683000Y-121376000D02*
X95683000Y-122569000D01*
X95723000Y-118287000D02*
X95723000Y-122505000D01*
X95763000Y-118353000D02*
X95763000Y-122439000D01*
X95803000Y-118422000D02*
X95803000Y-122370000D01*
X95843000Y-118494000D02*
X95843000Y-122298000D01*
X95883000Y-118570000D02*
X95883000Y-122222000D01*
X95923000Y-118651000D02*
X95923000Y-122141000D01*
X95963000Y-118736000D02*
X95963000Y-122056000D01*
X96003000Y-118826000D02*
X96003000Y-121966000D01*
X96043000Y-118923000D02*
X96043000Y-121869000D01*
X96083000Y-119027000D02*
X96083000Y-121765000D01*
X96123000Y-119142000D02*
X96123000Y-121650000D01*
X96163000Y-119269000D02*
X96163000Y-121523000D01*
X96203000Y-119413000D02*
X96203000Y-121379000D01*
X96243000Y-119582000D02*
X96243000Y-121210000D01*
X96283000Y-119798000D02*
X96283000Y-120994000D01*
X96323000Y-120150000D02*
X96323000Y-120642000D01*
X87542000Y-120396000D02*
X88742000Y-120396000D01*
X88142000Y-119746000D02*
X88142000Y-121046000D01*
X96213316Y-119417865D02*
G75*
G03X88271144Y-119416000I-3971316J-978135D01*
G01*
X96213316Y-121374135D02*
G75*
G02X88271144Y-121376000I-3971316J978135D01*
G01*
X96213316Y-121374135D02*
G75*
G03X96212856Y-119416000I-3971316J978135D01*
G01*
X76748000Y-123176000D02*
X76748000Y-115076000D01*
X76708000Y-123176000D02*
X76708000Y-115076000D01*
X76668000Y-123176000D02*
X76668000Y-115076000D01*
X76628000Y-123175000D02*
X76628000Y-115077000D01*
X76588000Y-123173000D02*
X76588000Y-115079000D01*
X76548000Y-123172000D02*
X76548000Y-115080000D01*
X76508000Y-123169000D02*
X76508000Y-115083000D01*
X76468000Y-123167000D02*
X76468000Y-115085000D01*
X76428000Y-123164000D02*
X76428000Y-115088000D01*
X76388000Y-123161000D02*
X76388000Y-115091000D01*
X76348000Y-123157000D02*
X76348000Y-115095000D01*
X76308000Y-123153000D02*
X76308000Y-115099000D01*
X76268000Y-123148000D02*
X76268000Y-115104000D01*
X76228000Y-123143000D02*
X76228000Y-115109000D01*
X76188000Y-123138000D02*
X76188000Y-115114000D01*
X76148000Y-123132000D02*
X76148000Y-115120000D01*
X76108000Y-123126000D02*
X76108000Y-115126000D01*
X76068000Y-123120000D02*
X76068000Y-115132000D01*
X76027000Y-123113000D02*
X76027000Y-115139000D01*
X75987000Y-123105000D02*
X75987000Y-115147000D01*
X75947000Y-123097000D02*
X75947000Y-115155000D01*
X75907000Y-123089000D02*
X75907000Y-115163000D01*
X75867000Y-123081000D02*
X75867000Y-115171000D01*
X75827000Y-123072000D02*
X75827000Y-115180000D01*
X75787000Y-123062000D02*
X75787000Y-115190000D01*
X75747000Y-123052000D02*
X75747000Y-115200000D01*
X75707000Y-123042000D02*
X75707000Y-115210000D01*
X75667000Y-123031000D02*
X75667000Y-115221000D01*
X75627000Y-123020000D02*
X75627000Y-115232000D01*
X75587000Y-123009000D02*
X75587000Y-115243000D01*
X75547000Y-122996000D02*
X75547000Y-115256000D01*
X75507000Y-122984000D02*
X75507000Y-115268000D01*
X75467000Y-122971000D02*
X75467000Y-115281000D01*
X75427000Y-122958000D02*
X75427000Y-115294000D01*
X75387000Y-122944000D02*
X75387000Y-115308000D01*
X75347000Y-122929000D02*
X75347000Y-115323000D01*
X75307000Y-122915000D02*
X75307000Y-115337000D01*
X75267000Y-122899000D02*
X75267000Y-115353000D01*
X75227000Y-122884000D02*
X75227000Y-120106000D01*
X75227000Y-118146000D02*
X75227000Y-115368000D01*
X75187000Y-122867000D02*
X75187000Y-120106000D01*
X75187000Y-118146000D02*
X75187000Y-115385000D01*
X75147000Y-122851000D02*
X75147000Y-120106000D01*
X75147000Y-118146000D02*
X75147000Y-115401000D01*
X75107000Y-122833000D02*
X75107000Y-120106000D01*
X75107000Y-118146000D02*
X75107000Y-115419000D01*
X75067000Y-122816000D02*
X75067000Y-120106000D01*
X75067000Y-118146000D02*
X75067000Y-115436000D01*
X75027000Y-122797000D02*
X75027000Y-120106000D01*
X75027000Y-118146000D02*
X75027000Y-115455000D01*
X74987000Y-122778000D02*
X74987000Y-120106000D01*
X74987000Y-118146000D02*
X74987000Y-115474000D01*
X74947000Y-122759000D02*
X74947000Y-120106000D01*
X74947000Y-118146000D02*
X74947000Y-115493000D01*
X74907000Y-122739000D02*
X74907000Y-120106000D01*
X74907000Y-118146000D02*
X74907000Y-115513000D01*
X74867000Y-122719000D02*
X74867000Y-120106000D01*
X74867000Y-118146000D02*
X74867000Y-115533000D01*
X74827000Y-122698000D02*
X74827000Y-120106000D01*
X74827000Y-118146000D02*
X74827000Y-115554000D01*
X74787000Y-122676000D02*
X74787000Y-120106000D01*
X74787000Y-118146000D02*
X74787000Y-115576000D01*
X74747000Y-122654000D02*
X74747000Y-120106000D01*
X74747000Y-118146000D02*
X74747000Y-115598000D01*
X74707000Y-122631000D02*
X74707000Y-120106000D01*
X74707000Y-118146000D02*
X74707000Y-115621000D01*
X74667000Y-122608000D02*
X74667000Y-120106000D01*
X74667000Y-118146000D02*
X74667000Y-115644000D01*
X74627000Y-122584000D02*
X74627000Y-120106000D01*
X74627000Y-118146000D02*
X74627000Y-115668000D01*
X74587000Y-122560000D02*
X74587000Y-120106000D01*
X74587000Y-118146000D02*
X74587000Y-115692000D01*
X74547000Y-122534000D02*
X74547000Y-120106000D01*
X74547000Y-118146000D02*
X74547000Y-115718000D01*
X74507000Y-122509000D02*
X74507000Y-120106000D01*
X74507000Y-118146000D02*
X74507000Y-115743000D01*
X74467000Y-122482000D02*
X74467000Y-120106000D01*
X74467000Y-118146000D02*
X74467000Y-115770000D01*
X74427000Y-122455000D02*
X74427000Y-120106000D01*
X74427000Y-118146000D02*
X74427000Y-115797000D01*
X74387000Y-122427000D02*
X74387000Y-120106000D01*
X74387000Y-118146000D02*
X74387000Y-115825000D01*
X74347000Y-122398000D02*
X74347000Y-120106000D01*
X74347000Y-118146000D02*
X74347000Y-115854000D01*
X74307000Y-122369000D02*
X74307000Y-120106000D01*
X74307000Y-118146000D02*
X74307000Y-115883000D01*
X74267000Y-122339000D02*
X74267000Y-120106000D01*
X74267000Y-118146000D02*
X74267000Y-115913000D01*
X74227000Y-122308000D02*
X74227000Y-120106000D01*
X74227000Y-118146000D02*
X74227000Y-115944000D01*
X74187000Y-122276000D02*
X74187000Y-120106000D01*
X74187000Y-118146000D02*
X74187000Y-115976000D01*
X74147000Y-122244000D02*
X74147000Y-120106000D01*
X74147000Y-118146000D02*
X74147000Y-116008000D01*
X74107000Y-122210000D02*
X74107000Y-120106000D01*
X74107000Y-118146000D02*
X74107000Y-116042000D01*
X74067000Y-122176000D02*
X74067000Y-120106000D01*
X74067000Y-118146000D02*
X74067000Y-116076000D01*
X74027000Y-122141000D02*
X74027000Y-120106000D01*
X74027000Y-118146000D02*
X74027000Y-116111000D01*
X73987000Y-122105000D02*
X73987000Y-120106000D01*
X73987000Y-118146000D02*
X73987000Y-116147000D01*
X73947000Y-122068000D02*
X73947000Y-120106000D01*
X73947000Y-118146000D02*
X73947000Y-116184000D01*
X73907000Y-122030000D02*
X73907000Y-120106000D01*
X73907000Y-118146000D02*
X73907000Y-116222000D01*
X73867000Y-121991000D02*
X73867000Y-120106000D01*
X73867000Y-118146000D02*
X73867000Y-116261000D01*
X73827000Y-121950000D02*
X73827000Y-120106000D01*
X73827000Y-118146000D02*
X73827000Y-116302000D01*
X73787000Y-121909000D02*
X73787000Y-120106000D01*
X73787000Y-118146000D02*
X73787000Y-116343000D01*
X73747000Y-121866000D02*
X73747000Y-120106000D01*
X73747000Y-118146000D02*
X73747000Y-116386000D01*
X73707000Y-121823000D02*
X73707000Y-120106000D01*
X73707000Y-118146000D02*
X73707000Y-116429000D01*
X73667000Y-121778000D02*
X73667000Y-120106000D01*
X73667000Y-118146000D02*
X73667000Y-116474000D01*
X73627000Y-121731000D02*
X73627000Y-120106000D01*
X73627000Y-118146000D02*
X73627000Y-116521000D01*
X73587000Y-121683000D02*
X73587000Y-120106000D01*
X73587000Y-118146000D02*
X73587000Y-116569000D01*
X73547000Y-121634000D02*
X73547000Y-120106000D01*
X73547000Y-118146000D02*
X73547000Y-116618000D01*
X73507000Y-121583000D02*
X73507000Y-120106000D01*
X73507000Y-118146000D02*
X73507000Y-116669000D01*
X73467000Y-121530000D02*
X73467000Y-120106000D01*
X73467000Y-118146000D02*
X73467000Y-116722000D01*
X73427000Y-121475000D02*
X73427000Y-120106000D01*
X73427000Y-118146000D02*
X73427000Y-116777000D01*
X73387000Y-121419000D02*
X73387000Y-120106000D01*
X73387000Y-118146000D02*
X73387000Y-116833000D01*
X73347000Y-121360000D02*
X73347000Y-120106000D01*
X73347000Y-118146000D02*
X73347000Y-116892000D01*
X73307000Y-121299000D02*
X73307000Y-120106000D01*
X73307000Y-118146000D02*
X73307000Y-116953000D01*
X73267000Y-121235000D02*
X73267000Y-117017000D01*
X73227000Y-121169000D02*
X73227000Y-117083000D01*
X73187000Y-121100000D02*
X73187000Y-117152000D01*
X73147000Y-121028000D02*
X73147000Y-117224000D01*
X73107000Y-120952000D02*
X73107000Y-117300000D01*
X73067000Y-120871000D02*
X73067000Y-117381000D01*
X73027000Y-120786000D02*
X73027000Y-117466000D01*
X72987000Y-120696000D02*
X72987000Y-117556000D01*
X72947000Y-120599000D02*
X72947000Y-117653000D01*
X72907000Y-120495000D02*
X72907000Y-117757000D01*
X72867000Y-120380000D02*
X72867000Y-117872000D01*
X72827000Y-120253000D02*
X72827000Y-117999000D01*
X72787000Y-120109000D02*
X72787000Y-118143000D01*
X72747000Y-119940000D02*
X72747000Y-118312000D01*
X72707000Y-119724000D02*
X72707000Y-118528000D01*
X72667000Y-119372000D02*
X72667000Y-118880000D01*
X81448000Y-119126000D02*
X80248000Y-119126000D01*
X80848000Y-119776000D02*
X80848000Y-118476000D01*
X72776684Y-120104135D02*
G75*
G03X80718856Y-120106000I3971316J978135D01*
G01*
X72776684Y-118147865D02*
G75*
G02X80718856Y-118146000I3971316J-978135D01*
G01*
X72776684Y-118147865D02*
G75*
G03X72777144Y-120106000I3971316J-978135D01*
G01*
X117642000Y-115838000D02*
X117642000Y-123938000D01*
X117682000Y-115838000D02*
X117682000Y-123938000D01*
X117722000Y-115838000D02*
X117722000Y-123938000D01*
X117762000Y-115839000D02*
X117762000Y-123937000D01*
X117802000Y-115841000D02*
X117802000Y-123935000D01*
X117842000Y-115842000D02*
X117842000Y-123934000D01*
X117882000Y-115845000D02*
X117882000Y-123931000D01*
X117922000Y-115847000D02*
X117922000Y-123929000D01*
X117962000Y-115850000D02*
X117962000Y-123926000D01*
X118002000Y-115853000D02*
X118002000Y-123923000D01*
X118042000Y-115857000D02*
X118042000Y-123919000D01*
X118082000Y-115861000D02*
X118082000Y-123915000D01*
X118122000Y-115866000D02*
X118122000Y-123910000D01*
X118162000Y-115871000D02*
X118162000Y-123905000D01*
X118202000Y-115876000D02*
X118202000Y-123900000D01*
X118242000Y-115882000D02*
X118242000Y-123894000D01*
X118282000Y-115888000D02*
X118282000Y-123888000D01*
X118322000Y-115894000D02*
X118322000Y-123882000D01*
X118363000Y-115901000D02*
X118363000Y-123875000D01*
X118403000Y-115909000D02*
X118403000Y-123867000D01*
X118443000Y-115917000D02*
X118443000Y-123859000D01*
X118483000Y-115925000D02*
X118483000Y-123851000D01*
X118523000Y-115933000D02*
X118523000Y-123843000D01*
X118563000Y-115942000D02*
X118563000Y-123834000D01*
X118603000Y-115952000D02*
X118603000Y-123824000D01*
X118643000Y-115962000D02*
X118643000Y-123814000D01*
X118683000Y-115972000D02*
X118683000Y-123804000D01*
X118723000Y-115983000D02*
X118723000Y-123793000D01*
X118763000Y-115994000D02*
X118763000Y-123782000D01*
X118803000Y-116005000D02*
X118803000Y-123771000D01*
X118843000Y-116018000D02*
X118843000Y-123758000D01*
X118883000Y-116030000D02*
X118883000Y-123746000D01*
X118923000Y-116043000D02*
X118923000Y-123733000D01*
X118963000Y-116056000D02*
X118963000Y-123720000D01*
X119003000Y-116070000D02*
X119003000Y-123706000D01*
X119043000Y-116085000D02*
X119043000Y-123691000D01*
X119083000Y-116099000D02*
X119083000Y-123677000D01*
X119123000Y-116115000D02*
X119123000Y-123661000D01*
X119163000Y-116130000D02*
X119163000Y-118908000D01*
X119163000Y-120868000D02*
X119163000Y-123646000D01*
X119203000Y-116147000D02*
X119203000Y-118908000D01*
X119203000Y-120868000D02*
X119203000Y-123629000D01*
X119243000Y-116163000D02*
X119243000Y-118908000D01*
X119243000Y-120868000D02*
X119243000Y-123613000D01*
X119283000Y-116181000D02*
X119283000Y-118908000D01*
X119283000Y-120868000D02*
X119283000Y-123595000D01*
X119323000Y-116198000D02*
X119323000Y-118908000D01*
X119323000Y-120868000D02*
X119323000Y-123578000D01*
X119363000Y-116217000D02*
X119363000Y-118908000D01*
X119363000Y-120868000D02*
X119363000Y-123559000D01*
X119403000Y-116236000D02*
X119403000Y-118908000D01*
X119403000Y-120868000D02*
X119403000Y-123540000D01*
X119443000Y-116255000D02*
X119443000Y-118908000D01*
X119443000Y-120868000D02*
X119443000Y-123521000D01*
X119483000Y-116275000D02*
X119483000Y-118908000D01*
X119483000Y-120868000D02*
X119483000Y-123501000D01*
X119523000Y-116295000D02*
X119523000Y-118908000D01*
X119523000Y-120868000D02*
X119523000Y-123481000D01*
X119563000Y-116316000D02*
X119563000Y-118908000D01*
X119563000Y-120868000D02*
X119563000Y-123460000D01*
X119603000Y-116338000D02*
X119603000Y-118908000D01*
X119603000Y-120868000D02*
X119603000Y-123438000D01*
X119643000Y-116360000D02*
X119643000Y-118908000D01*
X119643000Y-120868000D02*
X119643000Y-123416000D01*
X119683000Y-116383000D02*
X119683000Y-118908000D01*
X119683000Y-120868000D02*
X119683000Y-123393000D01*
X119723000Y-116406000D02*
X119723000Y-118908000D01*
X119723000Y-120868000D02*
X119723000Y-123370000D01*
X119763000Y-116430000D02*
X119763000Y-118908000D01*
X119763000Y-120868000D02*
X119763000Y-123346000D01*
X119803000Y-116454000D02*
X119803000Y-118908000D01*
X119803000Y-120868000D02*
X119803000Y-123322000D01*
X119843000Y-116480000D02*
X119843000Y-118908000D01*
X119843000Y-120868000D02*
X119843000Y-123296000D01*
X119883000Y-116505000D02*
X119883000Y-118908000D01*
X119883000Y-120868000D02*
X119883000Y-123271000D01*
X119923000Y-116532000D02*
X119923000Y-118908000D01*
X119923000Y-120868000D02*
X119923000Y-123244000D01*
X119963000Y-116559000D02*
X119963000Y-118908000D01*
X119963000Y-120868000D02*
X119963000Y-123217000D01*
X120003000Y-116587000D02*
X120003000Y-118908000D01*
X120003000Y-120868000D02*
X120003000Y-123189000D01*
X120043000Y-116616000D02*
X120043000Y-118908000D01*
X120043000Y-120868000D02*
X120043000Y-123160000D01*
X120083000Y-116645000D02*
X120083000Y-118908000D01*
X120083000Y-120868000D02*
X120083000Y-123131000D01*
X120123000Y-116675000D02*
X120123000Y-118908000D01*
X120123000Y-120868000D02*
X120123000Y-123101000D01*
X120163000Y-116706000D02*
X120163000Y-118908000D01*
X120163000Y-120868000D02*
X120163000Y-123070000D01*
X120203000Y-116738000D02*
X120203000Y-118908000D01*
X120203000Y-120868000D02*
X120203000Y-123038000D01*
X120243000Y-116770000D02*
X120243000Y-118908000D01*
X120243000Y-120868000D02*
X120243000Y-123006000D01*
X120283000Y-116804000D02*
X120283000Y-118908000D01*
X120283000Y-120868000D02*
X120283000Y-122972000D01*
X120323000Y-116838000D02*
X120323000Y-118908000D01*
X120323000Y-120868000D02*
X120323000Y-122938000D01*
X120363000Y-116873000D02*
X120363000Y-118908000D01*
X120363000Y-120868000D02*
X120363000Y-122903000D01*
X120403000Y-116909000D02*
X120403000Y-118908000D01*
X120403000Y-120868000D02*
X120403000Y-122867000D01*
X120443000Y-116946000D02*
X120443000Y-118908000D01*
X120443000Y-120868000D02*
X120443000Y-122830000D01*
X120483000Y-116984000D02*
X120483000Y-118908000D01*
X120483000Y-120868000D02*
X120483000Y-122792000D01*
X120523000Y-117023000D02*
X120523000Y-118908000D01*
X120523000Y-120868000D02*
X120523000Y-122753000D01*
X120563000Y-117064000D02*
X120563000Y-118908000D01*
X120563000Y-120868000D02*
X120563000Y-122712000D01*
X120603000Y-117105000D02*
X120603000Y-118908000D01*
X120603000Y-120868000D02*
X120603000Y-122671000D01*
X120643000Y-117148000D02*
X120643000Y-118908000D01*
X120643000Y-120868000D02*
X120643000Y-122628000D01*
X120683000Y-117191000D02*
X120683000Y-118908000D01*
X120683000Y-120868000D02*
X120683000Y-122585000D01*
X120723000Y-117236000D02*
X120723000Y-118908000D01*
X120723000Y-120868000D02*
X120723000Y-122540000D01*
X120763000Y-117283000D02*
X120763000Y-118908000D01*
X120763000Y-120868000D02*
X120763000Y-122493000D01*
X120803000Y-117331000D02*
X120803000Y-118908000D01*
X120803000Y-120868000D02*
X120803000Y-122445000D01*
X120843000Y-117380000D02*
X120843000Y-118908000D01*
X120843000Y-120868000D02*
X120843000Y-122396000D01*
X120883000Y-117431000D02*
X120883000Y-118908000D01*
X120883000Y-120868000D02*
X120883000Y-122345000D01*
X120923000Y-117484000D02*
X120923000Y-118908000D01*
X120923000Y-120868000D02*
X120923000Y-122292000D01*
X120963000Y-117539000D02*
X120963000Y-118908000D01*
X120963000Y-120868000D02*
X120963000Y-122237000D01*
X121003000Y-117595000D02*
X121003000Y-118908000D01*
X121003000Y-120868000D02*
X121003000Y-122181000D01*
X121043000Y-117654000D02*
X121043000Y-118908000D01*
X121043000Y-120868000D02*
X121043000Y-122122000D01*
X121083000Y-117715000D02*
X121083000Y-118908000D01*
X121083000Y-120868000D02*
X121083000Y-122061000D01*
X121123000Y-117779000D02*
X121123000Y-121997000D01*
X121163000Y-117845000D02*
X121163000Y-121931000D01*
X121203000Y-117914000D02*
X121203000Y-121862000D01*
X121243000Y-117986000D02*
X121243000Y-121790000D01*
X121283000Y-118062000D02*
X121283000Y-121714000D01*
X121323000Y-118143000D02*
X121323000Y-121633000D01*
X121363000Y-118228000D02*
X121363000Y-121548000D01*
X121403000Y-118318000D02*
X121403000Y-121458000D01*
X121443000Y-118415000D02*
X121443000Y-121361000D01*
X121483000Y-118519000D02*
X121483000Y-121257000D01*
X121523000Y-118634000D02*
X121523000Y-121142000D01*
X121563000Y-118761000D02*
X121563000Y-121015000D01*
X121603000Y-118905000D02*
X121603000Y-120871000D01*
X121643000Y-119074000D02*
X121643000Y-120702000D01*
X121683000Y-119290000D02*
X121683000Y-120486000D01*
X121723000Y-119642000D02*
X121723000Y-120134000D01*
X112942000Y-119888000D02*
X114142000Y-119888000D01*
X113542000Y-119238000D02*
X113542000Y-120538000D01*
X121613316Y-118909865D02*
G75*
G03X113671144Y-118908000I-3971316J-978135D01*
G01*
X121613316Y-120866135D02*
G75*
G02X113671144Y-120868000I-3971316J978135D01*
G01*
X121613316Y-120866135D02*
G75*
G03X121612856Y-118908000I-3971316J978135D01*
G01*
X125744000Y-107402000D02*
X133844000Y-107402000D01*
X125744000Y-107362000D02*
X133844000Y-107362000D01*
X125744000Y-107322000D02*
X133844000Y-107322000D01*
X125745000Y-107282000D02*
X133843000Y-107282000D01*
X125747000Y-107242000D02*
X133841000Y-107242000D01*
X125748000Y-107202000D02*
X133840000Y-107202000D01*
X125751000Y-107162000D02*
X133837000Y-107162000D01*
X125753000Y-107122000D02*
X133835000Y-107122000D01*
X125756000Y-107082000D02*
X133832000Y-107082000D01*
X125759000Y-107042000D02*
X133829000Y-107042000D01*
X125763000Y-107002000D02*
X133825000Y-107002000D01*
X125767000Y-106962000D02*
X133821000Y-106962000D01*
X125772000Y-106922000D02*
X133816000Y-106922000D01*
X125777000Y-106882000D02*
X133811000Y-106882000D01*
X125782000Y-106842000D02*
X133806000Y-106842000D01*
X125788000Y-106802000D02*
X133800000Y-106802000D01*
X125794000Y-106762000D02*
X133794000Y-106762000D01*
X125800000Y-106722000D02*
X133788000Y-106722000D01*
X125807000Y-106681000D02*
X133781000Y-106681000D01*
X125815000Y-106641000D02*
X133773000Y-106641000D01*
X125823000Y-106601000D02*
X133765000Y-106601000D01*
X125831000Y-106561000D02*
X133757000Y-106561000D01*
X125839000Y-106521000D02*
X133749000Y-106521000D01*
X125848000Y-106481000D02*
X133740000Y-106481000D01*
X125858000Y-106441000D02*
X133730000Y-106441000D01*
X125868000Y-106401000D02*
X133720000Y-106401000D01*
X125878000Y-106361000D02*
X133710000Y-106361000D01*
X125889000Y-106321000D02*
X133699000Y-106321000D01*
X125900000Y-106281000D02*
X133688000Y-106281000D01*
X125911000Y-106241000D02*
X133677000Y-106241000D01*
X125924000Y-106201000D02*
X133664000Y-106201000D01*
X125936000Y-106161000D02*
X133652000Y-106161000D01*
X125949000Y-106121000D02*
X133639000Y-106121000D01*
X125962000Y-106081000D02*
X133626000Y-106081000D01*
X125976000Y-106041000D02*
X133612000Y-106041000D01*
X125991000Y-106001000D02*
X133597000Y-106001000D01*
X126005000Y-105961000D02*
X133583000Y-105961000D01*
X126021000Y-105921000D02*
X133567000Y-105921000D01*
X126036000Y-105881000D02*
X128814000Y-105881000D01*
X130774000Y-105881000D02*
X133552000Y-105881000D01*
X126053000Y-105841000D02*
X128814000Y-105841000D01*
X130774000Y-105841000D02*
X133535000Y-105841000D01*
X126069000Y-105801000D02*
X128814000Y-105801000D01*
X130774000Y-105801000D02*
X133519000Y-105801000D01*
X126087000Y-105761000D02*
X128814000Y-105761000D01*
X130774000Y-105761000D02*
X133501000Y-105761000D01*
X126104000Y-105721000D02*
X128814000Y-105721000D01*
X130774000Y-105721000D02*
X133484000Y-105721000D01*
X126123000Y-105681000D02*
X128814000Y-105681000D01*
X130774000Y-105681000D02*
X133465000Y-105681000D01*
X126142000Y-105641000D02*
X128814000Y-105641000D01*
X130774000Y-105641000D02*
X133446000Y-105641000D01*
X126161000Y-105601000D02*
X128814000Y-105601000D01*
X130774000Y-105601000D02*
X133427000Y-105601000D01*
X126181000Y-105561000D02*
X128814000Y-105561000D01*
X130774000Y-105561000D02*
X133407000Y-105561000D01*
X126201000Y-105521000D02*
X128814000Y-105521000D01*
X130774000Y-105521000D02*
X133387000Y-105521000D01*
X126222000Y-105481000D02*
X128814000Y-105481000D01*
X130774000Y-105481000D02*
X133366000Y-105481000D01*
X126244000Y-105441000D02*
X128814000Y-105441000D01*
X130774000Y-105441000D02*
X133344000Y-105441000D01*
X126266000Y-105401000D02*
X128814000Y-105401000D01*
X130774000Y-105401000D02*
X133322000Y-105401000D01*
X126289000Y-105361000D02*
X128814000Y-105361000D01*
X130774000Y-105361000D02*
X133299000Y-105361000D01*
X126312000Y-105321000D02*
X128814000Y-105321000D01*
X130774000Y-105321000D02*
X133276000Y-105321000D01*
X126336000Y-105281000D02*
X128814000Y-105281000D01*
X130774000Y-105281000D02*
X133252000Y-105281000D01*
X126360000Y-105241000D02*
X128814000Y-105241000D01*
X130774000Y-105241000D02*
X133228000Y-105241000D01*
X126386000Y-105201000D02*
X128814000Y-105201000D01*
X130774000Y-105201000D02*
X133202000Y-105201000D01*
X126411000Y-105161000D02*
X128814000Y-105161000D01*
X130774000Y-105161000D02*
X133177000Y-105161000D01*
X126438000Y-105121000D02*
X128814000Y-105121000D01*
X130774000Y-105121000D02*
X133150000Y-105121000D01*
X126465000Y-105081000D02*
X128814000Y-105081000D01*
X130774000Y-105081000D02*
X133123000Y-105081000D01*
X126493000Y-105041000D02*
X128814000Y-105041000D01*
X130774000Y-105041000D02*
X133095000Y-105041000D01*
X126522000Y-105001000D02*
X128814000Y-105001000D01*
X130774000Y-105001000D02*
X133066000Y-105001000D01*
X126551000Y-104961000D02*
X128814000Y-104961000D01*
X130774000Y-104961000D02*
X133037000Y-104961000D01*
X126581000Y-104921000D02*
X128814000Y-104921000D01*
X130774000Y-104921000D02*
X133007000Y-104921000D01*
X126612000Y-104881000D02*
X128814000Y-104881000D01*
X130774000Y-104881000D02*
X132976000Y-104881000D01*
X126644000Y-104841000D02*
X128814000Y-104841000D01*
X130774000Y-104841000D02*
X132944000Y-104841000D01*
X126676000Y-104801000D02*
X128814000Y-104801000D01*
X130774000Y-104801000D02*
X132912000Y-104801000D01*
X126710000Y-104761000D02*
X128814000Y-104761000D01*
X130774000Y-104761000D02*
X132878000Y-104761000D01*
X126744000Y-104721000D02*
X128814000Y-104721000D01*
X130774000Y-104721000D02*
X132844000Y-104721000D01*
X126779000Y-104681000D02*
X128814000Y-104681000D01*
X130774000Y-104681000D02*
X132809000Y-104681000D01*
X126815000Y-104641000D02*
X128814000Y-104641000D01*
X130774000Y-104641000D02*
X132773000Y-104641000D01*
X126852000Y-104601000D02*
X128814000Y-104601000D01*
X130774000Y-104601000D02*
X132736000Y-104601000D01*
X126890000Y-104561000D02*
X128814000Y-104561000D01*
X130774000Y-104561000D02*
X132698000Y-104561000D01*
X126929000Y-104521000D02*
X128814000Y-104521000D01*
X130774000Y-104521000D02*
X132659000Y-104521000D01*
X126970000Y-104481000D02*
X128814000Y-104481000D01*
X130774000Y-104481000D02*
X132618000Y-104481000D01*
X127011000Y-104441000D02*
X128814000Y-104441000D01*
X130774000Y-104441000D02*
X132577000Y-104441000D01*
X127054000Y-104401000D02*
X128814000Y-104401000D01*
X130774000Y-104401000D02*
X132534000Y-104401000D01*
X127097000Y-104361000D02*
X128814000Y-104361000D01*
X130774000Y-104361000D02*
X132491000Y-104361000D01*
X127142000Y-104321000D02*
X128814000Y-104321000D01*
X130774000Y-104321000D02*
X132446000Y-104321000D01*
X127189000Y-104281000D02*
X128814000Y-104281000D01*
X130774000Y-104281000D02*
X132399000Y-104281000D01*
X127237000Y-104241000D02*
X128814000Y-104241000D01*
X130774000Y-104241000D02*
X132351000Y-104241000D01*
X127286000Y-104201000D02*
X128814000Y-104201000D01*
X130774000Y-104201000D02*
X132302000Y-104201000D01*
X127337000Y-104161000D02*
X128814000Y-104161000D01*
X130774000Y-104161000D02*
X132251000Y-104161000D01*
X127390000Y-104121000D02*
X128814000Y-104121000D01*
X130774000Y-104121000D02*
X132198000Y-104121000D01*
X127445000Y-104081000D02*
X128814000Y-104081000D01*
X130774000Y-104081000D02*
X132143000Y-104081000D01*
X127501000Y-104041000D02*
X128814000Y-104041000D01*
X130774000Y-104041000D02*
X132087000Y-104041000D01*
X127560000Y-104001000D02*
X128814000Y-104001000D01*
X130774000Y-104001000D02*
X132028000Y-104001000D01*
X127621000Y-103961000D02*
X128814000Y-103961000D01*
X130774000Y-103961000D02*
X131967000Y-103961000D01*
X127685000Y-103921000D02*
X131903000Y-103921000D01*
X127751000Y-103881000D02*
X131837000Y-103881000D01*
X127820000Y-103841000D02*
X131768000Y-103841000D01*
X127892000Y-103801000D02*
X131696000Y-103801000D01*
X127968000Y-103761000D02*
X131620000Y-103761000D01*
X128049000Y-103721000D02*
X131539000Y-103721000D01*
X128134000Y-103681000D02*
X131454000Y-103681000D01*
X128224000Y-103641000D02*
X131364000Y-103641000D01*
X128321000Y-103601000D02*
X131267000Y-103601000D01*
X128425000Y-103561000D02*
X131163000Y-103561000D01*
X128540000Y-103521000D02*
X131048000Y-103521000D01*
X128667000Y-103481000D02*
X130921000Y-103481000D01*
X128811000Y-103441000D02*
X130777000Y-103441000D01*
X128980000Y-103401000D02*
X130608000Y-103401000D01*
X129196000Y-103361000D02*
X130392000Y-103361000D01*
X129548000Y-103321000D02*
X130040000Y-103321000D01*
X129794000Y-112102000D02*
X129794000Y-110902000D01*
X129144000Y-111502000D02*
X130444000Y-111502000D01*
X128815865Y-103430684D02*
G75*
G03X128814000Y-111372856I978135J-3971316D01*
G01*
X130772135Y-103430684D02*
G75*
G02X130774000Y-111372856I-978135J-3971316D01*
G01*
X130772135Y-103430684D02*
G75*
G03X128814000Y-103431144I-978135J-3971316D01*
G01*
X95508000Y-104648000D02*
X93848000Y-104648000D01*
X96647000Y-105981500D02*
X96647000Y-103314500D01*
X96647000Y-104648000D02*
X94869000Y-105981500D01*
X94869000Y-105981500D02*
X94869000Y-103314500D01*
X94869000Y-103314500D02*
X96647000Y-104648000D01*
X103628000Y-104648000D02*
G75*
G03X103628000Y-104648000I-4060000J0D01*
G01*
X110486000Y-95250000D02*
X112146000Y-95250000D01*
X109347000Y-93916500D02*
X109347000Y-96583500D01*
X109347000Y-95250000D02*
X111125000Y-93916500D01*
X111125000Y-93916500D02*
X111125000Y-96583500D01*
X111125000Y-96583500D02*
X109347000Y-95250000D01*
X110486000Y-95250000D02*
G75*
G03X110486000Y-95250000I-4060000J0D01*
G01*
X139142000Y-133748000D02*
X126542000Y-133748000D01*
X126542000Y-133748000D02*
X126542000Y-144098000D01*
X126542000Y-144098000D02*
X127492000Y-144098000D01*
X127492000Y-144098000D02*
X127242000Y-144598000D01*
X127242000Y-144598000D02*
X129142000Y-144598000D01*
X129142000Y-144598000D02*
X129192000Y-144598000D01*
X129192000Y-144598000D02*
X128942000Y-144098000D01*
X128942000Y-144098000D02*
X134342000Y-144098000D01*
X134342000Y-144098000D02*
X134042000Y-144598000D01*
X134042000Y-144598000D02*
X139142000Y-144598000D01*
X139142000Y-144598000D02*
X139142000Y-133748000D01*
X93196000Y-141804000D02*
X96796000Y-141804000D01*
X92671816Y-141076795D02*
G75*
G03X93196000Y-141804000I2324184J1122795D01*
G01*
X92639600Y-138855193D02*
G75*
G02X94996000Y-137354000I2356400J-1098807D01*
G01*
X97352400Y-138855193D02*
G75*
G03X94996000Y-137354000I-2356400J-1098807D01*
G01*
X97320184Y-141076795D02*
G75*
G02X96796000Y-141804000I-2324184J1122795D01*
G01*
X103356000Y-131898000D02*
X106956000Y-131898000D01*
X102831816Y-131170795D02*
G75*
G03X103356000Y-131898000I2324184J1122795D01*
G01*
X102799600Y-128949193D02*
G75*
G02X105156000Y-127448000I2356400J-1098807D01*
G01*
X107512400Y-128949193D02*
G75*
G03X105156000Y-127448000I-2356400J-1098807D01*
G01*
X107480184Y-131170795D02*
G75*
G02X106956000Y-131898000I-2324184J1122795D01*
G01*
X122660000Y-93798000D02*
X126260000Y-93798000D01*
X122135816Y-93070795D02*
G75*
G03X122660000Y-93798000I2324184J1122795D01*
G01*
X122103600Y-90849193D02*
G75*
G02X124460000Y-89348000I2356400J-1098807D01*
G01*
X126816400Y-90849193D02*
G75*
G03X124460000Y-89348000I-2356400J-1098807D01*
G01*
X126784184Y-93070795D02*
G75*
G02X126260000Y-93798000I-2324184J1122795D01*
G01*
X65370000Y-141692000D02*
X65370000Y-144312000D01*
X65370000Y-144312000D02*
X71790000Y-144312000D01*
X71790000Y-144312000D02*
X71790000Y-141692000D01*
X71790000Y-141692000D02*
X65370000Y-141692000D01*
X64480000Y-143002000D02*
X65370000Y-143002000D01*
X72680000Y-143002000D02*
X71790000Y-143002000D01*
X71790000Y-126532000D02*
X71790000Y-123912000D01*
X71790000Y-123912000D02*
X65370000Y-123912000D01*
X65370000Y-123912000D02*
X65370000Y-126532000D01*
X65370000Y-126532000D02*
X71790000Y-126532000D01*
X72680000Y-125222000D02*
X71790000Y-125222000D01*
X64480000Y-125222000D02*
X65370000Y-125222000D01*
X84288000Y-136814000D02*
X86908000Y-136814000D01*
X86908000Y-136814000D02*
X86908000Y-130394000D01*
X86908000Y-130394000D02*
X84288000Y-130394000D01*
X84288000Y-130394000D02*
X84288000Y-136814000D01*
X85598000Y-137704000D02*
X85598000Y-136814000D01*
X85598000Y-129504000D02*
X85598000Y-130394000D01*
X84288000Y-124114000D02*
X86908000Y-124114000D01*
X86908000Y-124114000D02*
X86908000Y-117694000D01*
X86908000Y-117694000D02*
X84288000Y-117694000D01*
X84288000Y-117694000D02*
X84288000Y-124114000D01*
X85598000Y-125004000D02*
X85598000Y-124114000D01*
X85598000Y-116804000D02*
X85598000Y-117694000D01*
X97496000Y-93380000D02*
X100116000Y-93380000D01*
X100116000Y-93380000D02*
X100116000Y-86960000D01*
X100116000Y-86960000D02*
X97496000Y-86960000D01*
X97496000Y-86960000D02*
X97496000Y-93380000D01*
X98806000Y-94270000D02*
X98806000Y-93380000D01*
X98806000Y-86070000D02*
X98806000Y-86960000D01*
X79594000Y-110958000D02*
X79594000Y-113578000D01*
X79594000Y-113578000D02*
X86014000Y-113578000D01*
X86014000Y-113578000D02*
X86014000Y-110958000D01*
X86014000Y-110958000D02*
X79594000Y-110958000D01*
X78704000Y-112268000D02*
X79594000Y-112268000D01*
X86904000Y-112268000D02*
X86014000Y-112268000D01*
X91786000Y-110958000D02*
X91786000Y-113578000D01*
X91786000Y-113578000D02*
X98206000Y-113578000D01*
X98206000Y-113578000D02*
X98206000Y-110958000D01*
X98206000Y-110958000D02*
X91786000Y-110958000D01*
X90896000Y-112268000D02*
X91786000Y-112268000D01*
X99096000Y-112268000D02*
X98206000Y-112268000D01*
X117308000Y-93380000D02*
X119928000Y-93380000D01*
X119928000Y-93380000D02*
X119928000Y-86960000D01*
X119928000Y-86960000D02*
X117308000Y-86960000D01*
X117308000Y-86960000D02*
X117308000Y-93380000D01*
X118618000Y-94270000D02*
X118618000Y-93380000D01*
X118618000Y-86070000D02*
X118618000Y-86960000D01*
X124246000Y-104486000D02*
X121626000Y-104486000D01*
X121626000Y-104486000D02*
X121626000Y-110906000D01*
X121626000Y-110906000D02*
X124246000Y-110906000D01*
X124246000Y-110906000D02*
X124246000Y-104486000D01*
X122936000Y-103596000D02*
X122936000Y-104486000D01*
X122936000Y-111796000D02*
X122936000Y-110906000D01*
X110836000Y-111466000D02*
X110836000Y-114086000D01*
X110836000Y-114086000D02*
X117256000Y-114086000D01*
X117256000Y-114086000D02*
X117256000Y-111466000D01*
X117256000Y-111466000D02*
X110836000Y-111466000D01*
X109946000Y-112776000D02*
X110836000Y-112776000D01*
X118146000Y-112776000D02*
X117256000Y-112776000D01*
D12*
X108747619Y-106013238D02*
X108700000Y-106108476D01*
X108604762Y-106203714D01*
X108461905Y-106346571D01*
X108414286Y-106441810D01*
X108414286Y-106537048D01*
X108652381Y-106489429D02*
X108604762Y-106584667D01*
X108509524Y-106679905D01*
X108319048Y-106727524D01*
X107985714Y-106727524D01*
X107795238Y-106679905D01*
X107700000Y-106584667D01*
X107652381Y-106489429D01*
X107652381Y-106298952D01*
X107700000Y-106203714D01*
X107795238Y-106108476D01*
X107985714Y-106060857D01*
X108319048Y-106060857D01*
X108509524Y-106108476D01*
X108604762Y-106203714D01*
X108652381Y-106298952D01*
X108652381Y-106489429D01*
X107985714Y-105203714D02*
X108652381Y-105203714D01*
X107604762Y-105441810D02*
X108319048Y-105679905D01*
X108319048Y-105060857D01*
X80391334Y-99945143D02*
X80343715Y-99992762D01*
X80200858Y-100040381D01*
X80105620Y-100040381D01*
X79962762Y-99992762D01*
X79867524Y-99897524D01*
X79819905Y-99802286D01*
X79772286Y-99611810D01*
X79772286Y-99468952D01*
X79819905Y-99278476D01*
X79867524Y-99183238D01*
X79962762Y-99088000D01*
X80105620Y-99040381D01*
X80200858Y-99040381D01*
X80343715Y-99088000D01*
X80391334Y-99135619D01*
X81248477Y-99040381D02*
X81058000Y-99040381D01*
X80962762Y-99088000D01*
X80915143Y-99135619D01*
X80819905Y-99278476D01*
X80772286Y-99468952D01*
X80772286Y-99849905D01*
X80819905Y-99945143D01*
X80867524Y-99992762D01*
X80962762Y-100040381D01*
X81153239Y-100040381D01*
X81248477Y-99992762D01*
X81296096Y-99945143D01*
X81343715Y-99849905D01*
X81343715Y-99611810D01*
X81296096Y-99516571D01*
X81248477Y-99468952D01*
X81153239Y-99421333D01*
X80962762Y-99421333D01*
X80867524Y-99468952D01*
X80819905Y-99516571D01*
X80772286Y-99611810D01*
X117688952Y-145078667D02*
X118165143Y-145078667D01*
X117593714Y-145364381D02*
X117927047Y-144364381D01*
X118260381Y-145364381D01*
X119022286Y-144697714D02*
X119022286Y-145364381D01*
X118593714Y-144697714D02*
X118593714Y-145221524D01*
X118641333Y-145316762D01*
X118736571Y-145364381D01*
X118879429Y-145364381D01*
X118974667Y-145316762D01*
X119022286Y-145269143D01*
X119927048Y-145364381D02*
X119927048Y-144364381D01*
X119927048Y-145316762D02*
X119831810Y-145364381D01*
X119641333Y-145364381D01*
X119546095Y-145316762D01*
X119498476Y-145269143D01*
X119450857Y-145173905D01*
X119450857Y-144888190D01*
X119498476Y-144792952D01*
X119546095Y-144745333D01*
X119641333Y-144697714D01*
X119831810Y-144697714D01*
X119927048Y-144745333D01*
X120403238Y-145364381D02*
X120403238Y-144697714D01*
X120403238Y-144364381D02*
X120355619Y-144412000D01*
X120403238Y-144459619D01*
X120450857Y-144412000D01*
X120403238Y-144364381D01*
X120403238Y-144459619D01*
X121022285Y-145364381D02*
X120927047Y-145316762D01*
X120879428Y-145269143D01*
X120831809Y-145173905D01*
X120831809Y-144888190D01*
X120879428Y-144792952D01*
X120927047Y-144745333D01*
X121022285Y-144697714D01*
X121165143Y-144697714D01*
X121260381Y-144745333D01*
X121308000Y-144792952D01*
X121355619Y-144888190D01*
X121355619Y-145173905D01*
X121308000Y-145269143D01*
X121260381Y-145316762D01*
X121165143Y-145364381D01*
X121022285Y-145364381D01*
X121546095Y-145459619D02*
X122308000Y-145459619D01*
X122736571Y-144364381D02*
X122927048Y-144364381D01*
X123022286Y-144412000D01*
X123117524Y-144507238D01*
X123165143Y-144697714D01*
X123165143Y-145031048D01*
X123117524Y-145221524D01*
X123022286Y-145316762D01*
X122927048Y-145364381D01*
X122736571Y-145364381D01*
X122641333Y-145316762D01*
X122546095Y-145221524D01*
X122498476Y-145031048D01*
X122498476Y-144697714D01*
X122546095Y-144507238D01*
X122641333Y-144412000D01*
X122736571Y-144364381D01*
X123593714Y-144364381D02*
X123593714Y-145173905D01*
X123641333Y-145269143D01*
X123688952Y-145316762D01*
X123784190Y-145364381D01*
X123974667Y-145364381D01*
X124069905Y-145316762D01*
X124117524Y-145269143D01*
X124165143Y-145173905D01*
X124165143Y-144364381D01*
X124498476Y-144364381D02*
X125069905Y-144364381D01*
X124784190Y-145364381D02*
X124784190Y-144364381D01*
X125927048Y-145364381D02*
X125355619Y-145364381D01*
X125641333Y-145364381D02*
X125641333Y-144364381D01*
X125546095Y-144507238D01*
X125450857Y-144602476D01*
X125355619Y-144650095D01*
X56676667Y-141436381D02*
X56676667Y-140960190D01*
X56962381Y-141531619D02*
X55962381Y-141198286D01*
X56962381Y-140864952D01*
X56295714Y-140103047D02*
X56962381Y-140103047D01*
X56295714Y-140531619D02*
X56819524Y-140531619D01*
X56914762Y-140484000D01*
X56962381Y-140388762D01*
X56962381Y-140245904D01*
X56914762Y-140150666D01*
X56867143Y-140103047D01*
X56962381Y-139198285D02*
X55962381Y-139198285D01*
X56914762Y-139198285D02*
X56962381Y-139293523D01*
X56962381Y-139484000D01*
X56914762Y-139579238D01*
X56867143Y-139626857D01*
X56771905Y-139674476D01*
X56486190Y-139674476D01*
X56390952Y-139626857D01*
X56343333Y-139579238D01*
X56295714Y-139484000D01*
X56295714Y-139293523D01*
X56343333Y-139198285D01*
X56962381Y-138722095D02*
X56295714Y-138722095D01*
X55962381Y-138722095D02*
X56010000Y-138769714D01*
X56057619Y-138722095D01*
X56010000Y-138674476D01*
X55962381Y-138722095D01*
X56057619Y-138722095D01*
X56962381Y-138103048D02*
X56914762Y-138198286D01*
X56867143Y-138245905D01*
X56771905Y-138293524D01*
X56486190Y-138293524D01*
X56390952Y-138245905D01*
X56343333Y-138198286D01*
X56295714Y-138103048D01*
X56295714Y-137960190D01*
X56343333Y-137864952D01*
X56390952Y-137817333D01*
X56486190Y-137769714D01*
X56771905Y-137769714D01*
X56867143Y-137817333D01*
X56914762Y-137864952D01*
X56962381Y-137960190D01*
X56962381Y-138103048D01*
X57057619Y-137579238D02*
X57057619Y-136817333D01*
X56962381Y-136579238D02*
X55962381Y-136579238D01*
X56962381Y-136103048D02*
X55962381Y-136103048D01*
X56962381Y-135531619D01*
X55962381Y-135531619D01*
X56962381Y-134531619D02*
X56962381Y-135103048D01*
X56962381Y-134817334D02*
X55962381Y-134817334D01*
X56105238Y-134912572D01*
X56200476Y-135007810D01*
X56248095Y-135103048D01*
X82125143Y-135508666D02*
X82172762Y-135556285D01*
X82220381Y-135699142D01*
X82220381Y-135794380D01*
X82172762Y-135937238D01*
X82077524Y-136032476D01*
X81982286Y-136080095D01*
X81791810Y-136127714D01*
X81648952Y-136127714D01*
X81458476Y-136080095D01*
X81363238Y-136032476D01*
X81268000Y-135937238D01*
X81220381Y-135794380D01*
X81220381Y-135699142D01*
X81268000Y-135556285D01*
X81315619Y-135508666D01*
X82220381Y-134556285D02*
X82220381Y-135127714D01*
X82220381Y-134842000D02*
X81220381Y-134842000D01*
X81363238Y-134937238D01*
X81458476Y-135032476D01*
X81506095Y-135127714D01*
X92075334Y-115693143D02*
X92027715Y-115740762D01*
X91884858Y-115788381D01*
X91789620Y-115788381D01*
X91646762Y-115740762D01*
X91551524Y-115645524D01*
X91503905Y-115550286D01*
X91456286Y-115359810D01*
X91456286Y-115216952D01*
X91503905Y-115026476D01*
X91551524Y-114931238D01*
X91646762Y-114836000D01*
X91789620Y-114788381D01*
X91884858Y-114788381D01*
X92027715Y-114836000D01*
X92075334Y-114883619D01*
X92456286Y-114883619D02*
X92503905Y-114836000D01*
X92599143Y-114788381D01*
X92837239Y-114788381D01*
X92932477Y-114836000D01*
X92980096Y-114883619D01*
X93027715Y-114978857D01*
X93027715Y-115074095D01*
X92980096Y-115216952D01*
X92408667Y-115788381D01*
X93027715Y-115788381D01*
X76581334Y-124543143D02*
X76533715Y-124590762D01*
X76390858Y-124638381D01*
X76295620Y-124638381D01*
X76152762Y-124590762D01*
X76057524Y-124495524D01*
X76009905Y-124400286D01*
X75962286Y-124209810D01*
X75962286Y-124066952D01*
X76009905Y-123876476D01*
X76057524Y-123781238D01*
X76152762Y-123686000D01*
X76295620Y-123638381D01*
X76390858Y-123638381D01*
X76533715Y-123686000D01*
X76581334Y-123733619D01*
X76914667Y-123638381D02*
X77533715Y-123638381D01*
X77200381Y-124019333D01*
X77343239Y-124019333D01*
X77438477Y-124066952D01*
X77486096Y-124114571D01*
X77533715Y-124209810D01*
X77533715Y-124447905D01*
X77486096Y-124543143D01*
X77438477Y-124590762D01*
X77343239Y-124638381D01*
X77057524Y-124638381D01*
X76962286Y-124590762D01*
X76914667Y-124543143D01*
X117475334Y-115185143D02*
X117427715Y-115232762D01*
X117284858Y-115280381D01*
X117189620Y-115280381D01*
X117046762Y-115232762D01*
X116951524Y-115137524D01*
X116903905Y-115042286D01*
X116856286Y-114851810D01*
X116856286Y-114708952D01*
X116903905Y-114518476D01*
X116951524Y-114423238D01*
X117046762Y-114328000D01*
X117189620Y-114280381D01*
X117284858Y-114280381D01*
X117427715Y-114328000D01*
X117475334Y-114375619D01*
X118332477Y-114613714D02*
X118332477Y-115280381D01*
X118094381Y-114232762D02*
X117856286Y-114947048D01*
X118475334Y-114947048D01*
X125091143Y-107568666D02*
X125138762Y-107616285D01*
X125186381Y-107759142D01*
X125186381Y-107854380D01*
X125138762Y-107997238D01*
X125043524Y-108092476D01*
X124948286Y-108140095D01*
X124757810Y-108187714D01*
X124614952Y-108187714D01*
X124424476Y-108140095D01*
X124329238Y-108092476D01*
X124234000Y-107997238D01*
X124186381Y-107854380D01*
X124186381Y-107759142D01*
X124234000Y-107616285D01*
X124281619Y-107568666D01*
X124186381Y-106663904D02*
X124186381Y-107140095D01*
X124662571Y-107187714D01*
X124614952Y-107140095D01*
X124567333Y-107044857D01*
X124567333Y-106806761D01*
X124614952Y-106711523D01*
X124662571Y-106663904D01*
X124757810Y-106616285D01*
X124995905Y-106616285D01*
X125091143Y-106663904D01*
X125138762Y-106711523D01*
X125186381Y-106806761D01*
X125186381Y-107044857D01*
X125138762Y-107140095D01*
X125091143Y-107187714D01*
X95019905Y-110160381D02*
X95019905Y-109160381D01*
X95258000Y-109160381D01*
X95400858Y-109208000D01*
X95496096Y-109303238D01*
X95543715Y-109398476D01*
X95591334Y-109588952D01*
X95591334Y-109731810D01*
X95543715Y-109922286D01*
X95496096Y-110017524D01*
X95400858Y-110112762D01*
X95258000Y-110160381D01*
X95019905Y-110160381D01*
X96543715Y-110160381D02*
X95972286Y-110160381D01*
X96258000Y-110160381D02*
X96258000Y-109160381D01*
X96162762Y-109303238D01*
X96067524Y-109398476D01*
X95972286Y-109446095D01*
X109497905Y-90642381D02*
X109497905Y-89642381D01*
X109736000Y-89642381D01*
X109878858Y-89690000D01*
X109974096Y-89785238D01*
X110021715Y-89880476D01*
X110069334Y-90070952D01*
X110069334Y-90213810D01*
X110021715Y-90404286D01*
X109974096Y-90499524D01*
X109878858Y-90594762D01*
X109736000Y-90642381D01*
X109497905Y-90642381D01*
X110450286Y-89737619D02*
X110497905Y-89690000D01*
X110593143Y-89642381D01*
X110831239Y-89642381D01*
X110926477Y-89690000D01*
X110974096Y-89737619D01*
X111021715Y-89832857D01*
X111021715Y-89928095D01*
X110974096Y-90070952D01*
X110402667Y-90642381D01*
X111021715Y-90642381D01*
X140284381Y-137263714D02*
X139284381Y-137263714D01*
X139284381Y-136882761D01*
X139332000Y-136787523D01*
X139379619Y-136739904D01*
X139474857Y-136692285D01*
X139617714Y-136692285D01*
X139712952Y-136739904D01*
X139760571Y-136787523D01*
X139808190Y-136882761D01*
X139808190Y-137263714D01*
X139284381Y-136073238D02*
X139284381Y-135882761D01*
X139332000Y-135787523D01*
X139427238Y-135692285D01*
X139617714Y-135644666D01*
X139951048Y-135644666D01*
X140141524Y-135692285D01*
X140236762Y-135787523D01*
X140284381Y-135882761D01*
X140284381Y-136073238D01*
X140236762Y-136168476D01*
X140141524Y-136263714D01*
X139951048Y-136311333D01*
X139617714Y-136311333D01*
X139427238Y-136263714D01*
X139332000Y-136168476D01*
X139284381Y-136073238D01*
X139284381Y-135311333D02*
X140284381Y-135073238D01*
X139570095Y-134882761D01*
X140284381Y-134692285D01*
X139284381Y-134454190D01*
X139760571Y-134073238D02*
X139760571Y-133739904D01*
X140284381Y-133597047D02*
X140284381Y-134073238D01*
X139284381Y-134073238D01*
X139284381Y-133597047D01*
X140284381Y-132597047D02*
X139808190Y-132930381D01*
X140284381Y-133168476D02*
X139284381Y-133168476D01*
X139284381Y-132787523D01*
X139332000Y-132692285D01*
X139379619Y-132644666D01*
X139474857Y-132597047D01*
X139617714Y-132597047D01*
X139712952Y-132644666D01*
X139760571Y-132692285D01*
X139808190Y-132787523D01*
X139808190Y-133168476D01*
X140284381Y-131644666D02*
X140284381Y-132216095D01*
X140284381Y-131930381D02*
X139284381Y-131930381D01*
X139427238Y-132025619D01*
X139522476Y-132120857D01*
X139570095Y-132216095D01*
X94900762Y-136941619D02*
X94805524Y-136894000D01*
X94710286Y-136798762D01*
X94567429Y-136655905D01*
X94472190Y-136608286D01*
X94376952Y-136608286D01*
X94424571Y-136846381D02*
X94329333Y-136798762D01*
X94234095Y-136703524D01*
X94186476Y-136513048D01*
X94186476Y-136179714D01*
X94234095Y-135989238D01*
X94329333Y-135894000D01*
X94424571Y-135846381D01*
X94615048Y-135846381D01*
X94710286Y-135894000D01*
X94805524Y-135989238D01*
X94853143Y-136179714D01*
X94853143Y-136513048D01*
X94805524Y-136703524D01*
X94710286Y-136798762D01*
X94615048Y-136846381D01*
X94424571Y-136846381D01*
X95805524Y-136846381D02*
X95234095Y-136846381D01*
X95519809Y-136846381D02*
X95519809Y-135846381D01*
X95424571Y-135989238D01*
X95329333Y-136084476D01*
X95234095Y-136132095D01*
X105060762Y-127035619D02*
X104965524Y-126988000D01*
X104870286Y-126892762D01*
X104727429Y-126749905D01*
X104632190Y-126702286D01*
X104536952Y-126702286D01*
X104584571Y-126940381D02*
X104489333Y-126892762D01*
X104394095Y-126797524D01*
X104346476Y-126607048D01*
X104346476Y-126273714D01*
X104394095Y-126083238D01*
X104489333Y-125988000D01*
X104584571Y-125940381D01*
X104775048Y-125940381D01*
X104870286Y-125988000D01*
X104965524Y-126083238D01*
X105013143Y-126273714D01*
X105013143Y-126607048D01*
X104965524Y-126797524D01*
X104870286Y-126892762D01*
X104775048Y-126940381D01*
X104584571Y-126940381D01*
X105394095Y-126035619D02*
X105441714Y-125988000D01*
X105536952Y-125940381D01*
X105775048Y-125940381D01*
X105870286Y-125988000D01*
X105917905Y-126035619D01*
X105965524Y-126130857D01*
X105965524Y-126226095D01*
X105917905Y-126368952D01*
X105346476Y-126940381D01*
X105965524Y-126940381D01*
X124364762Y-88935619D02*
X124269524Y-88888000D01*
X124174286Y-88792762D01*
X124031429Y-88649905D01*
X123936190Y-88602286D01*
X123840952Y-88602286D01*
X123888571Y-88840381D02*
X123793333Y-88792762D01*
X123698095Y-88697524D01*
X123650476Y-88507048D01*
X123650476Y-88173714D01*
X123698095Y-87983238D01*
X123793333Y-87888000D01*
X123888571Y-87840381D01*
X124079048Y-87840381D01*
X124174286Y-87888000D01*
X124269524Y-87983238D01*
X124317143Y-88173714D01*
X124317143Y-88507048D01*
X124269524Y-88697524D01*
X124174286Y-88792762D01*
X124079048Y-88840381D01*
X123888571Y-88840381D01*
X124650476Y-87840381D02*
X125269524Y-87840381D01*
X124936190Y-88221333D01*
X125079048Y-88221333D01*
X125174286Y-88268952D01*
X125221905Y-88316571D01*
X125269524Y-88411810D01*
X125269524Y-88649905D01*
X125221905Y-88745143D01*
X125174286Y-88792762D01*
X125079048Y-88840381D01*
X124793333Y-88840381D01*
X124698095Y-88792762D01*
X124650476Y-88745143D01*
X68413334Y-141144381D02*
X68080000Y-140668190D01*
X67841905Y-141144381D02*
X67841905Y-140144381D01*
X68222858Y-140144381D01*
X68318096Y-140192000D01*
X68365715Y-140239619D01*
X68413334Y-140334857D01*
X68413334Y-140477714D01*
X68365715Y-140572952D01*
X68318096Y-140620571D01*
X68222858Y-140668190D01*
X67841905Y-140668190D01*
X69365715Y-141144381D02*
X68794286Y-141144381D01*
X69080000Y-141144381D02*
X69080000Y-140144381D01*
X68984762Y-140287238D01*
X68889524Y-140382476D01*
X68794286Y-140430095D01*
X68413334Y-127984381D02*
X68080000Y-127508190D01*
X67841905Y-127984381D02*
X67841905Y-126984381D01*
X68222858Y-126984381D01*
X68318096Y-127032000D01*
X68365715Y-127079619D01*
X68413334Y-127174857D01*
X68413334Y-127317714D01*
X68365715Y-127412952D01*
X68318096Y-127460571D01*
X68222858Y-127508190D01*
X67841905Y-127508190D01*
X68794286Y-127079619D02*
X68841905Y-127032000D01*
X68937143Y-126984381D01*
X69175239Y-126984381D01*
X69270477Y-127032000D01*
X69318096Y-127079619D01*
X69365715Y-127174857D01*
X69365715Y-127270095D01*
X69318096Y-127412952D01*
X68746667Y-127984381D01*
X69365715Y-127984381D01*
X83740381Y-133770666D02*
X83264190Y-134104000D01*
X83740381Y-134342095D02*
X82740381Y-134342095D01*
X82740381Y-133961142D01*
X82788000Y-133865904D01*
X82835619Y-133818285D01*
X82930857Y-133770666D01*
X83073714Y-133770666D01*
X83168952Y-133818285D01*
X83216571Y-133865904D01*
X83264190Y-133961142D01*
X83264190Y-134342095D01*
X82740381Y-133437333D02*
X82740381Y-132818285D01*
X83121333Y-133151619D01*
X83121333Y-133008761D01*
X83168952Y-132913523D01*
X83216571Y-132865904D01*
X83311810Y-132818285D01*
X83549905Y-132818285D01*
X83645143Y-132865904D01*
X83692762Y-132913523D01*
X83740381Y-133008761D01*
X83740381Y-133294476D01*
X83692762Y-133389714D01*
X83645143Y-133437333D01*
X83740381Y-121070666D02*
X83264190Y-121404000D01*
X83740381Y-121642095D02*
X82740381Y-121642095D01*
X82740381Y-121261142D01*
X82788000Y-121165904D01*
X82835619Y-121118285D01*
X82930857Y-121070666D01*
X83073714Y-121070666D01*
X83168952Y-121118285D01*
X83216571Y-121165904D01*
X83264190Y-121261142D01*
X83264190Y-121642095D01*
X83073714Y-120213523D02*
X83740381Y-120213523D01*
X82692762Y-120451619D02*
X83407048Y-120689714D01*
X83407048Y-120070666D01*
X96948381Y-90336666D02*
X96472190Y-90670000D01*
X96948381Y-90908095D02*
X95948381Y-90908095D01*
X95948381Y-90527142D01*
X95996000Y-90431904D01*
X96043619Y-90384285D01*
X96138857Y-90336666D01*
X96281714Y-90336666D01*
X96376952Y-90384285D01*
X96424571Y-90431904D01*
X96472190Y-90527142D01*
X96472190Y-90908095D01*
X95948381Y-89431904D02*
X95948381Y-89908095D01*
X96424571Y-89955714D01*
X96376952Y-89908095D01*
X96329333Y-89812857D01*
X96329333Y-89574761D01*
X96376952Y-89479523D01*
X96424571Y-89431904D01*
X96519810Y-89384285D01*
X96757905Y-89384285D01*
X96853143Y-89431904D01*
X96900762Y-89479523D01*
X96948381Y-89574761D01*
X96948381Y-89812857D01*
X96900762Y-89908095D01*
X96853143Y-89955714D01*
X82637334Y-110410381D02*
X82304000Y-109934190D01*
X82065905Y-110410381D02*
X82065905Y-109410381D01*
X82446858Y-109410381D01*
X82542096Y-109458000D01*
X82589715Y-109505619D01*
X82637334Y-109600857D01*
X82637334Y-109743714D01*
X82589715Y-109838952D01*
X82542096Y-109886571D01*
X82446858Y-109934190D01*
X82065905Y-109934190D01*
X83494477Y-109410381D02*
X83304000Y-109410381D01*
X83208762Y-109458000D01*
X83161143Y-109505619D01*
X83065905Y-109648476D01*
X83018286Y-109838952D01*
X83018286Y-110219905D01*
X83065905Y-110315143D01*
X83113524Y-110362762D01*
X83208762Y-110410381D01*
X83399239Y-110410381D01*
X83494477Y-110362762D01*
X83542096Y-110315143D01*
X83589715Y-110219905D01*
X83589715Y-109981810D01*
X83542096Y-109886571D01*
X83494477Y-109838952D01*
X83399239Y-109791333D01*
X83208762Y-109791333D01*
X83113524Y-109838952D01*
X83065905Y-109886571D01*
X83018286Y-109981810D01*
X94829334Y-110410381D02*
X94496000Y-109934190D01*
X94257905Y-110410381D02*
X94257905Y-109410381D01*
X94638858Y-109410381D01*
X94734096Y-109458000D01*
X94781715Y-109505619D01*
X94829334Y-109600857D01*
X94829334Y-109743714D01*
X94781715Y-109838952D01*
X94734096Y-109886571D01*
X94638858Y-109934190D01*
X94257905Y-109934190D01*
X95162667Y-109410381D02*
X95829334Y-109410381D01*
X95400762Y-110410381D01*
X116760381Y-90336666D02*
X116284190Y-90670000D01*
X116760381Y-90908095D02*
X115760381Y-90908095D01*
X115760381Y-90527142D01*
X115808000Y-90431904D01*
X115855619Y-90384285D01*
X115950857Y-90336666D01*
X116093714Y-90336666D01*
X116188952Y-90384285D01*
X116236571Y-90431904D01*
X116284190Y-90527142D01*
X116284190Y-90908095D01*
X116188952Y-89765238D02*
X116141333Y-89860476D01*
X116093714Y-89908095D01*
X115998476Y-89955714D01*
X115950857Y-89955714D01*
X115855619Y-89908095D01*
X115808000Y-89860476D01*
X115760381Y-89765238D01*
X115760381Y-89574761D01*
X115808000Y-89479523D01*
X115855619Y-89431904D01*
X115950857Y-89384285D01*
X115998476Y-89384285D01*
X116093714Y-89431904D01*
X116141333Y-89479523D01*
X116188952Y-89574761D01*
X116188952Y-89765238D01*
X116236571Y-89860476D01*
X116284190Y-89908095D01*
X116379429Y-89955714D01*
X116569905Y-89955714D01*
X116665143Y-89908095D01*
X116712762Y-89860476D01*
X116760381Y-89765238D01*
X116760381Y-89574761D01*
X116712762Y-89479523D01*
X116665143Y-89431904D01*
X116569905Y-89384285D01*
X116379429Y-89384285D01*
X116284190Y-89431904D01*
X116236571Y-89479523D01*
X116188952Y-89574761D01*
X125698381Y-107862666D02*
X125222190Y-108196000D01*
X125698381Y-108434095D02*
X124698381Y-108434095D01*
X124698381Y-108053142D01*
X124746000Y-107957904D01*
X124793619Y-107910285D01*
X124888857Y-107862666D01*
X125031714Y-107862666D01*
X125126952Y-107910285D01*
X125174571Y-107957904D01*
X125222190Y-108053142D01*
X125222190Y-108434095D01*
X125698381Y-107386476D02*
X125698381Y-107196000D01*
X125650762Y-107100761D01*
X125603143Y-107053142D01*
X125460286Y-106957904D01*
X125269810Y-106910285D01*
X124888857Y-106910285D01*
X124793619Y-106957904D01*
X124746000Y-107005523D01*
X124698381Y-107100761D01*
X124698381Y-107291238D01*
X124746000Y-107386476D01*
X124793619Y-107434095D01*
X124888857Y-107481714D01*
X125126952Y-107481714D01*
X125222190Y-107434095D01*
X125269810Y-107386476D01*
X125317429Y-107291238D01*
X125317429Y-107100761D01*
X125269810Y-107005523D01*
X125222190Y-106957904D01*
X125126952Y-106910285D01*
X113403143Y-110918381D02*
X113069809Y-110442190D01*
X112831714Y-110918381D02*
X112831714Y-109918381D01*
X113212667Y-109918381D01*
X113307905Y-109966000D01*
X113355524Y-110013619D01*
X113403143Y-110108857D01*
X113403143Y-110251714D01*
X113355524Y-110346952D01*
X113307905Y-110394571D01*
X113212667Y-110442190D01*
X112831714Y-110442190D01*
X114355524Y-110918381D02*
X113784095Y-110918381D01*
X114069809Y-110918381D02*
X114069809Y-109918381D01*
X113974571Y-110061238D01*
X113879333Y-110156476D01*
X113784095Y-110204095D01*
X114974571Y-109918381D02*
X115069810Y-109918381D01*
X115165048Y-109966000D01*
X115212667Y-110013619D01*
X115260286Y-110108857D01*
X115307905Y-110299333D01*
X115307905Y-110537429D01*
X115260286Y-110727905D01*
X115212667Y-110823143D01*
X115165048Y-110870762D01*
X115069810Y-110918381D01*
X114974571Y-110918381D01*
X114879333Y-110870762D01*
X114831714Y-110823143D01*
X114784095Y-110727905D01*
X114736476Y-110537429D01*
X114736476Y-110299333D01*
X114784095Y-110108857D01*
X114831714Y-110013619D01*
X114879333Y-109966000D01*
X114974571Y-109918381D01*
M02*
