G04 #@! TF.FileFunction,Copper,L1,Top,Signal*
%FSLAX46Y46*%
G04 Gerber Fmt 4.6, Leading zero omitted, Abs format (unit mm)*
G04 Created by KiCad (PCBNEW 4.0.5) date 06/16/17 00:38:59*
%MOMM*%
%LPD*%
G01*
G04 APERTURE LIST*
%ADD10C,0.100000*%
%ADD11C,1.520000*%
%ADD12R,1.520000X1.520000*%
%ADD13R,1.600000X1.600000*%
%ADD14C,1.600000*%
%ADD15R,1.980000X3.960000*%
%ADD16O,1.980000X3.960000*%
%ADD17R,3.960000X1.980000*%
%ADD18O,3.960000X1.980000*%
%ADD19R,3.200000X3.200000*%
%ADD20O,3.200000X3.200000*%
%ADD21O,1.600000X1.600000*%
%ADD22C,0.250000*%
%ADD23C,0.254000*%
G04 APERTURE END LIST*
D10*
D11*
X111760000Y-105918000D03*
X111760000Y-103378000D03*
D12*
X111760000Y-108458000D03*
D13*
X78058000Y-104648000D03*
D14*
X83058000Y-104648000D03*
D15*
X119888000Y-137922000D03*
D16*
X114888000Y-137922000D03*
D17*
X63500000Y-136064000D03*
D18*
X63500000Y-131064000D03*
D13*
X76708000Y-132842000D03*
D14*
X76708000Y-137842000D03*
D13*
X89742000Y-120396000D03*
D14*
X94742000Y-120396000D03*
D13*
X79248000Y-119126000D03*
D14*
X74248000Y-119126000D03*
D13*
X115142000Y-119888000D03*
D14*
X120142000Y-119888000D03*
D13*
X129794000Y-109902000D03*
D14*
X129794000Y-104902000D03*
D19*
X99568000Y-104648000D03*
D20*
X91948000Y-104648000D03*
D19*
X106426000Y-95250000D03*
D20*
X114046000Y-95250000D03*
D17*
X132842000Y-136398000D03*
D18*
X132842000Y-141398000D03*
D11*
X94996000Y-139954000D03*
X97536000Y-139954000D03*
D12*
X92456000Y-139954000D03*
D11*
X105156000Y-130048000D03*
X107696000Y-130048000D03*
D12*
X102616000Y-130048000D03*
D11*
X124460000Y-91948000D03*
X127000000Y-91948000D03*
D12*
X121920000Y-91948000D03*
D14*
X63500000Y-143002000D03*
D21*
X73660000Y-143002000D03*
D14*
X73660000Y-125222000D03*
D21*
X63500000Y-125222000D03*
D14*
X85598000Y-138684000D03*
D21*
X85598000Y-128524000D03*
D14*
X85598000Y-125984000D03*
D21*
X85598000Y-115824000D03*
D14*
X98806000Y-95250000D03*
D21*
X98806000Y-85090000D03*
D14*
X77724000Y-112268000D03*
D21*
X87884000Y-112268000D03*
D14*
X89916000Y-112268000D03*
D21*
X100076000Y-112268000D03*
D14*
X118618000Y-95250000D03*
D21*
X118618000Y-85090000D03*
D14*
X122936000Y-102616000D03*
D21*
X122936000Y-112776000D03*
D14*
X108966000Y-112776000D03*
D21*
X119126000Y-112776000D03*
D22*
X63500000Y-136064000D02*
X63500000Y-143002000D01*
X78058000Y-104648000D02*
X78058000Y-91942000D01*
X78058000Y-91942000D02*
X80000000Y-90000000D01*
X80000000Y-91000000D02*
X109000000Y-91000000D01*
X109000000Y-90000000D02*
X110000000Y-91000000D01*
X110000000Y-91000000D02*
X110000000Y-98000000D01*
X114000000Y-102000000D02*
X114000000Y-105000000D01*
X110000000Y-98000000D02*
X114000000Y-102000000D01*
X114000000Y-105000000D02*
X113082000Y-105918000D01*
X113082000Y-105918000D02*
X111760000Y-105918000D01*
X78058000Y-104648000D02*
X78058000Y-111934000D01*
X78058000Y-111934000D02*
X77724000Y-112268000D01*
X77724000Y-112268000D02*
X73914000Y-112268000D01*
X73914000Y-112268000D02*
X63500000Y-122682000D01*
X109982000Y-105918000D02*
X107696000Y-108204000D01*
X121666000Y-105918000D02*
X111760000Y-105918000D01*
X111760000Y-105918000D02*
X109982000Y-105918000D01*
X107696000Y-108204000D02*
X107696000Y-130048000D01*
X125650000Y-109902000D02*
X121666000Y-105918000D01*
X129794000Y-109902000D02*
X125650000Y-109902000D01*
X129794000Y-109902000D02*
X129794000Y-130048000D01*
X129794000Y-130048000D02*
X132842000Y-133096000D01*
X119888000Y-137922000D02*
X119888000Y-139192000D01*
X119888000Y-139192000D02*
X118364000Y-140716000D01*
X118364000Y-140716000D02*
X106426000Y-140716000D01*
X106426000Y-140716000D02*
X103759000Y-138049000D01*
X97536000Y-139954000D02*
X101854000Y-139954000D01*
X107696000Y-134112000D02*
X107696000Y-130048000D01*
X101854000Y-139954000D02*
X103759000Y-138049000D01*
X103759000Y-138049000D02*
X107696000Y-134112000D01*
X132842000Y-133096000D02*
X132842000Y-136398000D01*
X63500000Y-122682000D02*
X63500000Y-125222000D01*
X63500000Y-131064000D02*
X63500000Y-125222000D01*
X120142000Y-127508000D02*
X120142000Y-119888000D01*
X114888000Y-132762000D02*
X120142000Y-127508000D01*
X114888000Y-137922000D02*
X114888000Y-132762000D01*
X90170000Y-139954000D02*
X88900000Y-138684000D01*
X92456000Y-139954000D02*
X90170000Y-139954000D01*
X88900000Y-138684000D02*
X85598000Y-138684000D01*
X76708000Y-132842000D02*
X77470000Y-132842000D01*
X77470000Y-132842000D02*
X83312000Y-138684000D01*
X83312000Y-138684000D02*
X85598000Y-138684000D01*
X73660000Y-125222000D02*
X73660000Y-129794000D01*
X73660000Y-129794000D02*
X76708000Y-132842000D01*
X73660000Y-143002000D02*
X73660000Y-140890000D01*
X73660000Y-140890000D02*
X76708000Y-137842000D01*
X89742000Y-120396000D02*
X86868000Y-120396000D01*
X89742000Y-124888000D02*
X89742000Y-120396000D01*
X86868000Y-120396000D02*
X86106000Y-121158000D01*
X86106000Y-121158000D02*
X75184000Y-121158000D01*
X94996000Y-135128000D02*
X88392000Y-128524000D01*
X94996000Y-139954000D02*
X94996000Y-135128000D01*
X85598000Y-125984000D02*
X88646000Y-125984000D01*
X88646000Y-125984000D02*
X89742000Y-124888000D01*
X85598000Y-128524000D02*
X85598000Y-125984000D01*
X88392000Y-128524000D02*
X85598000Y-128524000D01*
X74248000Y-120222000D02*
X74248000Y-119126000D01*
X75184000Y-121158000D02*
X74248000Y-120222000D01*
X89916000Y-112268000D02*
X89916000Y-116332000D01*
X89916000Y-112268000D02*
X87884000Y-112268000D01*
X101092000Y-120396000D02*
X94742000Y-120396000D01*
X93726000Y-118618000D02*
X94742000Y-119634000D01*
X94742000Y-119634000D02*
X94742000Y-120396000D01*
X92202000Y-118618000D02*
X93726000Y-118618000D01*
X89916000Y-116332000D02*
X92202000Y-118618000D01*
X102616000Y-130048000D02*
X102616000Y-121920000D01*
X102616000Y-121920000D02*
X101092000Y-120396000D01*
X86360000Y-101854000D02*
X86360000Y-104140000D01*
X92964000Y-95250000D02*
X86360000Y-101854000D01*
X85852000Y-104648000D02*
X83058000Y-104648000D01*
X86360000Y-104140000D02*
X85852000Y-104648000D01*
X83058000Y-115316000D02*
X83058000Y-104648000D01*
X98806000Y-95250000D02*
X92964000Y-95250000D01*
X80010000Y-119126000D02*
X83312000Y-115824000D01*
X83566000Y-115824000D02*
X83058000Y-115316000D01*
X83312000Y-115824000D02*
X85598000Y-115824000D01*
X85598000Y-115824000D02*
X83566000Y-115824000D01*
X79248000Y-119126000D02*
X80010000Y-119126000D01*
X119126000Y-117856000D02*
X119126000Y-112776000D01*
X119126000Y-112776000D02*
X122936000Y-112776000D01*
X115142000Y-119888000D02*
X117094000Y-119888000D01*
X117094000Y-119888000D02*
X119126000Y-117856000D01*
X98806000Y-85090000D02*
X118618000Y-85090000D01*
X129794000Y-104902000D02*
X129794000Y-89154000D01*
X134874000Y-104902000D02*
X135890000Y-105918000D01*
X135890000Y-105918000D02*
X135890000Y-138350000D01*
X129794000Y-104902000D02*
X134874000Y-104902000D01*
X124460000Y-91948000D02*
X124460000Y-85090000D01*
X125730000Y-85090000D02*
X124460000Y-85090000D01*
X124460000Y-85090000D02*
X118618000Y-85090000D01*
X129794000Y-89154000D02*
X125730000Y-85090000D01*
X135890000Y-138350000D02*
X132842000Y-141398000D01*
X106680000Y-103378000D02*
X105410000Y-104648000D01*
X105410000Y-104648000D02*
X99568000Y-104648000D01*
X100076000Y-107950000D02*
X100076000Y-112268000D01*
X99568000Y-104648000D02*
X99568000Y-107442000D01*
X99568000Y-107442000D02*
X100076000Y-107950000D01*
X111760000Y-103378000D02*
X106680000Y-103378000D01*
X105156000Y-117348000D02*
X100076000Y-112268000D01*
X105156000Y-130048000D02*
X105156000Y-117348000D01*
X95250000Y-99060000D02*
X102616000Y-99060000D01*
X102616000Y-99060000D02*
X106426000Y-95250000D01*
X91948000Y-102362000D02*
X95250000Y-99060000D01*
X91948000Y-104648000D02*
X91948000Y-102362000D01*
X121920000Y-91948000D02*
X121920000Y-94488000D01*
X121920000Y-94488000D02*
X121158000Y-95250000D01*
X121158000Y-95250000D02*
X118618000Y-95250000D01*
X118618000Y-95250000D02*
X114046000Y-95250000D01*
X122936000Y-102616000D02*
X122936000Y-96774000D01*
X122936000Y-96774000D02*
X123698000Y-96012000D01*
X126238000Y-96012000D02*
X127000000Y-95250000D01*
X123698000Y-96012000D02*
X126238000Y-96012000D01*
X127000000Y-95250000D02*
X127000000Y-91948000D01*
X109982000Y-108458000D02*
X108966000Y-109474000D01*
X111760000Y-108458000D02*
X109982000Y-108458000D01*
X108966000Y-109474000D02*
X108966000Y-112776000D01*
D23*
G36*
X139875000Y-145873000D02*
X57127000Y-145873000D01*
X57127000Y-135074000D01*
X60872560Y-135074000D01*
X60872560Y-137054000D01*
X60916838Y-137289317D01*
X61055910Y-137505441D01*
X61268110Y-137650431D01*
X61520000Y-137701440D01*
X62740000Y-137701440D01*
X62740000Y-141763354D01*
X62688200Y-141784757D01*
X62284176Y-142188077D01*
X62065250Y-142715309D01*
X62064752Y-143286187D01*
X62282757Y-143813800D01*
X62686077Y-144217824D01*
X63213309Y-144436750D01*
X63784187Y-144437248D01*
X64311800Y-144219243D01*
X64715824Y-143815923D01*
X64934750Y-143288691D01*
X64935000Y-143002000D01*
X72196887Y-143002000D01*
X72306120Y-143551151D01*
X72617189Y-144016698D01*
X73082736Y-144327767D01*
X73631887Y-144437000D01*
X73688113Y-144437000D01*
X74237264Y-144327767D01*
X74702811Y-144016698D01*
X75013880Y-143551151D01*
X75123113Y-143002000D01*
X75013880Y-142452849D01*
X74702811Y-141987302D01*
X74420000Y-141798333D01*
X74420000Y-141204802D01*
X76369546Y-139255256D01*
X76421309Y-139276750D01*
X76992187Y-139277248D01*
X77519800Y-139059243D01*
X77923824Y-138655923D01*
X78142750Y-138128691D01*
X78143248Y-137557813D01*
X77925243Y-137030200D01*
X77521923Y-136626176D01*
X76994691Y-136407250D01*
X76423813Y-136406752D01*
X75896200Y-136624757D01*
X75492176Y-137028077D01*
X75273250Y-137555309D01*
X75272752Y-138126187D01*
X75295049Y-138180149D01*
X73122599Y-140352599D01*
X72957852Y-140599161D01*
X72900000Y-140890000D01*
X72900000Y-141798333D01*
X72617189Y-141987302D01*
X72306120Y-142452849D01*
X72196887Y-143002000D01*
X64935000Y-143002000D01*
X64935248Y-142717813D01*
X64717243Y-142190200D01*
X64313923Y-141786176D01*
X64260000Y-141763785D01*
X64260000Y-137701440D01*
X65480000Y-137701440D01*
X65715317Y-137657162D01*
X65931441Y-137518090D01*
X66076431Y-137305890D01*
X66127440Y-137054000D01*
X66127440Y-135074000D01*
X66083162Y-134838683D01*
X65944090Y-134622559D01*
X65731890Y-134477569D01*
X65480000Y-134426560D01*
X61520000Y-134426560D01*
X61284683Y-134470838D01*
X61068559Y-134609910D01*
X60923569Y-134822110D01*
X60872560Y-135074000D01*
X57127000Y-135074000D01*
X57127000Y-131442865D01*
X60929782Y-131442865D01*
X60960095Y-131568528D01*
X61271149Y-132123246D01*
X61770807Y-132516703D01*
X62383000Y-132689000D01*
X63373000Y-132689000D01*
X63373000Y-131191000D01*
X63627000Y-131191000D01*
X63627000Y-132689000D01*
X64617000Y-132689000D01*
X65229193Y-132516703D01*
X65728851Y-132123246D01*
X66039905Y-131568528D01*
X66070218Y-131442865D01*
X65950740Y-131191000D01*
X63627000Y-131191000D01*
X63373000Y-131191000D01*
X61049260Y-131191000D01*
X60929782Y-131442865D01*
X57127000Y-131442865D01*
X57127000Y-130685135D01*
X60929782Y-130685135D01*
X61049260Y-130937000D01*
X63373000Y-130937000D01*
X63373000Y-129439000D01*
X63627000Y-129439000D01*
X63627000Y-130937000D01*
X65950740Y-130937000D01*
X66070218Y-130685135D01*
X66039905Y-130559472D01*
X65728851Y-130004754D01*
X65229193Y-129611297D01*
X64617000Y-129439000D01*
X63627000Y-129439000D01*
X63373000Y-129439000D01*
X62383000Y-129439000D01*
X61770807Y-129611297D01*
X61271149Y-130004754D01*
X60960095Y-130559472D01*
X60929782Y-130685135D01*
X57127000Y-130685135D01*
X57127000Y-125571039D01*
X62108096Y-125571039D01*
X62268959Y-125959423D01*
X62644866Y-126374389D01*
X63150959Y-126613914D01*
X63373000Y-126492629D01*
X63373000Y-125349000D01*
X63627000Y-125349000D01*
X63627000Y-126492629D01*
X63849041Y-126613914D01*
X64355134Y-126374389D01*
X64731041Y-125959423D01*
X64891904Y-125571039D01*
X64856275Y-125506187D01*
X72224752Y-125506187D01*
X72442757Y-126033800D01*
X72846077Y-126437824D01*
X72900000Y-126460215D01*
X72900000Y-129794000D01*
X72957852Y-130084839D01*
X73122599Y-130331401D01*
X75260560Y-132469362D01*
X75260560Y-133642000D01*
X75304838Y-133877317D01*
X75443910Y-134093441D01*
X75656110Y-134238431D01*
X75908000Y-134289440D01*
X77508000Y-134289440D01*
X77743317Y-134245162D01*
X77776809Y-134223611D01*
X82774599Y-139221401D01*
X83021161Y-139386148D01*
X83312000Y-139444000D01*
X84359354Y-139444000D01*
X84380757Y-139495800D01*
X84784077Y-139899824D01*
X85311309Y-140118750D01*
X85882187Y-140119248D01*
X86409800Y-139901243D01*
X86813824Y-139497923D01*
X86836215Y-139444000D01*
X88585198Y-139444000D01*
X89632599Y-140491401D01*
X89879160Y-140656148D01*
X90170000Y-140714000D01*
X91048560Y-140714000D01*
X91092838Y-140949317D01*
X91231910Y-141165441D01*
X91444110Y-141310431D01*
X91696000Y-141361440D01*
X93216000Y-141361440D01*
X93451317Y-141317162D01*
X93667441Y-141178090D01*
X93812431Y-140965890D01*
X93849969Y-140780520D01*
X94204764Y-141135934D01*
X94717300Y-141348758D01*
X95272265Y-141349242D01*
X95785172Y-141137313D01*
X95990078Y-140932764D01*
X96736841Y-140932764D01*
X96806059Y-141174742D01*
X97328780Y-141361155D01*
X97883049Y-141333341D01*
X98265941Y-141174742D01*
X98335159Y-140932764D01*
X97536000Y-140133605D01*
X96736841Y-140932764D01*
X95990078Y-140932764D01*
X96177934Y-140745236D01*
X96259391Y-140549066D01*
X96315258Y-140683941D01*
X96557236Y-140753159D01*
X97356395Y-139954000D01*
X97715605Y-139954000D01*
X98514764Y-140753159D01*
X98756742Y-140683941D01*
X98943155Y-140161220D01*
X98915341Y-139606951D01*
X98756742Y-139224059D01*
X98514764Y-139154841D01*
X97715605Y-139954000D01*
X97356395Y-139954000D01*
X96557236Y-139154841D01*
X96315258Y-139224059D01*
X96263618Y-139368862D01*
X96179313Y-139164828D01*
X95990052Y-138975236D01*
X96736841Y-138975236D01*
X97536000Y-139774395D01*
X98335159Y-138975236D01*
X98265941Y-138733258D01*
X97743220Y-138546845D01*
X97188951Y-138574659D01*
X96806059Y-138733258D01*
X96736841Y-138975236D01*
X95990052Y-138975236D01*
X95787236Y-138772066D01*
X95756000Y-138759096D01*
X95756000Y-136880769D01*
X113263000Y-136880769D01*
X113263000Y-138963231D01*
X113386696Y-139585092D01*
X113738951Y-140112280D01*
X114266139Y-140464535D01*
X114888000Y-140588231D01*
X115509861Y-140464535D01*
X116037049Y-140112280D01*
X116389304Y-139585092D01*
X116513000Y-138963231D01*
X116513000Y-138207750D01*
X118263000Y-138207750D01*
X118263000Y-140028310D01*
X118359673Y-140261699D01*
X118538302Y-140440327D01*
X118771691Y-140537000D01*
X119602250Y-140537000D01*
X119761000Y-140378250D01*
X119761000Y-138049000D01*
X120015000Y-138049000D01*
X120015000Y-140378250D01*
X120173750Y-140537000D01*
X121004309Y-140537000D01*
X121237698Y-140440327D01*
X121416327Y-140261699D01*
X121513000Y-140028310D01*
X121513000Y-138207750D01*
X121354250Y-138049000D01*
X120015000Y-138049000D01*
X119761000Y-138049000D01*
X118421750Y-138049000D01*
X118263000Y-138207750D01*
X116513000Y-138207750D01*
X116513000Y-136880769D01*
X116389304Y-136258908D01*
X116093156Y-135815690D01*
X118263000Y-135815690D01*
X118263000Y-137636250D01*
X118421750Y-137795000D01*
X119761000Y-137795000D01*
X119761000Y-135465750D01*
X120015000Y-135465750D01*
X120015000Y-137795000D01*
X121354250Y-137795000D01*
X121513000Y-137636250D01*
X121513000Y-136683750D01*
X130227000Y-136683750D01*
X130227000Y-137514309D01*
X130323673Y-137747698D01*
X130502301Y-137926327D01*
X130735690Y-138023000D01*
X132556250Y-138023000D01*
X132715000Y-137864250D01*
X132715000Y-136525000D01*
X130385750Y-136525000D01*
X130227000Y-136683750D01*
X121513000Y-136683750D01*
X121513000Y-135815690D01*
X121416327Y-135582301D01*
X121237698Y-135403673D01*
X121004309Y-135307000D01*
X120173750Y-135307000D01*
X120015000Y-135465750D01*
X119761000Y-135465750D01*
X119602250Y-135307000D01*
X118771691Y-135307000D01*
X118538302Y-135403673D01*
X118359673Y-135582301D01*
X118263000Y-135815690D01*
X116093156Y-135815690D01*
X116037049Y-135731720D01*
X115648000Y-135471766D01*
X115648000Y-135281691D01*
X130227000Y-135281691D01*
X130227000Y-136112250D01*
X130385750Y-136271000D01*
X132715000Y-136271000D01*
X132715000Y-134931750D01*
X132556250Y-134773000D01*
X130735690Y-134773000D01*
X130502301Y-134869673D01*
X130323673Y-135048302D01*
X130227000Y-135281691D01*
X115648000Y-135281691D01*
X115648000Y-133076802D01*
X120679401Y-128045401D01*
X120844148Y-127798839D01*
X120902000Y-127508000D01*
X120902000Y-121126646D01*
X120953800Y-121105243D01*
X121357824Y-120701923D01*
X121576750Y-120174691D01*
X121577248Y-119603813D01*
X121359243Y-119076200D01*
X120955923Y-118672176D01*
X120428691Y-118453250D01*
X119857813Y-118452752D01*
X119425367Y-118631435D01*
X119663401Y-118393401D01*
X119828148Y-118146839D01*
X119886000Y-117856000D01*
X119886000Y-113979667D01*
X120168811Y-113790698D01*
X120338995Y-113536000D01*
X121732333Y-113536000D01*
X121921302Y-113818811D01*
X122386849Y-114129880D01*
X122936000Y-114239113D01*
X123485151Y-114129880D01*
X123950698Y-113818811D01*
X124261767Y-113353264D01*
X124371000Y-112804113D01*
X124371000Y-112747887D01*
X124261767Y-112198736D01*
X123950698Y-111733189D01*
X123485151Y-111422120D01*
X122936000Y-111312887D01*
X122386849Y-111422120D01*
X121921302Y-111733189D01*
X121732333Y-112016000D01*
X120338995Y-112016000D01*
X120168811Y-111761302D01*
X119703264Y-111450233D01*
X119154113Y-111341000D01*
X119097887Y-111341000D01*
X118548736Y-111450233D01*
X118083189Y-111761302D01*
X117772120Y-112226849D01*
X117662887Y-112776000D01*
X117772120Y-113325151D01*
X118083189Y-113790698D01*
X118366000Y-113979667D01*
X118366000Y-117541198D01*
X116779198Y-119128000D01*
X116589440Y-119128000D01*
X116589440Y-119088000D01*
X116545162Y-118852683D01*
X116406090Y-118636559D01*
X116193890Y-118491569D01*
X115942000Y-118440560D01*
X114342000Y-118440560D01*
X114106683Y-118484838D01*
X113890559Y-118623910D01*
X113745569Y-118836110D01*
X113694560Y-119088000D01*
X113694560Y-120688000D01*
X113738838Y-120923317D01*
X113877910Y-121139441D01*
X114090110Y-121284431D01*
X114342000Y-121335440D01*
X115942000Y-121335440D01*
X116177317Y-121291162D01*
X116393441Y-121152090D01*
X116538431Y-120939890D01*
X116589440Y-120688000D01*
X116589440Y-120648000D01*
X117094000Y-120648000D01*
X117384839Y-120590148D01*
X117631401Y-120425401D01*
X118886021Y-119170781D01*
X118707250Y-119601309D01*
X118706752Y-120172187D01*
X118924757Y-120699800D01*
X119328077Y-121103824D01*
X119382000Y-121126215D01*
X119382000Y-127193198D01*
X114350599Y-132224599D01*
X114185852Y-132471161D01*
X114128000Y-132762000D01*
X114128000Y-135471766D01*
X113738951Y-135731720D01*
X113386696Y-136258908D01*
X113263000Y-136880769D01*
X95756000Y-136880769D01*
X95756000Y-135128000D01*
X95698148Y-134837161D01*
X95698148Y-134837160D01*
X95533401Y-134590599D01*
X88929401Y-127986599D01*
X88682839Y-127821852D01*
X88392000Y-127764000D01*
X86801667Y-127764000D01*
X86612698Y-127481189D01*
X86358000Y-127311005D01*
X86358000Y-127222646D01*
X86409800Y-127201243D01*
X86813824Y-126797923D01*
X86836215Y-126744000D01*
X88646000Y-126744000D01*
X88936839Y-126686148D01*
X89183401Y-126521401D01*
X90279401Y-125425401D01*
X90444148Y-125178839D01*
X90502000Y-124888000D01*
X90502000Y-121843440D01*
X90542000Y-121843440D01*
X90777317Y-121799162D01*
X90993441Y-121660090D01*
X91138431Y-121447890D01*
X91189440Y-121196000D01*
X91189440Y-119596000D01*
X91145162Y-119360683D01*
X91006090Y-119144559D01*
X90793890Y-118999569D01*
X90542000Y-118948560D01*
X88942000Y-118948560D01*
X88706683Y-118992838D01*
X88490559Y-119131910D01*
X88345569Y-119344110D01*
X88294560Y-119596000D01*
X88294560Y-119636000D01*
X86868000Y-119636000D01*
X86577161Y-119693852D01*
X86330599Y-119858599D01*
X85791198Y-120398000D01*
X80487149Y-120398000D01*
X80499441Y-120390090D01*
X80644431Y-120177890D01*
X80695440Y-119926000D01*
X80695440Y-119515362D01*
X83626802Y-116584000D01*
X84394333Y-116584000D01*
X84583302Y-116866811D01*
X85048849Y-117177880D01*
X85598000Y-117287113D01*
X86147151Y-117177880D01*
X86612698Y-116866811D01*
X86923767Y-116401264D01*
X87033000Y-115852113D01*
X87033000Y-115795887D01*
X86923767Y-115246736D01*
X86612698Y-114781189D01*
X86147151Y-114470120D01*
X85598000Y-114360887D01*
X85048849Y-114470120D01*
X84583302Y-114781189D01*
X84394333Y-115064000D01*
X83880802Y-115064000D01*
X83818000Y-115001198D01*
X83818000Y-112268000D01*
X86420887Y-112268000D01*
X86530120Y-112817151D01*
X86841189Y-113282698D01*
X87306736Y-113593767D01*
X87855887Y-113703000D01*
X87912113Y-113703000D01*
X88461264Y-113593767D01*
X88911508Y-113292923D01*
X89102077Y-113483824D01*
X89156000Y-113506215D01*
X89156000Y-116332000D01*
X89213852Y-116622839D01*
X89378599Y-116869401D01*
X91664599Y-119155401D01*
X91911160Y-119320148D01*
X92202000Y-119378000D01*
X93411198Y-119378000D01*
X93570764Y-119537566D01*
X93526176Y-119582077D01*
X93307250Y-120109309D01*
X93306752Y-120680187D01*
X93524757Y-121207800D01*
X93928077Y-121611824D01*
X94455309Y-121830750D01*
X95026187Y-121831248D01*
X95553800Y-121613243D01*
X95957824Y-121209923D01*
X95980215Y-121156000D01*
X100777198Y-121156000D01*
X101856000Y-122234802D01*
X101856000Y-128640560D01*
X101620683Y-128684838D01*
X101404559Y-128823910D01*
X101259569Y-129036110D01*
X101208560Y-129288000D01*
X101208560Y-130808000D01*
X101252838Y-131043317D01*
X101391910Y-131259441D01*
X101604110Y-131404431D01*
X101856000Y-131455440D01*
X103376000Y-131455440D01*
X103611317Y-131411162D01*
X103827441Y-131272090D01*
X103972431Y-131059890D01*
X104009969Y-130874520D01*
X104364764Y-131229934D01*
X104877300Y-131442758D01*
X105432265Y-131443242D01*
X105945172Y-131231313D01*
X106150078Y-131026764D01*
X106896841Y-131026764D01*
X106966059Y-131268742D01*
X107488780Y-131455155D01*
X108043049Y-131427341D01*
X108425941Y-131268742D01*
X108495159Y-131026764D01*
X107696000Y-130227605D01*
X106896841Y-131026764D01*
X106150078Y-131026764D01*
X106337934Y-130839236D01*
X106419391Y-130643066D01*
X106475258Y-130777941D01*
X106717236Y-130847159D01*
X107516395Y-130048000D01*
X107875605Y-130048000D01*
X108674764Y-130847159D01*
X108916742Y-130777941D01*
X109103155Y-130255220D01*
X109075341Y-129700951D01*
X108916742Y-129318059D01*
X108674764Y-129248841D01*
X107875605Y-130048000D01*
X107516395Y-130048000D01*
X106717236Y-129248841D01*
X106475258Y-129318059D01*
X106423618Y-129462862D01*
X106339313Y-129258828D01*
X106150052Y-129069236D01*
X106896841Y-129069236D01*
X107696000Y-129868395D01*
X108495159Y-129069236D01*
X108425941Y-128827258D01*
X107903220Y-128640845D01*
X107348951Y-128668659D01*
X106966059Y-128827258D01*
X106896841Y-129069236D01*
X106150052Y-129069236D01*
X105947236Y-128866066D01*
X105916000Y-128853096D01*
X105916000Y-117348000D01*
X105858148Y-117057161D01*
X105693401Y-116810599D01*
X101942989Y-113060187D01*
X107530752Y-113060187D01*
X107748757Y-113587800D01*
X108152077Y-113991824D01*
X108679309Y-114210750D01*
X109250187Y-114211248D01*
X109777800Y-113993243D01*
X110181824Y-113589923D01*
X110400750Y-113062691D01*
X110401248Y-112491813D01*
X110183243Y-111964200D01*
X109779923Y-111560176D01*
X109726000Y-111537785D01*
X109726000Y-110187750D01*
X128359000Y-110187750D01*
X128359000Y-110828309D01*
X128455673Y-111061698D01*
X128634301Y-111240327D01*
X128867690Y-111337000D01*
X129508250Y-111337000D01*
X129667000Y-111178250D01*
X129667000Y-110029000D01*
X129921000Y-110029000D01*
X129921000Y-111178250D01*
X130079750Y-111337000D01*
X130720310Y-111337000D01*
X130953699Y-111240327D01*
X131132327Y-111061698D01*
X131229000Y-110828309D01*
X131229000Y-110187750D01*
X131070250Y-110029000D01*
X129921000Y-110029000D01*
X129667000Y-110029000D01*
X128517750Y-110029000D01*
X128359000Y-110187750D01*
X109726000Y-110187750D01*
X109726000Y-109788802D01*
X110296802Y-109218000D01*
X110352560Y-109218000D01*
X110396838Y-109453317D01*
X110535910Y-109669441D01*
X110748110Y-109814431D01*
X111000000Y-109865440D01*
X112520000Y-109865440D01*
X112755317Y-109821162D01*
X112971441Y-109682090D01*
X113116431Y-109469890D01*
X113167440Y-109218000D01*
X113167440Y-108975691D01*
X128359000Y-108975691D01*
X128359000Y-109616250D01*
X128517750Y-109775000D01*
X129667000Y-109775000D01*
X129667000Y-108625750D01*
X129921000Y-108625750D01*
X129921000Y-109775000D01*
X131070250Y-109775000D01*
X131229000Y-109616250D01*
X131229000Y-108975691D01*
X131132327Y-108742302D01*
X130953699Y-108563673D01*
X130720310Y-108467000D01*
X130079750Y-108467000D01*
X129921000Y-108625750D01*
X129667000Y-108625750D01*
X129508250Y-108467000D01*
X128867690Y-108467000D01*
X128634301Y-108563673D01*
X128455673Y-108742302D01*
X128359000Y-108975691D01*
X113167440Y-108975691D01*
X113167440Y-107698000D01*
X113123162Y-107462683D01*
X112984090Y-107246559D01*
X112771890Y-107101569D01*
X112520000Y-107050560D01*
X112515166Y-107050560D01*
X112559159Y-106896764D01*
X111760000Y-106097605D01*
X110960841Y-106896764D01*
X111004834Y-107050560D01*
X111000000Y-107050560D01*
X110764683Y-107094838D01*
X110548559Y-107233910D01*
X110403569Y-107446110D01*
X110352560Y-107698000D01*
X109982000Y-107698000D01*
X109691161Y-107755852D01*
X109444599Y-107920599D01*
X108428599Y-108936599D01*
X108263852Y-109183161D01*
X108206000Y-109474000D01*
X108206000Y-111537354D01*
X108154200Y-111558757D01*
X107750176Y-111962077D01*
X107531250Y-112489309D01*
X107530752Y-113060187D01*
X101942989Y-113060187D01*
X101474688Y-112591886D01*
X101539113Y-112268000D01*
X101429880Y-111718849D01*
X101118811Y-111253302D01*
X100836000Y-111064333D01*
X100836000Y-107950000D01*
X100778148Y-107659161D01*
X100613401Y-107412599D01*
X100328000Y-107127198D01*
X100328000Y-106895440D01*
X101168000Y-106895440D01*
X101403317Y-106851162D01*
X101619441Y-106712090D01*
X101764431Y-106499890D01*
X101815440Y-106248000D01*
X101815440Y-105710780D01*
X110352845Y-105710780D01*
X110380659Y-106265049D01*
X110539258Y-106647941D01*
X110781236Y-106717159D01*
X111580395Y-105918000D01*
X111939605Y-105918000D01*
X112738764Y-106717159D01*
X112980742Y-106647941D01*
X113167155Y-106125220D01*
X113139341Y-105570951D01*
X112980742Y-105188059D01*
X112738764Y-105118841D01*
X111939605Y-105918000D01*
X111580395Y-105918000D01*
X110781236Y-105118841D01*
X110539258Y-105188059D01*
X110352845Y-105710780D01*
X101815440Y-105710780D01*
X101815440Y-105408000D01*
X105410000Y-105408000D01*
X105700839Y-105350148D01*
X105947401Y-105185401D01*
X106994802Y-104138000D01*
X110564633Y-104138000D01*
X110576687Y-104167172D01*
X110968764Y-104559934D01*
X111164934Y-104641391D01*
X111030059Y-104697258D01*
X110960841Y-104939236D01*
X111760000Y-105738395D01*
X112559159Y-104939236D01*
X112489941Y-104697258D01*
X112345138Y-104645618D01*
X112549172Y-104561313D01*
X112941934Y-104169236D01*
X113154758Y-103656700D01*
X113155242Y-103101735D01*
X112943313Y-102588828D01*
X112551236Y-102196066D01*
X112038700Y-101983242D01*
X111483735Y-101982758D01*
X110970828Y-102194687D01*
X110578066Y-102586764D01*
X110565096Y-102618000D01*
X106680000Y-102618000D01*
X106389160Y-102675852D01*
X106142599Y-102840599D01*
X105095198Y-103888000D01*
X101815440Y-103888000D01*
X101815440Y-103048000D01*
X101771162Y-102812683D01*
X101632090Y-102596559D01*
X101419890Y-102451569D01*
X101168000Y-102400560D01*
X97968000Y-102400560D01*
X97732683Y-102444838D01*
X97516559Y-102583910D01*
X97371569Y-102796110D01*
X97320560Y-103048000D01*
X97320560Y-106248000D01*
X97364838Y-106483317D01*
X97503910Y-106699441D01*
X97716110Y-106844431D01*
X97968000Y-106895440D01*
X98808000Y-106895440D01*
X98808000Y-107442000D01*
X98865852Y-107732839D01*
X99030599Y-107979401D01*
X99316000Y-108264802D01*
X99316000Y-111064333D01*
X99033189Y-111253302D01*
X98722120Y-111718849D01*
X98612887Y-112268000D01*
X98722120Y-112817151D01*
X99033189Y-113282698D01*
X99498736Y-113593767D01*
X100047887Y-113703000D01*
X100104113Y-113703000D01*
X100381102Y-113647904D01*
X104396000Y-117662802D01*
X104396000Y-128852633D01*
X104366828Y-128864687D01*
X104010684Y-129220210D01*
X103979162Y-129052683D01*
X103840090Y-128836559D01*
X103627890Y-128691569D01*
X103376000Y-128640560D01*
X103376000Y-121920000D01*
X103318148Y-121629161D01*
X103318148Y-121629160D01*
X103153401Y-121382599D01*
X101629401Y-119858599D01*
X101382839Y-119693852D01*
X101092000Y-119636000D01*
X95980646Y-119636000D01*
X95959243Y-119584200D01*
X95555923Y-119180176D01*
X95225969Y-119043167D01*
X94263401Y-118080599D01*
X94016839Y-117915852D01*
X93726000Y-117858000D01*
X92516802Y-117858000D01*
X90676000Y-116017198D01*
X90676000Y-113506646D01*
X90727800Y-113485243D01*
X91131824Y-113081923D01*
X91350750Y-112554691D01*
X91351248Y-111983813D01*
X91133243Y-111456200D01*
X90729923Y-111052176D01*
X90202691Y-110833250D01*
X89631813Y-110832752D01*
X89104200Y-111050757D01*
X88911530Y-111243091D01*
X88461264Y-110942233D01*
X87912113Y-110833000D01*
X87855887Y-110833000D01*
X87306736Y-110942233D01*
X86841189Y-111253302D01*
X86530120Y-111718849D01*
X86420887Y-112268000D01*
X83818000Y-112268000D01*
X83818000Y-105886646D01*
X83869800Y-105865243D01*
X84273824Y-105461923D01*
X84296215Y-105408000D01*
X85852000Y-105408000D01*
X86142839Y-105350148D01*
X86389401Y-105185401D01*
X86897401Y-104677401D01*
X86917046Y-104648000D01*
X89669214Y-104648000D01*
X89839343Y-105503297D01*
X90323830Y-106228384D01*
X91048917Y-106712871D01*
X91904214Y-106883000D01*
X91991786Y-106883000D01*
X92847083Y-106712871D01*
X93572170Y-106228384D01*
X94056657Y-105503297D01*
X94226786Y-104648000D01*
X94056657Y-103792703D01*
X93572170Y-103067616D01*
X92847083Y-102583129D01*
X92809207Y-102575595D01*
X95564802Y-99820000D01*
X102616000Y-99820000D01*
X102906839Y-99762148D01*
X103153401Y-99597401D01*
X105253362Y-97497440D01*
X108026000Y-97497440D01*
X108261317Y-97453162D01*
X108477441Y-97314090D01*
X108622431Y-97101890D01*
X108673440Y-96850000D01*
X108673440Y-93650000D01*
X108629162Y-93414683D01*
X108490090Y-93198559D01*
X108277890Y-93053569D01*
X108026000Y-93002560D01*
X104826000Y-93002560D01*
X104590683Y-93046838D01*
X104374559Y-93185910D01*
X104229569Y-93398110D01*
X104178560Y-93650000D01*
X104178560Y-96422638D01*
X102301198Y-98300000D01*
X95250000Y-98300000D01*
X94959160Y-98357852D01*
X94712599Y-98522599D01*
X91410599Y-101824599D01*
X91245852Y-102071161D01*
X91188000Y-102362000D01*
X91188000Y-102555464D01*
X91048917Y-102583129D01*
X90323830Y-103067616D01*
X89839343Y-103792703D01*
X89669214Y-104648000D01*
X86917046Y-104648000D01*
X86990105Y-104538659D01*
X87062148Y-104430839D01*
X87120000Y-104140000D01*
X87120000Y-102168802D01*
X93278802Y-96010000D01*
X97567354Y-96010000D01*
X97588757Y-96061800D01*
X97992077Y-96465824D01*
X98519309Y-96684750D01*
X99090187Y-96685248D01*
X99617800Y-96467243D01*
X100021824Y-96063923D01*
X100240750Y-95536691D01*
X100241248Y-94965813D01*
X100023243Y-94438200D01*
X99619923Y-94034176D01*
X99092691Y-93815250D01*
X98521813Y-93814752D01*
X97994200Y-94032757D01*
X97590176Y-94436077D01*
X97567785Y-94490000D01*
X92964000Y-94490000D01*
X92673160Y-94547852D01*
X92426599Y-94712599D01*
X85822599Y-101316599D01*
X85657852Y-101563161D01*
X85600000Y-101854000D01*
X85600000Y-103825198D01*
X85537198Y-103888000D01*
X84296646Y-103888000D01*
X84275243Y-103836200D01*
X83871923Y-103432176D01*
X83344691Y-103213250D01*
X82773813Y-103212752D01*
X82246200Y-103430757D01*
X81842176Y-103834077D01*
X81623250Y-104361309D01*
X81622752Y-104932187D01*
X81840757Y-105459800D01*
X82244077Y-105863824D01*
X82298000Y-105886215D01*
X82298000Y-115316000D01*
X82355852Y-115606839D01*
X82395308Y-115665890D01*
X80318746Y-117742452D01*
X80299890Y-117729569D01*
X80048000Y-117678560D01*
X78448000Y-117678560D01*
X78212683Y-117722838D01*
X77996559Y-117861910D01*
X77851569Y-118074110D01*
X77800560Y-118326000D01*
X77800560Y-119926000D01*
X77844838Y-120161317D01*
X77983910Y-120377441D01*
X78013999Y-120398000D01*
X75498802Y-120398000D01*
X75252090Y-120151288D01*
X75463824Y-119939923D01*
X75682750Y-119412691D01*
X75683248Y-118841813D01*
X75465243Y-118314200D01*
X75061923Y-117910176D01*
X74534691Y-117691250D01*
X73963813Y-117690752D01*
X73436200Y-117908757D01*
X73032176Y-118312077D01*
X72813250Y-118839309D01*
X72812752Y-119410187D01*
X73030757Y-119937800D01*
X73434077Y-120341824D01*
X73518835Y-120377019D01*
X73545852Y-120512839D01*
X73710599Y-120759401D01*
X74646599Y-121695401D01*
X74893161Y-121860148D01*
X75184000Y-121918000D01*
X86106000Y-121918000D01*
X86396839Y-121860148D01*
X86643401Y-121695401D01*
X87182802Y-121156000D01*
X88294560Y-121156000D01*
X88294560Y-121196000D01*
X88338838Y-121431317D01*
X88477910Y-121647441D01*
X88690110Y-121792431D01*
X88942000Y-121843440D01*
X88982000Y-121843440D01*
X88982000Y-124573198D01*
X88331198Y-125224000D01*
X86836646Y-125224000D01*
X86815243Y-125172200D01*
X86411923Y-124768176D01*
X85884691Y-124549250D01*
X85313813Y-124548752D01*
X84786200Y-124766757D01*
X84382176Y-125170077D01*
X84163250Y-125697309D01*
X84162752Y-126268187D01*
X84380757Y-126795800D01*
X84784077Y-127199824D01*
X84838000Y-127222215D01*
X84838000Y-127311005D01*
X84583302Y-127481189D01*
X84272233Y-127946736D01*
X84163000Y-128495887D01*
X84163000Y-128552113D01*
X84272233Y-129101264D01*
X84583302Y-129566811D01*
X85048849Y-129877880D01*
X85598000Y-129987113D01*
X86147151Y-129877880D01*
X86612698Y-129566811D01*
X86801667Y-129284000D01*
X88077198Y-129284000D01*
X94236000Y-135442802D01*
X94236000Y-138758633D01*
X94206828Y-138770687D01*
X93850684Y-139126210D01*
X93819162Y-138958683D01*
X93680090Y-138742559D01*
X93467890Y-138597569D01*
X93216000Y-138546560D01*
X91696000Y-138546560D01*
X91460683Y-138590838D01*
X91244559Y-138729910D01*
X91099569Y-138942110D01*
X91048560Y-139194000D01*
X90484802Y-139194000D01*
X89437401Y-138146599D01*
X89190839Y-137981852D01*
X88900000Y-137924000D01*
X86836646Y-137924000D01*
X86815243Y-137872200D01*
X86411923Y-137468176D01*
X85884691Y-137249250D01*
X85313813Y-137248752D01*
X84786200Y-137466757D01*
X84382176Y-137870077D01*
X84359785Y-137924000D01*
X83626802Y-137924000D01*
X78155440Y-132452638D01*
X78155440Y-132042000D01*
X78111162Y-131806683D01*
X77972090Y-131590559D01*
X77759890Y-131445569D01*
X77508000Y-131394560D01*
X76335362Y-131394560D01*
X74420000Y-129479198D01*
X74420000Y-126460646D01*
X74471800Y-126439243D01*
X74875824Y-126035923D01*
X75094750Y-125508691D01*
X75095248Y-124937813D01*
X74877243Y-124410200D01*
X74473923Y-124006176D01*
X73946691Y-123787250D01*
X73375813Y-123786752D01*
X72848200Y-124004757D01*
X72444176Y-124408077D01*
X72225250Y-124935309D01*
X72224752Y-125506187D01*
X64856275Y-125506187D01*
X64769915Y-125349000D01*
X63627000Y-125349000D01*
X63373000Y-125349000D01*
X62230085Y-125349000D01*
X62108096Y-125571039D01*
X57127000Y-125571039D01*
X57127000Y-124872961D01*
X62108096Y-124872961D01*
X62230085Y-125095000D01*
X63373000Y-125095000D01*
X63373000Y-123951371D01*
X63627000Y-123951371D01*
X63627000Y-125095000D01*
X64769915Y-125095000D01*
X64891904Y-124872961D01*
X64731041Y-124484577D01*
X64355134Y-124069611D01*
X63849041Y-123830086D01*
X63627000Y-123951371D01*
X63373000Y-123951371D01*
X63150959Y-123830086D01*
X62644866Y-124069611D01*
X62268959Y-124484577D01*
X62108096Y-124872961D01*
X57127000Y-124872961D01*
X57127000Y-113275745D01*
X76895861Y-113275745D01*
X76969995Y-113521864D01*
X77507223Y-113714965D01*
X78077454Y-113687778D01*
X78478005Y-113521864D01*
X78552139Y-113275745D01*
X77724000Y-112447605D01*
X76895861Y-113275745D01*
X57127000Y-113275745D01*
X57127000Y-112051223D01*
X76277035Y-112051223D01*
X76304222Y-112621454D01*
X76470136Y-113022005D01*
X76716255Y-113096139D01*
X77544395Y-112268000D01*
X77903605Y-112268000D01*
X78731745Y-113096139D01*
X78977864Y-113022005D01*
X79170965Y-112484777D01*
X79143778Y-111914546D01*
X78977864Y-111513995D01*
X78731745Y-111439861D01*
X77903605Y-112268000D01*
X77544395Y-112268000D01*
X76716255Y-111439861D01*
X76470136Y-111513995D01*
X76277035Y-112051223D01*
X57127000Y-112051223D01*
X57127000Y-111260255D01*
X76895861Y-111260255D01*
X77724000Y-112088395D01*
X78552139Y-111260255D01*
X78478005Y-111014136D01*
X77940777Y-110821035D01*
X77370546Y-110848222D01*
X76969995Y-111014136D01*
X76895861Y-111260255D01*
X57127000Y-111260255D01*
X57127000Y-104933750D01*
X76623000Y-104933750D01*
X76623000Y-105574310D01*
X76719673Y-105807699D01*
X76898302Y-105986327D01*
X77131691Y-106083000D01*
X77772250Y-106083000D01*
X77931000Y-105924250D01*
X77931000Y-104775000D01*
X78185000Y-104775000D01*
X78185000Y-105924250D01*
X78343750Y-106083000D01*
X78984309Y-106083000D01*
X79217698Y-105986327D01*
X79396327Y-105807699D01*
X79493000Y-105574310D01*
X79493000Y-104933750D01*
X79334250Y-104775000D01*
X78185000Y-104775000D01*
X77931000Y-104775000D01*
X76781750Y-104775000D01*
X76623000Y-104933750D01*
X57127000Y-104933750D01*
X57127000Y-103721690D01*
X76623000Y-103721690D01*
X76623000Y-104362250D01*
X76781750Y-104521000D01*
X77931000Y-104521000D01*
X77931000Y-103371750D01*
X78185000Y-103371750D01*
X78185000Y-104521000D01*
X79334250Y-104521000D01*
X79493000Y-104362250D01*
X79493000Y-103721690D01*
X79396327Y-103488301D01*
X79217698Y-103309673D01*
X78984309Y-103213000D01*
X78343750Y-103213000D01*
X78185000Y-103371750D01*
X77931000Y-103371750D01*
X77772250Y-103213000D01*
X77131691Y-103213000D01*
X76898302Y-103309673D01*
X76719673Y-103488301D01*
X76623000Y-103721690D01*
X57127000Y-103721690D01*
X57127000Y-85061887D01*
X97371000Y-85061887D01*
X97371000Y-85118113D01*
X97480233Y-85667264D01*
X97791302Y-86132811D01*
X98256849Y-86443880D01*
X98806000Y-86553113D01*
X99355151Y-86443880D01*
X99820698Y-86132811D01*
X100009667Y-85850000D01*
X117414333Y-85850000D01*
X117603302Y-86132811D01*
X118068849Y-86443880D01*
X118618000Y-86553113D01*
X119167151Y-86443880D01*
X119632698Y-86132811D01*
X119821667Y-85850000D01*
X123700000Y-85850000D01*
X123700000Y-90752633D01*
X123670828Y-90764687D01*
X123314684Y-91120210D01*
X123283162Y-90952683D01*
X123144090Y-90736559D01*
X122931890Y-90591569D01*
X122680000Y-90540560D01*
X121160000Y-90540560D01*
X120924683Y-90584838D01*
X120708559Y-90723910D01*
X120563569Y-90936110D01*
X120512560Y-91188000D01*
X120512560Y-92708000D01*
X120556838Y-92943317D01*
X120695910Y-93159441D01*
X120908110Y-93304431D01*
X121160000Y-93355440D01*
X121160000Y-94173198D01*
X120843198Y-94490000D01*
X119856646Y-94490000D01*
X119835243Y-94438200D01*
X119431923Y-94034176D01*
X118904691Y-93815250D01*
X118333813Y-93814752D01*
X117806200Y-94032757D01*
X117402176Y-94436077D01*
X117379785Y-94490000D01*
X116173613Y-94490000D01*
X116154657Y-94394703D01*
X115670170Y-93669616D01*
X114945083Y-93185129D01*
X114089786Y-93015000D01*
X114002214Y-93015000D01*
X113146917Y-93185129D01*
X112421830Y-93669616D01*
X111937343Y-94394703D01*
X111767214Y-95250000D01*
X111937343Y-96105297D01*
X112421830Y-96830384D01*
X113146917Y-97314871D01*
X114002214Y-97485000D01*
X114089786Y-97485000D01*
X114945083Y-97314871D01*
X115670170Y-96830384D01*
X116154657Y-96105297D01*
X116173613Y-96010000D01*
X117379354Y-96010000D01*
X117400757Y-96061800D01*
X117804077Y-96465824D01*
X118331309Y-96684750D01*
X118902187Y-96685248D01*
X119429800Y-96467243D01*
X119833824Y-96063923D01*
X119856215Y-96010000D01*
X121158000Y-96010000D01*
X121448839Y-95952148D01*
X121695401Y-95787401D01*
X122457401Y-95025401D01*
X122622148Y-94778839D01*
X122680000Y-94488000D01*
X122680000Y-93355440D01*
X122915317Y-93311162D01*
X123131441Y-93172090D01*
X123276431Y-92959890D01*
X123313969Y-92774520D01*
X123668764Y-93129934D01*
X124181300Y-93342758D01*
X124736265Y-93343242D01*
X125249172Y-93131313D01*
X125641934Y-92739236D01*
X125729954Y-92527262D01*
X125816687Y-92737172D01*
X126208764Y-93129934D01*
X126240000Y-93142904D01*
X126240000Y-94935198D01*
X125923198Y-95252000D01*
X123698000Y-95252000D01*
X123407161Y-95309852D01*
X123160599Y-95474599D01*
X122398599Y-96236599D01*
X122233852Y-96483161D01*
X122176000Y-96774000D01*
X122176000Y-101377354D01*
X122124200Y-101398757D01*
X121720176Y-101802077D01*
X121501250Y-102329309D01*
X121500752Y-102900187D01*
X121718757Y-103427800D01*
X122122077Y-103831824D01*
X122649309Y-104050750D01*
X123220187Y-104051248D01*
X123747800Y-103833243D01*
X124151824Y-103429923D01*
X124370750Y-102902691D01*
X124371248Y-102331813D01*
X124153243Y-101804200D01*
X123749923Y-101400176D01*
X123696000Y-101377785D01*
X123696000Y-97088802D01*
X124012802Y-96772000D01*
X126238000Y-96772000D01*
X126528839Y-96714148D01*
X126775401Y-96549401D01*
X127537401Y-95787401D01*
X127702148Y-95540839D01*
X127760000Y-95250000D01*
X127760000Y-93143367D01*
X127789172Y-93131313D01*
X128181934Y-92739236D01*
X128394758Y-92226700D01*
X128395242Y-91671735D01*
X128183313Y-91158828D01*
X127791236Y-90766066D01*
X127278700Y-90553242D01*
X126723735Y-90552758D01*
X126210828Y-90764687D01*
X125818066Y-91156764D01*
X125730046Y-91368738D01*
X125643313Y-91158828D01*
X125251236Y-90766066D01*
X125220000Y-90753096D01*
X125220000Y-85850000D01*
X125415198Y-85850000D01*
X129034000Y-89468802D01*
X129034000Y-103663354D01*
X128982200Y-103684757D01*
X128578176Y-104088077D01*
X128359250Y-104615309D01*
X128358752Y-105186187D01*
X128576757Y-105713800D01*
X128980077Y-106117824D01*
X129507309Y-106336750D01*
X130078187Y-106337248D01*
X130605800Y-106119243D01*
X131009824Y-105715923D01*
X131032215Y-105662000D01*
X134559198Y-105662000D01*
X135130000Y-106232802D01*
X135130000Y-134848259D01*
X134948310Y-134773000D01*
X133127750Y-134773000D01*
X132969000Y-134931750D01*
X132969000Y-136271000D01*
X132989000Y-136271000D01*
X132989000Y-136525000D01*
X132969000Y-136525000D01*
X132969000Y-137864250D01*
X133127750Y-138023000D01*
X134948310Y-138023000D01*
X135130000Y-137947741D01*
X135130000Y-138035198D01*
X133392198Y-139773000D01*
X131800769Y-139773000D01*
X131178908Y-139896696D01*
X130651720Y-140248951D01*
X130299465Y-140776139D01*
X130175769Y-141398000D01*
X130299465Y-142019861D01*
X130651720Y-142547049D01*
X131178908Y-142899304D01*
X131800769Y-143023000D01*
X133883231Y-143023000D01*
X134505092Y-142899304D01*
X135032280Y-142547049D01*
X135384535Y-142019861D01*
X135508231Y-141398000D01*
X135384535Y-140776139D01*
X135045727Y-140269075D01*
X136427401Y-138887401D01*
X136592148Y-138640839D01*
X136650000Y-138350000D01*
X136650000Y-105918000D01*
X136592148Y-105627161D01*
X136427401Y-105380599D01*
X135411401Y-104364599D01*
X135164839Y-104199852D01*
X134874000Y-104142000D01*
X131032646Y-104142000D01*
X131011243Y-104090200D01*
X130607923Y-103686176D01*
X130554000Y-103663785D01*
X130554000Y-89154000D01*
X130496148Y-88863161D01*
X130331401Y-88616599D01*
X126267401Y-84552599D01*
X126020839Y-84387852D01*
X125730000Y-84330000D01*
X119821667Y-84330000D01*
X119632698Y-84047189D01*
X119167151Y-83736120D01*
X118618000Y-83626887D01*
X118068849Y-83736120D01*
X117603302Y-84047189D01*
X117414333Y-84330000D01*
X100009667Y-84330000D01*
X99820698Y-84047189D01*
X99355151Y-83736120D01*
X98806000Y-83626887D01*
X98256849Y-83736120D01*
X97791302Y-84047189D01*
X97480233Y-84512736D01*
X97371000Y-85061887D01*
X57127000Y-85061887D01*
X57127000Y-83127000D01*
X140870968Y-83127000D01*
X139875000Y-145873000D01*
X139875000Y-145873000D01*
G37*
X139875000Y-145873000D02*
X57127000Y-145873000D01*
X57127000Y-135074000D01*
X60872560Y-135074000D01*
X60872560Y-137054000D01*
X60916838Y-137289317D01*
X61055910Y-137505441D01*
X61268110Y-137650431D01*
X61520000Y-137701440D01*
X62740000Y-137701440D01*
X62740000Y-141763354D01*
X62688200Y-141784757D01*
X62284176Y-142188077D01*
X62065250Y-142715309D01*
X62064752Y-143286187D01*
X62282757Y-143813800D01*
X62686077Y-144217824D01*
X63213309Y-144436750D01*
X63784187Y-144437248D01*
X64311800Y-144219243D01*
X64715824Y-143815923D01*
X64934750Y-143288691D01*
X64935000Y-143002000D01*
X72196887Y-143002000D01*
X72306120Y-143551151D01*
X72617189Y-144016698D01*
X73082736Y-144327767D01*
X73631887Y-144437000D01*
X73688113Y-144437000D01*
X74237264Y-144327767D01*
X74702811Y-144016698D01*
X75013880Y-143551151D01*
X75123113Y-143002000D01*
X75013880Y-142452849D01*
X74702811Y-141987302D01*
X74420000Y-141798333D01*
X74420000Y-141204802D01*
X76369546Y-139255256D01*
X76421309Y-139276750D01*
X76992187Y-139277248D01*
X77519800Y-139059243D01*
X77923824Y-138655923D01*
X78142750Y-138128691D01*
X78143248Y-137557813D01*
X77925243Y-137030200D01*
X77521923Y-136626176D01*
X76994691Y-136407250D01*
X76423813Y-136406752D01*
X75896200Y-136624757D01*
X75492176Y-137028077D01*
X75273250Y-137555309D01*
X75272752Y-138126187D01*
X75295049Y-138180149D01*
X73122599Y-140352599D01*
X72957852Y-140599161D01*
X72900000Y-140890000D01*
X72900000Y-141798333D01*
X72617189Y-141987302D01*
X72306120Y-142452849D01*
X72196887Y-143002000D01*
X64935000Y-143002000D01*
X64935248Y-142717813D01*
X64717243Y-142190200D01*
X64313923Y-141786176D01*
X64260000Y-141763785D01*
X64260000Y-137701440D01*
X65480000Y-137701440D01*
X65715317Y-137657162D01*
X65931441Y-137518090D01*
X66076431Y-137305890D01*
X66127440Y-137054000D01*
X66127440Y-135074000D01*
X66083162Y-134838683D01*
X65944090Y-134622559D01*
X65731890Y-134477569D01*
X65480000Y-134426560D01*
X61520000Y-134426560D01*
X61284683Y-134470838D01*
X61068559Y-134609910D01*
X60923569Y-134822110D01*
X60872560Y-135074000D01*
X57127000Y-135074000D01*
X57127000Y-131442865D01*
X60929782Y-131442865D01*
X60960095Y-131568528D01*
X61271149Y-132123246D01*
X61770807Y-132516703D01*
X62383000Y-132689000D01*
X63373000Y-132689000D01*
X63373000Y-131191000D01*
X63627000Y-131191000D01*
X63627000Y-132689000D01*
X64617000Y-132689000D01*
X65229193Y-132516703D01*
X65728851Y-132123246D01*
X66039905Y-131568528D01*
X66070218Y-131442865D01*
X65950740Y-131191000D01*
X63627000Y-131191000D01*
X63373000Y-131191000D01*
X61049260Y-131191000D01*
X60929782Y-131442865D01*
X57127000Y-131442865D01*
X57127000Y-130685135D01*
X60929782Y-130685135D01*
X61049260Y-130937000D01*
X63373000Y-130937000D01*
X63373000Y-129439000D01*
X63627000Y-129439000D01*
X63627000Y-130937000D01*
X65950740Y-130937000D01*
X66070218Y-130685135D01*
X66039905Y-130559472D01*
X65728851Y-130004754D01*
X65229193Y-129611297D01*
X64617000Y-129439000D01*
X63627000Y-129439000D01*
X63373000Y-129439000D01*
X62383000Y-129439000D01*
X61770807Y-129611297D01*
X61271149Y-130004754D01*
X60960095Y-130559472D01*
X60929782Y-130685135D01*
X57127000Y-130685135D01*
X57127000Y-125571039D01*
X62108096Y-125571039D01*
X62268959Y-125959423D01*
X62644866Y-126374389D01*
X63150959Y-126613914D01*
X63373000Y-126492629D01*
X63373000Y-125349000D01*
X63627000Y-125349000D01*
X63627000Y-126492629D01*
X63849041Y-126613914D01*
X64355134Y-126374389D01*
X64731041Y-125959423D01*
X64891904Y-125571039D01*
X64856275Y-125506187D01*
X72224752Y-125506187D01*
X72442757Y-126033800D01*
X72846077Y-126437824D01*
X72900000Y-126460215D01*
X72900000Y-129794000D01*
X72957852Y-130084839D01*
X73122599Y-130331401D01*
X75260560Y-132469362D01*
X75260560Y-133642000D01*
X75304838Y-133877317D01*
X75443910Y-134093441D01*
X75656110Y-134238431D01*
X75908000Y-134289440D01*
X77508000Y-134289440D01*
X77743317Y-134245162D01*
X77776809Y-134223611D01*
X82774599Y-139221401D01*
X83021161Y-139386148D01*
X83312000Y-139444000D01*
X84359354Y-139444000D01*
X84380757Y-139495800D01*
X84784077Y-139899824D01*
X85311309Y-140118750D01*
X85882187Y-140119248D01*
X86409800Y-139901243D01*
X86813824Y-139497923D01*
X86836215Y-139444000D01*
X88585198Y-139444000D01*
X89632599Y-140491401D01*
X89879160Y-140656148D01*
X90170000Y-140714000D01*
X91048560Y-140714000D01*
X91092838Y-140949317D01*
X91231910Y-141165441D01*
X91444110Y-141310431D01*
X91696000Y-141361440D01*
X93216000Y-141361440D01*
X93451317Y-141317162D01*
X93667441Y-141178090D01*
X93812431Y-140965890D01*
X93849969Y-140780520D01*
X94204764Y-141135934D01*
X94717300Y-141348758D01*
X95272265Y-141349242D01*
X95785172Y-141137313D01*
X95990078Y-140932764D01*
X96736841Y-140932764D01*
X96806059Y-141174742D01*
X97328780Y-141361155D01*
X97883049Y-141333341D01*
X98265941Y-141174742D01*
X98335159Y-140932764D01*
X97536000Y-140133605D01*
X96736841Y-140932764D01*
X95990078Y-140932764D01*
X96177934Y-140745236D01*
X96259391Y-140549066D01*
X96315258Y-140683941D01*
X96557236Y-140753159D01*
X97356395Y-139954000D01*
X97715605Y-139954000D01*
X98514764Y-140753159D01*
X98756742Y-140683941D01*
X98943155Y-140161220D01*
X98915341Y-139606951D01*
X98756742Y-139224059D01*
X98514764Y-139154841D01*
X97715605Y-139954000D01*
X97356395Y-139954000D01*
X96557236Y-139154841D01*
X96315258Y-139224059D01*
X96263618Y-139368862D01*
X96179313Y-139164828D01*
X95990052Y-138975236D01*
X96736841Y-138975236D01*
X97536000Y-139774395D01*
X98335159Y-138975236D01*
X98265941Y-138733258D01*
X97743220Y-138546845D01*
X97188951Y-138574659D01*
X96806059Y-138733258D01*
X96736841Y-138975236D01*
X95990052Y-138975236D01*
X95787236Y-138772066D01*
X95756000Y-138759096D01*
X95756000Y-136880769D01*
X113263000Y-136880769D01*
X113263000Y-138963231D01*
X113386696Y-139585092D01*
X113738951Y-140112280D01*
X114266139Y-140464535D01*
X114888000Y-140588231D01*
X115509861Y-140464535D01*
X116037049Y-140112280D01*
X116389304Y-139585092D01*
X116513000Y-138963231D01*
X116513000Y-138207750D01*
X118263000Y-138207750D01*
X118263000Y-140028310D01*
X118359673Y-140261699D01*
X118538302Y-140440327D01*
X118771691Y-140537000D01*
X119602250Y-140537000D01*
X119761000Y-140378250D01*
X119761000Y-138049000D01*
X120015000Y-138049000D01*
X120015000Y-140378250D01*
X120173750Y-140537000D01*
X121004309Y-140537000D01*
X121237698Y-140440327D01*
X121416327Y-140261699D01*
X121513000Y-140028310D01*
X121513000Y-138207750D01*
X121354250Y-138049000D01*
X120015000Y-138049000D01*
X119761000Y-138049000D01*
X118421750Y-138049000D01*
X118263000Y-138207750D01*
X116513000Y-138207750D01*
X116513000Y-136880769D01*
X116389304Y-136258908D01*
X116093156Y-135815690D01*
X118263000Y-135815690D01*
X118263000Y-137636250D01*
X118421750Y-137795000D01*
X119761000Y-137795000D01*
X119761000Y-135465750D01*
X120015000Y-135465750D01*
X120015000Y-137795000D01*
X121354250Y-137795000D01*
X121513000Y-137636250D01*
X121513000Y-136683750D01*
X130227000Y-136683750D01*
X130227000Y-137514309D01*
X130323673Y-137747698D01*
X130502301Y-137926327D01*
X130735690Y-138023000D01*
X132556250Y-138023000D01*
X132715000Y-137864250D01*
X132715000Y-136525000D01*
X130385750Y-136525000D01*
X130227000Y-136683750D01*
X121513000Y-136683750D01*
X121513000Y-135815690D01*
X121416327Y-135582301D01*
X121237698Y-135403673D01*
X121004309Y-135307000D01*
X120173750Y-135307000D01*
X120015000Y-135465750D01*
X119761000Y-135465750D01*
X119602250Y-135307000D01*
X118771691Y-135307000D01*
X118538302Y-135403673D01*
X118359673Y-135582301D01*
X118263000Y-135815690D01*
X116093156Y-135815690D01*
X116037049Y-135731720D01*
X115648000Y-135471766D01*
X115648000Y-135281691D01*
X130227000Y-135281691D01*
X130227000Y-136112250D01*
X130385750Y-136271000D01*
X132715000Y-136271000D01*
X132715000Y-134931750D01*
X132556250Y-134773000D01*
X130735690Y-134773000D01*
X130502301Y-134869673D01*
X130323673Y-135048302D01*
X130227000Y-135281691D01*
X115648000Y-135281691D01*
X115648000Y-133076802D01*
X120679401Y-128045401D01*
X120844148Y-127798839D01*
X120902000Y-127508000D01*
X120902000Y-121126646D01*
X120953800Y-121105243D01*
X121357824Y-120701923D01*
X121576750Y-120174691D01*
X121577248Y-119603813D01*
X121359243Y-119076200D01*
X120955923Y-118672176D01*
X120428691Y-118453250D01*
X119857813Y-118452752D01*
X119425367Y-118631435D01*
X119663401Y-118393401D01*
X119828148Y-118146839D01*
X119886000Y-117856000D01*
X119886000Y-113979667D01*
X120168811Y-113790698D01*
X120338995Y-113536000D01*
X121732333Y-113536000D01*
X121921302Y-113818811D01*
X122386849Y-114129880D01*
X122936000Y-114239113D01*
X123485151Y-114129880D01*
X123950698Y-113818811D01*
X124261767Y-113353264D01*
X124371000Y-112804113D01*
X124371000Y-112747887D01*
X124261767Y-112198736D01*
X123950698Y-111733189D01*
X123485151Y-111422120D01*
X122936000Y-111312887D01*
X122386849Y-111422120D01*
X121921302Y-111733189D01*
X121732333Y-112016000D01*
X120338995Y-112016000D01*
X120168811Y-111761302D01*
X119703264Y-111450233D01*
X119154113Y-111341000D01*
X119097887Y-111341000D01*
X118548736Y-111450233D01*
X118083189Y-111761302D01*
X117772120Y-112226849D01*
X117662887Y-112776000D01*
X117772120Y-113325151D01*
X118083189Y-113790698D01*
X118366000Y-113979667D01*
X118366000Y-117541198D01*
X116779198Y-119128000D01*
X116589440Y-119128000D01*
X116589440Y-119088000D01*
X116545162Y-118852683D01*
X116406090Y-118636559D01*
X116193890Y-118491569D01*
X115942000Y-118440560D01*
X114342000Y-118440560D01*
X114106683Y-118484838D01*
X113890559Y-118623910D01*
X113745569Y-118836110D01*
X113694560Y-119088000D01*
X113694560Y-120688000D01*
X113738838Y-120923317D01*
X113877910Y-121139441D01*
X114090110Y-121284431D01*
X114342000Y-121335440D01*
X115942000Y-121335440D01*
X116177317Y-121291162D01*
X116393441Y-121152090D01*
X116538431Y-120939890D01*
X116589440Y-120688000D01*
X116589440Y-120648000D01*
X117094000Y-120648000D01*
X117384839Y-120590148D01*
X117631401Y-120425401D01*
X118886021Y-119170781D01*
X118707250Y-119601309D01*
X118706752Y-120172187D01*
X118924757Y-120699800D01*
X119328077Y-121103824D01*
X119382000Y-121126215D01*
X119382000Y-127193198D01*
X114350599Y-132224599D01*
X114185852Y-132471161D01*
X114128000Y-132762000D01*
X114128000Y-135471766D01*
X113738951Y-135731720D01*
X113386696Y-136258908D01*
X113263000Y-136880769D01*
X95756000Y-136880769D01*
X95756000Y-135128000D01*
X95698148Y-134837161D01*
X95698148Y-134837160D01*
X95533401Y-134590599D01*
X88929401Y-127986599D01*
X88682839Y-127821852D01*
X88392000Y-127764000D01*
X86801667Y-127764000D01*
X86612698Y-127481189D01*
X86358000Y-127311005D01*
X86358000Y-127222646D01*
X86409800Y-127201243D01*
X86813824Y-126797923D01*
X86836215Y-126744000D01*
X88646000Y-126744000D01*
X88936839Y-126686148D01*
X89183401Y-126521401D01*
X90279401Y-125425401D01*
X90444148Y-125178839D01*
X90502000Y-124888000D01*
X90502000Y-121843440D01*
X90542000Y-121843440D01*
X90777317Y-121799162D01*
X90993441Y-121660090D01*
X91138431Y-121447890D01*
X91189440Y-121196000D01*
X91189440Y-119596000D01*
X91145162Y-119360683D01*
X91006090Y-119144559D01*
X90793890Y-118999569D01*
X90542000Y-118948560D01*
X88942000Y-118948560D01*
X88706683Y-118992838D01*
X88490559Y-119131910D01*
X88345569Y-119344110D01*
X88294560Y-119596000D01*
X88294560Y-119636000D01*
X86868000Y-119636000D01*
X86577161Y-119693852D01*
X86330599Y-119858599D01*
X85791198Y-120398000D01*
X80487149Y-120398000D01*
X80499441Y-120390090D01*
X80644431Y-120177890D01*
X80695440Y-119926000D01*
X80695440Y-119515362D01*
X83626802Y-116584000D01*
X84394333Y-116584000D01*
X84583302Y-116866811D01*
X85048849Y-117177880D01*
X85598000Y-117287113D01*
X86147151Y-117177880D01*
X86612698Y-116866811D01*
X86923767Y-116401264D01*
X87033000Y-115852113D01*
X87033000Y-115795887D01*
X86923767Y-115246736D01*
X86612698Y-114781189D01*
X86147151Y-114470120D01*
X85598000Y-114360887D01*
X85048849Y-114470120D01*
X84583302Y-114781189D01*
X84394333Y-115064000D01*
X83880802Y-115064000D01*
X83818000Y-115001198D01*
X83818000Y-112268000D01*
X86420887Y-112268000D01*
X86530120Y-112817151D01*
X86841189Y-113282698D01*
X87306736Y-113593767D01*
X87855887Y-113703000D01*
X87912113Y-113703000D01*
X88461264Y-113593767D01*
X88911508Y-113292923D01*
X89102077Y-113483824D01*
X89156000Y-113506215D01*
X89156000Y-116332000D01*
X89213852Y-116622839D01*
X89378599Y-116869401D01*
X91664599Y-119155401D01*
X91911160Y-119320148D01*
X92202000Y-119378000D01*
X93411198Y-119378000D01*
X93570764Y-119537566D01*
X93526176Y-119582077D01*
X93307250Y-120109309D01*
X93306752Y-120680187D01*
X93524757Y-121207800D01*
X93928077Y-121611824D01*
X94455309Y-121830750D01*
X95026187Y-121831248D01*
X95553800Y-121613243D01*
X95957824Y-121209923D01*
X95980215Y-121156000D01*
X100777198Y-121156000D01*
X101856000Y-122234802D01*
X101856000Y-128640560D01*
X101620683Y-128684838D01*
X101404559Y-128823910D01*
X101259569Y-129036110D01*
X101208560Y-129288000D01*
X101208560Y-130808000D01*
X101252838Y-131043317D01*
X101391910Y-131259441D01*
X101604110Y-131404431D01*
X101856000Y-131455440D01*
X103376000Y-131455440D01*
X103611317Y-131411162D01*
X103827441Y-131272090D01*
X103972431Y-131059890D01*
X104009969Y-130874520D01*
X104364764Y-131229934D01*
X104877300Y-131442758D01*
X105432265Y-131443242D01*
X105945172Y-131231313D01*
X106150078Y-131026764D01*
X106896841Y-131026764D01*
X106966059Y-131268742D01*
X107488780Y-131455155D01*
X108043049Y-131427341D01*
X108425941Y-131268742D01*
X108495159Y-131026764D01*
X107696000Y-130227605D01*
X106896841Y-131026764D01*
X106150078Y-131026764D01*
X106337934Y-130839236D01*
X106419391Y-130643066D01*
X106475258Y-130777941D01*
X106717236Y-130847159D01*
X107516395Y-130048000D01*
X107875605Y-130048000D01*
X108674764Y-130847159D01*
X108916742Y-130777941D01*
X109103155Y-130255220D01*
X109075341Y-129700951D01*
X108916742Y-129318059D01*
X108674764Y-129248841D01*
X107875605Y-130048000D01*
X107516395Y-130048000D01*
X106717236Y-129248841D01*
X106475258Y-129318059D01*
X106423618Y-129462862D01*
X106339313Y-129258828D01*
X106150052Y-129069236D01*
X106896841Y-129069236D01*
X107696000Y-129868395D01*
X108495159Y-129069236D01*
X108425941Y-128827258D01*
X107903220Y-128640845D01*
X107348951Y-128668659D01*
X106966059Y-128827258D01*
X106896841Y-129069236D01*
X106150052Y-129069236D01*
X105947236Y-128866066D01*
X105916000Y-128853096D01*
X105916000Y-117348000D01*
X105858148Y-117057161D01*
X105693401Y-116810599D01*
X101942989Y-113060187D01*
X107530752Y-113060187D01*
X107748757Y-113587800D01*
X108152077Y-113991824D01*
X108679309Y-114210750D01*
X109250187Y-114211248D01*
X109777800Y-113993243D01*
X110181824Y-113589923D01*
X110400750Y-113062691D01*
X110401248Y-112491813D01*
X110183243Y-111964200D01*
X109779923Y-111560176D01*
X109726000Y-111537785D01*
X109726000Y-110187750D01*
X128359000Y-110187750D01*
X128359000Y-110828309D01*
X128455673Y-111061698D01*
X128634301Y-111240327D01*
X128867690Y-111337000D01*
X129508250Y-111337000D01*
X129667000Y-111178250D01*
X129667000Y-110029000D01*
X129921000Y-110029000D01*
X129921000Y-111178250D01*
X130079750Y-111337000D01*
X130720310Y-111337000D01*
X130953699Y-111240327D01*
X131132327Y-111061698D01*
X131229000Y-110828309D01*
X131229000Y-110187750D01*
X131070250Y-110029000D01*
X129921000Y-110029000D01*
X129667000Y-110029000D01*
X128517750Y-110029000D01*
X128359000Y-110187750D01*
X109726000Y-110187750D01*
X109726000Y-109788802D01*
X110296802Y-109218000D01*
X110352560Y-109218000D01*
X110396838Y-109453317D01*
X110535910Y-109669441D01*
X110748110Y-109814431D01*
X111000000Y-109865440D01*
X112520000Y-109865440D01*
X112755317Y-109821162D01*
X112971441Y-109682090D01*
X113116431Y-109469890D01*
X113167440Y-109218000D01*
X113167440Y-108975691D01*
X128359000Y-108975691D01*
X128359000Y-109616250D01*
X128517750Y-109775000D01*
X129667000Y-109775000D01*
X129667000Y-108625750D01*
X129921000Y-108625750D01*
X129921000Y-109775000D01*
X131070250Y-109775000D01*
X131229000Y-109616250D01*
X131229000Y-108975691D01*
X131132327Y-108742302D01*
X130953699Y-108563673D01*
X130720310Y-108467000D01*
X130079750Y-108467000D01*
X129921000Y-108625750D01*
X129667000Y-108625750D01*
X129508250Y-108467000D01*
X128867690Y-108467000D01*
X128634301Y-108563673D01*
X128455673Y-108742302D01*
X128359000Y-108975691D01*
X113167440Y-108975691D01*
X113167440Y-107698000D01*
X113123162Y-107462683D01*
X112984090Y-107246559D01*
X112771890Y-107101569D01*
X112520000Y-107050560D01*
X112515166Y-107050560D01*
X112559159Y-106896764D01*
X111760000Y-106097605D01*
X110960841Y-106896764D01*
X111004834Y-107050560D01*
X111000000Y-107050560D01*
X110764683Y-107094838D01*
X110548559Y-107233910D01*
X110403569Y-107446110D01*
X110352560Y-107698000D01*
X109982000Y-107698000D01*
X109691161Y-107755852D01*
X109444599Y-107920599D01*
X108428599Y-108936599D01*
X108263852Y-109183161D01*
X108206000Y-109474000D01*
X108206000Y-111537354D01*
X108154200Y-111558757D01*
X107750176Y-111962077D01*
X107531250Y-112489309D01*
X107530752Y-113060187D01*
X101942989Y-113060187D01*
X101474688Y-112591886D01*
X101539113Y-112268000D01*
X101429880Y-111718849D01*
X101118811Y-111253302D01*
X100836000Y-111064333D01*
X100836000Y-107950000D01*
X100778148Y-107659161D01*
X100613401Y-107412599D01*
X100328000Y-107127198D01*
X100328000Y-106895440D01*
X101168000Y-106895440D01*
X101403317Y-106851162D01*
X101619441Y-106712090D01*
X101764431Y-106499890D01*
X101815440Y-106248000D01*
X101815440Y-105710780D01*
X110352845Y-105710780D01*
X110380659Y-106265049D01*
X110539258Y-106647941D01*
X110781236Y-106717159D01*
X111580395Y-105918000D01*
X111939605Y-105918000D01*
X112738764Y-106717159D01*
X112980742Y-106647941D01*
X113167155Y-106125220D01*
X113139341Y-105570951D01*
X112980742Y-105188059D01*
X112738764Y-105118841D01*
X111939605Y-105918000D01*
X111580395Y-105918000D01*
X110781236Y-105118841D01*
X110539258Y-105188059D01*
X110352845Y-105710780D01*
X101815440Y-105710780D01*
X101815440Y-105408000D01*
X105410000Y-105408000D01*
X105700839Y-105350148D01*
X105947401Y-105185401D01*
X106994802Y-104138000D01*
X110564633Y-104138000D01*
X110576687Y-104167172D01*
X110968764Y-104559934D01*
X111164934Y-104641391D01*
X111030059Y-104697258D01*
X110960841Y-104939236D01*
X111760000Y-105738395D01*
X112559159Y-104939236D01*
X112489941Y-104697258D01*
X112345138Y-104645618D01*
X112549172Y-104561313D01*
X112941934Y-104169236D01*
X113154758Y-103656700D01*
X113155242Y-103101735D01*
X112943313Y-102588828D01*
X112551236Y-102196066D01*
X112038700Y-101983242D01*
X111483735Y-101982758D01*
X110970828Y-102194687D01*
X110578066Y-102586764D01*
X110565096Y-102618000D01*
X106680000Y-102618000D01*
X106389160Y-102675852D01*
X106142599Y-102840599D01*
X105095198Y-103888000D01*
X101815440Y-103888000D01*
X101815440Y-103048000D01*
X101771162Y-102812683D01*
X101632090Y-102596559D01*
X101419890Y-102451569D01*
X101168000Y-102400560D01*
X97968000Y-102400560D01*
X97732683Y-102444838D01*
X97516559Y-102583910D01*
X97371569Y-102796110D01*
X97320560Y-103048000D01*
X97320560Y-106248000D01*
X97364838Y-106483317D01*
X97503910Y-106699441D01*
X97716110Y-106844431D01*
X97968000Y-106895440D01*
X98808000Y-106895440D01*
X98808000Y-107442000D01*
X98865852Y-107732839D01*
X99030599Y-107979401D01*
X99316000Y-108264802D01*
X99316000Y-111064333D01*
X99033189Y-111253302D01*
X98722120Y-111718849D01*
X98612887Y-112268000D01*
X98722120Y-112817151D01*
X99033189Y-113282698D01*
X99498736Y-113593767D01*
X100047887Y-113703000D01*
X100104113Y-113703000D01*
X100381102Y-113647904D01*
X104396000Y-117662802D01*
X104396000Y-128852633D01*
X104366828Y-128864687D01*
X104010684Y-129220210D01*
X103979162Y-129052683D01*
X103840090Y-128836559D01*
X103627890Y-128691569D01*
X103376000Y-128640560D01*
X103376000Y-121920000D01*
X103318148Y-121629161D01*
X103318148Y-121629160D01*
X103153401Y-121382599D01*
X101629401Y-119858599D01*
X101382839Y-119693852D01*
X101092000Y-119636000D01*
X95980646Y-119636000D01*
X95959243Y-119584200D01*
X95555923Y-119180176D01*
X95225969Y-119043167D01*
X94263401Y-118080599D01*
X94016839Y-117915852D01*
X93726000Y-117858000D01*
X92516802Y-117858000D01*
X90676000Y-116017198D01*
X90676000Y-113506646D01*
X90727800Y-113485243D01*
X91131824Y-113081923D01*
X91350750Y-112554691D01*
X91351248Y-111983813D01*
X91133243Y-111456200D01*
X90729923Y-111052176D01*
X90202691Y-110833250D01*
X89631813Y-110832752D01*
X89104200Y-111050757D01*
X88911530Y-111243091D01*
X88461264Y-110942233D01*
X87912113Y-110833000D01*
X87855887Y-110833000D01*
X87306736Y-110942233D01*
X86841189Y-111253302D01*
X86530120Y-111718849D01*
X86420887Y-112268000D01*
X83818000Y-112268000D01*
X83818000Y-105886646D01*
X83869800Y-105865243D01*
X84273824Y-105461923D01*
X84296215Y-105408000D01*
X85852000Y-105408000D01*
X86142839Y-105350148D01*
X86389401Y-105185401D01*
X86897401Y-104677401D01*
X86917046Y-104648000D01*
X89669214Y-104648000D01*
X89839343Y-105503297D01*
X90323830Y-106228384D01*
X91048917Y-106712871D01*
X91904214Y-106883000D01*
X91991786Y-106883000D01*
X92847083Y-106712871D01*
X93572170Y-106228384D01*
X94056657Y-105503297D01*
X94226786Y-104648000D01*
X94056657Y-103792703D01*
X93572170Y-103067616D01*
X92847083Y-102583129D01*
X92809207Y-102575595D01*
X95564802Y-99820000D01*
X102616000Y-99820000D01*
X102906839Y-99762148D01*
X103153401Y-99597401D01*
X105253362Y-97497440D01*
X108026000Y-97497440D01*
X108261317Y-97453162D01*
X108477441Y-97314090D01*
X108622431Y-97101890D01*
X108673440Y-96850000D01*
X108673440Y-93650000D01*
X108629162Y-93414683D01*
X108490090Y-93198559D01*
X108277890Y-93053569D01*
X108026000Y-93002560D01*
X104826000Y-93002560D01*
X104590683Y-93046838D01*
X104374559Y-93185910D01*
X104229569Y-93398110D01*
X104178560Y-93650000D01*
X104178560Y-96422638D01*
X102301198Y-98300000D01*
X95250000Y-98300000D01*
X94959160Y-98357852D01*
X94712599Y-98522599D01*
X91410599Y-101824599D01*
X91245852Y-102071161D01*
X91188000Y-102362000D01*
X91188000Y-102555464D01*
X91048917Y-102583129D01*
X90323830Y-103067616D01*
X89839343Y-103792703D01*
X89669214Y-104648000D01*
X86917046Y-104648000D01*
X86990105Y-104538659D01*
X87062148Y-104430839D01*
X87120000Y-104140000D01*
X87120000Y-102168802D01*
X93278802Y-96010000D01*
X97567354Y-96010000D01*
X97588757Y-96061800D01*
X97992077Y-96465824D01*
X98519309Y-96684750D01*
X99090187Y-96685248D01*
X99617800Y-96467243D01*
X100021824Y-96063923D01*
X100240750Y-95536691D01*
X100241248Y-94965813D01*
X100023243Y-94438200D01*
X99619923Y-94034176D01*
X99092691Y-93815250D01*
X98521813Y-93814752D01*
X97994200Y-94032757D01*
X97590176Y-94436077D01*
X97567785Y-94490000D01*
X92964000Y-94490000D01*
X92673160Y-94547852D01*
X92426599Y-94712599D01*
X85822599Y-101316599D01*
X85657852Y-101563161D01*
X85600000Y-101854000D01*
X85600000Y-103825198D01*
X85537198Y-103888000D01*
X84296646Y-103888000D01*
X84275243Y-103836200D01*
X83871923Y-103432176D01*
X83344691Y-103213250D01*
X82773813Y-103212752D01*
X82246200Y-103430757D01*
X81842176Y-103834077D01*
X81623250Y-104361309D01*
X81622752Y-104932187D01*
X81840757Y-105459800D01*
X82244077Y-105863824D01*
X82298000Y-105886215D01*
X82298000Y-115316000D01*
X82355852Y-115606839D01*
X82395308Y-115665890D01*
X80318746Y-117742452D01*
X80299890Y-117729569D01*
X80048000Y-117678560D01*
X78448000Y-117678560D01*
X78212683Y-117722838D01*
X77996559Y-117861910D01*
X77851569Y-118074110D01*
X77800560Y-118326000D01*
X77800560Y-119926000D01*
X77844838Y-120161317D01*
X77983910Y-120377441D01*
X78013999Y-120398000D01*
X75498802Y-120398000D01*
X75252090Y-120151288D01*
X75463824Y-119939923D01*
X75682750Y-119412691D01*
X75683248Y-118841813D01*
X75465243Y-118314200D01*
X75061923Y-117910176D01*
X74534691Y-117691250D01*
X73963813Y-117690752D01*
X73436200Y-117908757D01*
X73032176Y-118312077D01*
X72813250Y-118839309D01*
X72812752Y-119410187D01*
X73030757Y-119937800D01*
X73434077Y-120341824D01*
X73518835Y-120377019D01*
X73545852Y-120512839D01*
X73710599Y-120759401D01*
X74646599Y-121695401D01*
X74893161Y-121860148D01*
X75184000Y-121918000D01*
X86106000Y-121918000D01*
X86396839Y-121860148D01*
X86643401Y-121695401D01*
X87182802Y-121156000D01*
X88294560Y-121156000D01*
X88294560Y-121196000D01*
X88338838Y-121431317D01*
X88477910Y-121647441D01*
X88690110Y-121792431D01*
X88942000Y-121843440D01*
X88982000Y-121843440D01*
X88982000Y-124573198D01*
X88331198Y-125224000D01*
X86836646Y-125224000D01*
X86815243Y-125172200D01*
X86411923Y-124768176D01*
X85884691Y-124549250D01*
X85313813Y-124548752D01*
X84786200Y-124766757D01*
X84382176Y-125170077D01*
X84163250Y-125697309D01*
X84162752Y-126268187D01*
X84380757Y-126795800D01*
X84784077Y-127199824D01*
X84838000Y-127222215D01*
X84838000Y-127311005D01*
X84583302Y-127481189D01*
X84272233Y-127946736D01*
X84163000Y-128495887D01*
X84163000Y-128552113D01*
X84272233Y-129101264D01*
X84583302Y-129566811D01*
X85048849Y-129877880D01*
X85598000Y-129987113D01*
X86147151Y-129877880D01*
X86612698Y-129566811D01*
X86801667Y-129284000D01*
X88077198Y-129284000D01*
X94236000Y-135442802D01*
X94236000Y-138758633D01*
X94206828Y-138770687D01*
X93850684Y-139126210D01*
X93819162Y-138958683D01*
X93680090Y-138742559D01*
X93467890Y-138597569D01*
X93216000Y-138546560D01*
X91696000Y-138546560D01*
X91460683Y-138590838D01*
X91244559Y-138729910D01*
X91099569Y-138942110D01*
X91048560Y-139194000D01*
X90484802Y-139194000D01*
X89437401Y-138146599D01*
X89190839Y-137981852D01*
X88900000Y-137924000D01*
X86836646Y-137924000D01*
X86815243Y-137872200D01*
X86411923Y-137468176D01*
X85884691Y-137249250D01*
X85313813Y-137248752D01*
X84786200Y-137466757D01*
X84382176Y-137870077D01*
X84359785Y-137924000D01*
X83626802Y-137924000D01*
X78155440Y-132452638D01*
X78155440Y-132042000D01*
X78111162Y-131806683D01*
X77972090Y-131590559D01*
X77759890Y-131445569D01*
X77508000Y-131394560D01*
X76335362Y-131394560D01*
X74420000Y-129479198D01*
X74420000Y-126460646D01*
X74471800Y-126439243D01*
X74875824Y-126035923D01*
X75094750Y-125508691D01*
X75095248Y-124937813D01*
X74877243Y-124410200D01*
X74473923Y-124006176D01*
X73946691Y-123787250D01*
X73375813Y-123786752D01*
X72848200Y-124004757D01*
X72444176Y-124408077D01*
X72225250Y-124935309D01*
X72224752Y-125506187D01*
X64856275Y-125506187D01*
X64769915Y-125349000D01*
X63627000Y-125349000D01*
X63373000Y-125349000D01*
X62230085Y-125349000D01*
X62108096Y-125571039D01*
X57127000Y-125571039D01*
X57127000Y-124872961D01*
X62108096Y-124872961D01*
X62230085Y-125095000D01*
X63373000Y-125095000D01*
X63373000Y-123951371D01*
X63627000Y-123951371D01*
X63627000Y-125095000D01*
X64769915Y-125095000D01*
X64891904Y-124872961D01*
X64731041Y-124484577D01*
X64355134Y-124069611D01*
X63849041Y-123830086D01*
X63627000Y-123951371D01*
X63373000Y-123951371D01*
X63150959Y-123830086D01*
X62644866Y-124069611D01*
X62268959Y-124484577D01*
X62108096Y-124872961D01*
X57127000Y-124872961D01*
X57127000Y-113275745D01*
X76895861Y-113275745D01*
X76969995Y-113521864D01*
X77507223Y-113714965D01*
X78077454Y-113687778D01*
X78478005Y-113521864D01*
X78552139Y-113275745D01*
X77724000Y-112447605D01*
X76895861Y-113275745D01*
X57127000Y-113275745D01*
X57127000Y-112051223D01*
X76277035Y-112051223D01*
X76304222Y-112621454D01*
X76470136Y-113022005D01*
X76716255Y-113096139D01*
X77544395Y-112268000D01*
X77903605Y-112268000D01*
X78731745Y-113096139D01*
X78977864Y-113022005D01*
X79170965Y-112484777D01*
X79143778Y-111914546D01*
X78977864Y-111513995D01*
X78731745Y-111439861D01*
X77903605Y-112268000D01*
X77544395Y-112268000D01*
X76716255Y-111439861D01*
X76470136Y-111513995D01*
X76277035Y-112051223D01*
X57127000Y-112051223D01*
X57127000Y-111260255D01*
X76895861Y-111260255D01*
X77724000Y-112088395D01*
X78552139Y-111260255D01*
X78478005Y-111014136D01*
X77940777Y-110821035D01*
X77370546Y-110848222D01*
X76969995Y-111014136D01*
X76895861Y-111260255D01*
X57127000Y-111260255D01*
X57127000Y-104933750D01*
X76623000Y-104933750D01*
X76623000Y-105574310D01*
X76719673Y-105807699D01*
X76898302Y-105986327D01*
X77131691Y-106083000D01*
X77772250Y-106083000D01*
X77931000Y-105924250D01*
X77931000Y-104775000D01*
X78185000Y-104775000D01*
X78185000Y-105924250D01*
X78343750Y-106083000D01*
X78984309Y-106083000D01*
X79217698Y-105986327D01*
X79396327Y-105807699D01*
X79493000Y-105574310D01*
X79493000Y-104933750D01*
X79334250Y-104775000D01*
X78185000Y-104775000D01*
X77931000Y-104775000D01*
X76781750Y-104775000D01*
X76623000Y-104933750D01*
X57127000Y-104933750D01*
X57127000Y-103721690D01*
X76623000Y-103721690D01*
X76623000Y-104362250D01*
X76781750Y-104521000D01*
X77931000Y-104521000D01*
X77931000Y-103371750D01*
X78185000Y-103371750D01*
X78185000Y-104521000D01*
X79334250Y-104521000D01*
X79493000Y-104362250D01*
X79493000Y-103721690D01*
X79396327Y-103488301D01*
X79217698Y-103309673D01*
X78984309Y-103213000D01*
X78343750Y-103213000D01*
X78185000Y-103371750D01*
X77931000Y-103371750D01*
X77772250Y-103213000D01*
X77131691Y-103213000D01*
X76898302Y-103309673D01*
X76719673Y-103488301D01*
X76623000Y-103721690D01*
X57127000Y-103721690D01*
X57127000Y-85061887D01*
X97371000Y-85061887D01*
X97371000Y-85118113D01*
X97480233Y-85667264D01*
X97791302Y-86132811D01*
X98256849Y-86443880D01*
X98806000Y-86553113D01*
X99355151Y-86443880D01*
X99820698Y-86132811D01*
X100009667Y-85850000D01*
X117414333Y-85850000D01*
X117603302Y-86132811D01*
X118068849Y-86443880D01*
X118618000Y-86553113D01*
X119167151Y-86443880D01*
X119632698Y-86132811D01*
X119821667Y-85850000D01*
X123700000Y-85850000D01*
X123700000Y-90752633D01*
X123670828Y-90764687D01*
X123314684Y-91120210D01*
X123283162Y-90952683D01*
X123144090Y-90736559D01*
X122931890Y-90591569D01*
X122680000Y-90540560D01*
X121160000Y-90540560D01*
X120924683Y-90584838D01*
X120708559Y-90723910D01*
X120563569Y-90936110D01*
X120512560Y-91188000D01*
X120512560Y-92708000D01*
X120556838Y-92943317D01*
X120695910Y-93159441D01*
X120908110Y-93304431D01*
X121160000Y-93355440D01*
X121160000Y-94173198D01*
X120843198Y-94490000D01*
X119856646Y-94490000D01*
X119835243Y-94438200D01*
X119431923Y-94034176D01*
X118904691Y-93815250D01*
X118333813Y-93814752D01*
X117806200Y-94032757D01*
X117402176Y-94436077D01*
X117379785Y-94490000D01*
X116173613Y-94490000D01*
X116154657Y-94394703D01*
X115670170Y-93669616D01*
X114945083Y-93185129D01*
X114089786Y-93015000D01*
X114002214Y-93015000D01*
X113146917Y-93185129D01*
X112421830Y-93669616D01*
X111937343Y-94394703D01*
X111767214Y-95250000D01*
X111937343Y-96105297D01*
X112421830Y-96830384D01*
X113146917Y-97314871D01*
X114002214Y-97485000D01*
X114089786Y-97485000D01*
X114945083Y-97314871D01*
X115670170Y-96830384D01*
X116154657Y-96105297D01*
X116173613Y-96010000D01*
X117379354Y-96010000D01*
X117400757Y-96061800D01*
X117804077Y-96465824D01*
X118331309Y-96684750D01*
X118902187Y-96685248D01*
X119429800Y-96467243D01*
X119833824Y-96063923D01*
X119856215Y-96010000D01*
X121158000Y-96010000D01*
X121448839Y-95952148D01*
X121695401Y-95787401D01*
X122457401Y-95025401D01*
X122622148Y-94778839D01*
X122680000Y-94488000D01*
X122680000Y-93355440D01*
X122915317Y-93311162D01*
X123131441Y-93172090D01*
X123276431Y-92959890D01*
X123313969Y-92774520D01*
X123668764Y-93129934D01*
X124181300Y-93342758D01*
X124736265Y-93343242D01*
X125249172Y-93131313D01*
X125641934Y-92739236D01*
X125729954Y-92527262D01*
X125816687Y-92737172D01*
X126208764Y-93129934D01*
X126240000Y-93142904D01*
X126240000Y-94935198D01*
X125923198Y-95252000D01*
X123698000Y-95252000D01*
X123407161Y-95309852D01*
X123160599Y-95474599D01*
X122398599Y-96236599D01*
X122233852Y-96483161D01*
X122176000Y-96774000D01*
X122176000Y-101377354D01*
X122124200Y-101398757D01*
X121720176Y-101802077D01*
X121501250Y-102329309D01*
X121500752Y-102900187D01*
X121718757Y-103427800D01*
X122122077Y-103831824D01*
X122649309Y-104050750D01*
X123220187Y-104051248D01*
X123747800Y-103833243D01*
X124151824Y-103429923D01*
X124370750Y-102902691D01*
X124371248Y-102331813D01*
X124153243Y-101804200D01*
X123749923Y-101400176D01*
X123696000Y-101377785D01*
X123696000Y-97088802D01*
X124012802Y-96772000D01*
X126238000Y-96772000D01*
X126528839Y-96714148D01*
X126775401Y-96549401D01*
X127537401Y-95787401D01*
X127702148Y-95540839D01*
X127760000Y-95250000D01*
X127760000Y-93143367D01*
X127789172Y-93131313D01*
X128181934Y-92739236D01*
X128394758Y-92226700D01*
X128395242Y-91671735D01*
X128183313Y-91158828D01*
X127791236Y-90766066D01*
X127278700Y-90553242D01*
X126723735Y-90552758D01*
X126210828Y-90764687D01*
X125818066Y-91156764D01*
X125730046Y-91368738D01*
X125643313Y-91158828D01*
X125251236Y-90766066D01*
X125220000Y-90753096D01*
X125220000Y-85850000D01*
X125415198Y-85850000D01*
X129034000Y-89468802D01*
X129034000Y-103663354D01*
X128982200Y-103684757D01*
X128578176Y-104088077D01*
X128359250Y-104615309D01*
X128358752Y-105186187D01*
X128576757Y-105713800D01*
X128980077Y-106117824D01*
X129507309Y-106336750D01*
X130078187Y-106337248D01*
X130605800Y-106119243D01*
X131009824Y-105715923D01*
X131032215Y-105662000D01*
X134559198Y-105662000D01*
X135130000Y-106232802D01*
X135130000Y-134848259D01*
X134948310Y-134773000D01*
X133127750Y-134773000D01*
X132969000Y-134931750D01*
X132969000Y-136271000D01*
X132989000Y-136271000D01*
X132989000Y-136525000D01*
X132969000Y-136525000D01*
X132969000Y-137864250D01*
X133127750Y-138023000D01*
X134948310Y-138023000D01*
X135130000Y-137947741D01*
X135130000Y-138035198D01*
X133392198Y-139773000D01*
X131800769Y-139773000D01*
X131178908Y-139896696D01*
X130651720Y-140248951D01*
X130299465Y-140776139D01*
X130175769Y-141398000D01*
X130299465Y-142019861D01*
X130651720Y-142547049D01*
X131178908Y-142899304D01*
X131800769Y-143023000D01*
X133883231Y-143023000D01*
X134505092Y-142899304D01*
X135032280Y-142547049D01*
X135384535Y-142019861D01*
X135508231Y-141398000D01*
X135384535Y-140776139D01*
X135045727Y-140269075D01*
X136427401Y-138887401D01*
X136592148Y-138640839D01*
X136650000Y-138350000D01*
X136650000Y-105918000D01*
X136592148Y-105627161D01*
X136427401Y-105380599D01*
X135411401Y-104364599D01*
X135164839Y-104199852D01*
X134874000Y-104142000D01*
X131032646Y-104142000D01*
X131011243Y-104090200D01*
X130607923Y-103686176D01*
X130554000Y-103663785D01*
X130554000Y-89154000D01*
X130496148Y-88863161D01*
X130331401Y-88616599D01*
X126267401Y-84552599D01*
X126020839Y-84387852D01*
X125730000Y-84330000D01*
X119821667Y-84330000D01*
X119632698Y-84047189D01*
X119167151Y-83736120D01*
X118618000Y-83626887D01*
X118068849Y-83736120D01*
X117603302Y-84047189D01*
X117414333Y-84330000D01*
X100009667Y-84330000D01*
X99820698Y-84047189D01*
X99355151Y-83736120D01*
X98806000Y-83626887D01*
X98256849Y-83736120D01*
X97791302Y-84047189D01*
X97480233Y-84512736D01*
X97371000Y-85061887D01*
X57127000Y-85061887D01*
X57127000Y-83127000D01*
X140870968Y-83127000D01*
X139875000Y-145873000D01*
M02*
